<?xml version="1.0" encoding="UTF-8"?>
<svg width="132px" height="110px" viewBox="0 0 132 110" version="1.1" xmlns="http://www.w3.org/2000/svg" xmlns:xlink="http://www.w3.org/1999/xlink">
    <!-- Generator: Sketch 42 (36781) - http://www.bohemiancoding.com/sketch -->
    <title>Group</title>
    <desc>Created with Sketch.</desc>
    <defs></defs>
    <g id="Page-1" stroke="none" stroke-width="1" fill="none" fill-rule="evenodd">
        <g id="Landing-page" transform="translate(-340.000000, -64.000000)" fill="#FFFFFF">
            <g id="Group" transform="translate(340.000000, 64.000000)">
                <g transform="translate(35.282815, 31.381381)" id="Shape" opacity="0.703068388">
                    <path d="M13.6679689,0.201831832 C9.64276033,9.03156156 6.95730945,18.4568769 5.71713499,28.0599099 L5.65151555,28.05 C4.12611087,24.1824925 2.28909627,20.7041141 0.0392397661,17.2752853 C3.51575114,10.7823123 8.15263846,5.00285285 13.6679689,0.201831832 L13.6679689,0.201831832 Z"></path>
                    <path d="M5.65151555,28.05 L0.0392397661,17.2752853 C2.28876652,20.7041141 4.12611087,24.1824925 5.65151555,28.05 L5.65151555,28.05 Z"></path>
                </g>
                <path d="M98.0301686,31.603033 C107.790648,42.3153153 113.739924,56.5509009 113.739924,72.1751952 C113.739924,81.9906306 111.391474,91.2583784 107.225464,99.4482583" id="Shape" opacity="0.703068388"></path>
                <path d="M75.394759,50.1263063 L75.4626866,50.1481081 L79.6514492,66.0251051 C80.5688024,51.5705105 84.6230287,37.9734535 91.1549658,25.9101201 C87.3114472,27.9466066 84.111263,30.9555856 81.9441727,34.7253153 C79.2916964,39.600991 77.1008644,44.7746246 75.394759,50.1263063 Z" id="Shape" opacity="0.703068388"></path>
                <path d="M117.145211,0.13972973 C113.298724,0.13972973 110.719781,0.695015015 108.155017,3.17612613 C107.975965,3.35186186 107.800541,3.53222222 107.620499,3.71258258 C102.773234,8.60906907 98.4459782,14.0202102 94.7238061,19.8472372 C94.1991803,19.062042 93.6491641,18.2814715 93.0958504,17.5184084 C91.4355796,15.221952 88.5578869,11.3775676 86.6255757,9.11942943 C83.9777159,5.60702703 79.8305013,3.37531532 75.1718507,3.37531532 C71.174011,3.37531532 67.2200275,4.98798799 64.6344897,7.63954955 C59.9428645,12.8287087 55.8836921,18.5255856 52.4978608,24.5831832 C49.7441525,21.2653453 46.1657497,16.9591592 43.3246587,14.4687988 C42.3555354,13.6234835 40.1287611,12.3999399 39.0293882,12.0061862 C37.3928591,11.4145646 35.5063826,11.2289189 33.6617839,11.2289189 C31.6328571,11.2289189 29.7130763,11.6543844 27.9796019,12.4174474 C26.2415111,13.1848048 24.6864293,14.2841441 23.390198,15.6460961 C5.25516094,37.1046847 -3.29614035,66.5182883 1.34272544,94.4691892 C1.40306895,94.8285886 1.46769915,95.1893093 1.52705342,95.5496997 C1.63257212,95.9279279 1.74468573,96.284024 1.87823284,96.6404505 C3.91606271,102.027147 9.15638508,105.858318 15.2491007,105.858318 C23.1178279,105.858318 29.5017092,99.4664264 29.5017092,91.5807808 C29.5017092,90.7671772 29.4410359,90.1018919 29.3130945,89.324955 C28.5098334,85.5132733 28.2100944,81.3458258 28.2100944,77.0716817 C28.2100944,66.8010511 30.7837614,57.1253453 35.3227141,48.6563363 C38.7992255,42.1633634 43.4357831,36.3839039 48.9514433,31.5828829 C44.9262347,40.4126126 42.2407838,49.8379279 41.0006094,59.440961 C39.1734871,73.5239339 40.4423495,87.9907508 45.1141899,101.537928 C45.0350509,101.352282 44.9582201,101.163994 44.879081,100.978348 C47.4339525,107.678108 55.3356543,111.425706 62.1294098,109.401772 C65.8924704,108.283604 69.1124394,105.544174 70.8561359,102.022853 C72.876819,97.9343544 72.2160082,93.4015616 71.6781925,89.0481381 C70.0726596,76.1622823 71.4094496,62.6563964 75.3950887,50.125976 C77.1015239,44.7742943 79.2920261,39.6006607 81.9445024,34.724985 C84.1115927,30.9552553 87.311777,27.9462763 91.1552956,25.9097898 C91.1958543,25.8856757 90.5871433,25.8998799 90.5693371,25.9097898 C84.0370701,37.9737838 79.46877,51.5708408 78.4795322,66.0254354 C78.4795322,68.1088288 78.8722596,70.1922222 78.8722596,72.2908108 C78.8722596,78.0438438 79.4163404,83.6802703 80.3712846,89.1650751 C80.7092742,91.1054354 81.3120497,93.3097297 81.7466549,95.2084685 C83.5536626,101.016336 89.0363482,104.934384 95.4301219,104.934384 C102.427331,104.934384 108.846824,99.994955 110.051716,93.3328529 C110.453676,89.1650751 110.075128,85.3897297 110.075128,81.5552553 C110.075128,59.0997297 117.021226,38.8554354 129.782394,22.3706306 C131.424199,20.1749249 131.434751,17.3618318 131.434751,14.4185886 C131.434751,6.53063063 125.019214,0.13972973 117.145211,0.13972973 Z" id="Shape"></path>
            </g>
        </g>
    </g>
</svg>