<svg width="132" height="110" viewBox="0 0 132 110" xmlns="http://www.w3.org/2000/svg"><title>Group</title><g fill="#FFF" fill-rule="evenodd"><g opacity=".703"><path d="M48.95 31.583A97.335 97.335 0 0 0 41 59.441l-.066-.01c-1.525-3.867-3.362-7.346-5.612-10.774a60.551 60.551 0 0 1 13.629-17.074z"/><path d="M40.934 59.431l-5.612-10.774c2.25 3.428 4.087 6.907 5.612 10.774z"/></g><path d="M98.03 31.603c9.76 10.712 15.71 24.948 15.71 40.572 0 9.816-2.349 19.083-6.515 27.273m-31.83-49.322l.068.022 4.188 15.877c.918-14.454 4.972-28.052 11.504-40.115-3.844 2.037-7.044 5.046-9.21 8.815a88.51 88.51 0 0 0-6.55 15.401z" opacity=".703"/><path d="M117.145.14c-3.846 0-6.425.555-8.99 3.036-.179.176-.354.356-.535.537a97.693 97.693 0 0 0-12.896 16.134 74.365 74.365 0 0 0-1.628-2.329c-1.66-2.296-4.538-6.14-6.47-8.399-2.648-3.512-6.795-5.744-11.454-5.744-3.998 0-7.952 1.613-10.538 4.265a92.68 92.68 0 0 0-12.136 16.943c-2.754-3.318-6.332-7.624-9.173-10.114-.97-.846-3.196-2.07-4.296-2.463-1.636-.591-3.523-.777-5.367-.777a14.06 14.06 0 0 0-5.682 1.188 14.312 14.312 0 0 0-4.59 3.23C5.255 37.104-3.296 66.517 1.343 94.468c.06.36.125.72.184 1.08.106.379.218.735.351 1.091 2.038 5.387 7.278 9.218 13.371 9.218 7.869 0 14.253-6.392 14.253-14.277 0-.814-.061-1.48-.189-2.256-.803-3.812-1.103-7.98-1.103-12.253 0-10.27 2.574-19.947 7.113-28.416A60.545 60.545 0 0 1 48.95 31.583 97.335 97.335 0 0 0 41 59.441c-1.828 14.083-.559 28.55 4.113 42.097l-.235-.56c2.555 6.7 10.457 10.448 17.25 8.424 3.763-1.118 6.983-3.858 8.727-7.38 2.02-4.088 1.36-8.62.822-12.974-1.605-12.886-.269-26.392 3.717-38.922a88.535 88.535 0 0 1 6.55-15.401c2.167-3.77 5.367-6.779 9.21-8.815.04-.024-.568-.01-.586 0-6.532 12.064-11.1 25.66-12.09 40.115 0 2.084.393 4.167.393 6.266 0 5.753.544 11.39 1.5 16.874.337 1.94.94 4.145 1.375 6.043 1.807 5.808 7.29 9.726 13.683 9.726 6.997 0 13.417-4.939 14.622-11.601.402-4.168.023-7.943.023-11.778 0-22.455 6.946-42.7 19.707-59.184 1.642-2.196 1.653-5.01 1.653-7.952 0-7.888-6.416-14.28-14.29-14.28z"/></g></svg>