<?xml version="1.0" standalone="no"?><!DOCTYPE svg PUBLIC "-//W3C//DTD SVG 1.1//EN" "http://www.w3.org/Graphics/SVG/1.1/DTD/svg11.dtd" ><svg xmlns="http://www.w3.org/2000/svg"><metadata></metadata><defs><font id="Avenir Next Demi Bold; 8.0d5e6; 2014-10-29" horiz-adv-x="1499"><font-face font-family="Avenir Next Demi Bold" font-weight="600" font-stretch="normal" units-per-em="1000" panose-1="2 11 7 3 2 2 2 2 2 4" ascent="1000" descent="-366" x-height="4" bbox="-463 -458 1421 1206" underline-thickness="50" underline-position="-75" unicode-range="U+0000-fe48" /><missing-glyph horiz-adv-x="512" d="M222 117 l0 67 l56 0 l0 -67 l-56 0 ZM225 234 l-2 17 q0 56 13 81 q7 13 18 27.5 q11 14.5 28 31.5 q16 15 26 26.5 q10 11.5 15 21 q5 9.5 7 18 q2 8.5 2 17.5 q0 36 -22.5 60.5 q-22.5 24.5 -53.5 24.5 q-31 0 -53.5 -22 q-22.5 -22 -28.5 -73 l-50 8 q7 72 44 104.5 q37 32.5 91 32.5 q54 0 89 -35.5 q35 -35.5 35 -95.5 q0 -32 -12.5 -58.5 q-12.5 -26.5 -50.5 -61.5 q-37 -33 -43 -52 q-6 -20 -6 -72 l-46 0 ZM462 50 l0 617 l-412 0 l0 -617 l412 0 ZM512 718 l0 -718 l-512 0 l0 718 l512 0 Z" /><glyph glyph-name=".null" unicode="" d="" /><glyph glyph-name="nonmarkingreturn" unicode="" d="" /><glyph glyph-name="space" unicode=" " d="" /><glyph glyph-name="exclam" unicode="!" d="M230 222 l-120 0 l0 486 l120 0 l0 -486 ZM90 70 q0 32 23.5 55 q23.5 23 56.5 23 q32 0 56 -22 q24 -22 24 -54 q0 -32 -23.5 -55 q-23.5 -23 -56.5 -23 q-16 0 -30.5 6 q-14.5 6 -25.5 16 q-11 10 -17.5 24 q-6.5 14 -6.5 30 Z" /><glyph glyph-name="quotedbl" unicode="&quot;" d="M90 708 l102 0 l0 -264 l-102 0 l0 264 ZM267 708 l102 0 l0 -264 l-102 0 l0 264 Z" /><glyph glyph-name="numbersign" unicode="#" d="M137 209 l-90 0 l0 84 l101 0 l18 122 l-90 0 l0 84 l101 0 l30 209 l88 0 l-30 -209 l103 0 l30 209 l87 0 l-30 -209 l90 0 l0 -84 l-102 0 l-17 -122 l90 0 l0 -84 l-100 0 l-31 -209 l-87 0 l30 209 l-104 0 l-30 -209 l-87 0 l30 209 ZM253 415 l-17 -122 l103 0 l17 122 l-103 0 Z" /><glyph glyph-name="dollar" unicode="$" d="M330 720 q55 -1 111 -18.5 q56 -17.5 97 -52.5 l-81 -84 q-23 26 -57.5 39.5 q-34.5 13.5 -69.5 13.5 l0 -202 q38 -12 76 -28 q38 -16 68.5 -40.5 q30.5 -24.5 49.5 -59.5 q19 -35 19 -86 q0 -52 -17.5 -91.5 q-17.5 -39.5 -47 -66 q-29.5 -26.5 -68 -40.5 q-38.5 -14 -80.5 -15 l0 -72 l-54 0 l0 72 q-66 2 -126.5 24.5 q-60.5 22.5 -108.5 68.5 l88 84 q27 -32 68 -52.5 q41 -20.5 79 -21.5 l0 222 q-44 12 -82 27.5 q-38 15.5 -66.5 39.5 q-28.5 24 -44.5 57.5 q-16 33.5 -16 81.5 q0 45 17.5 80.5 q17.5 35.5 47 60.5 q29.5 25 67 39.5 q37.5 14.5 77.5 17.5 l0 68 l54 0 l0 -66 ZM276 618 q-35 -4 -62 -26 q-27 -22 -27 -66 q0 -42 25.5 -63.5 q25.5 -21.5 63.5 -32.5 l0 188 ZM330 92 q42 2 67.5 30 q25.5 28 25.5 73 q0 44 -26.5 66.5 q-26.5 22.5 -66.5 36.5 l0 -206 Z" /><glyph glyph-name="percent" unicode="%" d="M518 174 q0 39 14.5 72.5 q14.5 33.5 40 59 q25.5 25.5 59 40 q33.5 14.5 72.5 14.5 q39 0 72.5 -14.5 q33.5 -14.5 59 -40 q25.5 -25.5 40 -59 q14.5 -33.5 14.5 -72.5 q0 -39 -14.5 -72.5 q-14.5 -33.5 -40 -59 q-25.5 -25.5 -59 -40 q-33.5 -14.5 -72.5 -14.5 q-39 0 -72.5 14.5 q-33.5 14.5 -59 40 q-25.5 25.5 -40 59 q-14.5 33.5 -14.5 72.5 ZM794 174 q0 38 -26 64 q-26 26 -64 26 q-38 0 -64 -26 q-26 -26 -26 -64 q0 -38 26 -64 q26 -26 64 -26 q38 0 64 26 q26 26 26 64 ZM40 534 q0 39 14.5 72.5 q14.5 33.5 40 59 q25.5 25.5 59 40 q33.5 14.5 72.5 14.5 q39 0 72.5 -14.5 q33.5 -14.5 59 -40 q25.5 -25.5 40 -59 q14.5 -33.5 14.5 -72.5 q0 -39 -14.5 -72.5 q-14.5 -33.5 -40 -59 q-25.5 -25.5 -59 -40 q-33.5 -14.5 -72.5 -14.5 q-39 0 -72.5 14.5 q-33.5 14.5 -59 40 q-25.5 25.5 -40 59 q-14.5 33.5 -14.5 72.5 ZM316 534 q0 38 -26 64 q-26 26 -64 26 q-38 0 -64 -26 q-26 -26 -26 -64 q0 -38 26 -64 q26 -26 64 -26 q38 0 64 26 q26 26 26 64 ZM631 740 l83 -38 l-416 -734 l-83 38 l416 734 Z" /><glyph glyph-name="ampersand" unicode="&amp;" d="M570 169 l165 -169 l-160 0 l-78 81 q-35 -41 -85 -68 q-50 -27 -127 -27 q-47 0 -90 13 q-43 13 -75.5 39 q-32.5 26 -52 64.5 q-19.5 38.5 -19.5 89.5 q0 39 13 70.5 q13 31.5 34.5 56.5 q21.5 25 49 43 q27.5 18 57.5 31 q-35 36 -55.5 74.5 q-20.5 38.5 -20.5 84.5 q0 45 17.5 78 q17.5 33 46 54.5 q28.5 21.5 64 31.5 q35.5 10 72.5 10 q38 0 73.5 -10.5 q35.5 -10.5 62.5 -32 q27 -21.5 43.5 -54 q16.5 -32.5 16.5 -75.5 q0 -34 -11.5 -62.5 q-11.5 -28.5 -31 -52 q-19.5 -23.5 -46 -41.5 q-26.5 -18 -56.5 -32 l116 -121 l82 129 l137 0 l-142 -205 ZM328 629 q-35 0 -59 -22 q-24 -22 -24 -57 q0 -30 16.5 -58 q16.5 -28 46.5 -55 q21 9 39.5 20 q18.5 11 32.5 25 q14 14 22 31 q8 17 8 37 q0 32 -23 55.5 q-23 23.5 -59 23.5 ZM270 316 q-20 -7 -37.5 -17 q-17.5 -10 -31 -24 q-13.5 -14 -21.5 -33.5 q-8 -19.5 -8 -44.5 q0 -26 10.5 -47 q10.5 -21 27.5 -35 q17 -14 38 -21.5 q21 -7.5 41 -7.5 q44 0 75 19 q31 19 57 54 l-151 157 Z" /><glyph glyph-name="quotesingle" unicode="&#39;" d="M90 708 l102 0 l0 -264 l-102 0 l0 264 Z" /><glyph glyph-name="parenleft" unicode="(" d="M36 288 q0 123 38.5 236 q38.5 113 107.5 208 l84 -55 q-60 -84 -93.5 -184.5 q-33.5 -100.5 -33.5 -204.5 q0 -104 33.5 -204.5 q33.5 -100.5 93.5 -184.5 l-84 -55 q-69 95 -107.5 208 q-38.5 113 -38.5 236 Z" /><glyph glyph-name="parenright" unicode=")" d="M294 288 q0 -123 -38.5 -236 q-38.5 -113 -107.5 -208 l-84 55 q60 84 93.5 184.5 q33.5 100.5 33.5 204.5 q0 104 -33.5 204.5 q-33.5 100.5 -93.5 184.5 l84 55 q69 -95 107.5 -208 q38.5 -113 38.5 -236 Z" /><glyph glyph-name="asterisk" unicode="*" d="M274 566 l135 44 l26 -80 l-136 -44 l86 -117 l-69 -50 l-86 118 l-84 -115 l-67 51 l86 113 l-137 47 l26 80 l136 -47 l0 142 l84 0 l0 -142 Z" /><glyph glyph-name="plus" unicode="+" d="M282 354 l0 220 l102 0 l0 -220 l220 0 l0 -102 l-220 0 l0 -220 l-102 0 l0 220 l-220 0 l0 102 l220 0 Z" /><glyph glyph-name="comma" unicode="," d="M94 138 l116 0 l-85 -264 l-101 0 l70 264 Z" /><glyph glyph-name="hyphen" unicode="-" d="M280 195 l-240 0 l0 102 l240 0 l0 -102 Z" /><glyph glyph-name="period" unicode="." d="M50 70 q0 32 23.5 55 q23.5 23 56.5 23 q32 0 56 -22 q24 -22 24 -54 q0 -32 -23.5 -55 q-23.5 -23 -56.5 -23 q-16 0 -30.5 6 q-14.5 6 -25.5 16 q-11 10 -17.5 24 q-6.5 14 -6.5 30 Z" /><glyph glyph-name="slash" unicode="/" d="M74 -48 l-83 30 l312 776 l83 -32 l-312 -774 Z" /><glyph glyph-name="zero" unicode="0" d="M555 354 q0 -86 -16.5 -155 q-16.5 -69 -48 -117 q-31.5 -48 -78 -74 q-46.5 -26 -106.5 -26 q-60 0 -107 26 q-47 26 -79 74 q-32 48 -48.5 117 q-16.5 69 -16.5 155 q0 86 16.5 155 q16.5 69 48.5 117 q32 48 79 74 q47 26 107 26 q60 0 106.5 -26 q46.5 -26 78 -74 q31.5 -48 48 -117 q16.5 -69 16.5 -155 ZM432 354 q0 37 -4.5 84 q-4.5 47 -18 89 q-13.5 42 -38.5 70.5 q-25 28.5 -65 28.5 q-41 0 -66 -28.5 q-25 -28.5 -38.5 -70.5 q-13.5 -42 -18.5 -89 q-5 -47 -5 -84 q0 -37 5 -84 q5 -47 18.5 -88 q13.5 -41 38.5 -69.5 q25 -28.5 66 -28.5 q40 0 65 28.5 q25 28.5 38.5 69.5 q13.5 41 18 88 q4.5 47 4.5 84 Z" /><glyph glyph-name="one" unicode="1" d="M279 562 l-140 -115 l-70 83 l221 178 l109 0 l0 -708 l-120 0 l0 562 Z" /><glyph glyph-name="two" unicode="2" d="M69 110 l273 268 q33 32 52.5 64.5 q19.5 32.5 19.5 74.5 q0 50 -32.5 79.5 q-32.5 29.5 -80.5 29.5 q-51 0 -82 -34.5 q-31 -34.5 -38 -86.5 l-117 18 q5 44 25 81 q20 37 51 64 q31 27 72.5 42.5 q41.5 15.5 90.5 15.5 q46 0 88.5 -13 q42.5 -13 75.5 -39.5 q33 -26.5 52.5 -65 q19.5 -38.5 19.5 -89.5 q0 -34 -9 -63.5 q-9 -29.5 -24.5 -55.5 q-15.5 -26 -36 -49.5 q-20.5 -23.5 -44.5 -45.5 l-204 -195 l319 0 l0 -110 l-471 0 l0 110 Z" /><glyph glyph-name="three" unicode="3" d="M212 417 l32 0 q27 0 53.5 4.5 q26.5 4.5 48.5 16.5 q22 12 35.5 32.5 q13.5 20.5 13.5 53.5 q0 24 -9 43 q-9 19 -24.5 32 q-15.5 13 -36 20 q-20.5 7 -42.5 7 q-44 0 -73 -25 q-29 -25 -40 -66 l-113 29 q9 36 30.5 65.5 q21.5 29.5 52 51 q30.5 21.5 68.5 33.5 q38 12 80 12 q46 0 87.5 -12.5 q41.5 -12.5 73 -37 q31.5 -24.5 49.5 -60.5 q18 -36 18 -84 q0 -57 -34.5 -101.5 q-34.5 -44.5 -92.5 -58.5 l0 -2 q65 -13 105.5 -58.5 q40.5 -45.5 40.5 -111.5 q0 -55 -21.5 -96 q-21.5 -41 -57 -68 q-35.5 -27 -79.5 -40.5 q-44 -13.5 -89 -13.5 q-45 0 -85 9.5 q-40 9.5 -73.5 29.5 q-33.5 20 -59 52 q-25.5 32 -39.5 76 l112 35 q13 -42 48.5 -71 q35.5 -29 92.5 -29 q23 0 46.5 6.5 q23.5 6.5 42 20.5 q18.5 14 30 36 q11.5 22 11.5 54 q0 34 -16.5 57.5 q-16.5 23.5 -41.5 37 q-25 13.5 -55.5 19.5 q-30.5 6 -58.5 6 l-30 0 l0 96 Z" /><glyph glyph-name="four" unicode="4" d="M348 147 l-327 0 l0 106 l301 455 l144 0 l0 -458 l99 0 l0 -103 l-99 0 l0 -147 l-118 0 l0 147 ZM348 567 l-2 0 l-201 -317 l203 0 l0 317 Z" /><glyph glyph-name="five" unicode="5" d="M505 600 l-289 0 l-7 -153 q17 5 40.5 7 q23.5 2 42.5 2 q52 0 96.5 -15 q44.5 -15 77.5 -43.5 q33 -28.5 51.5 -70 q18.5 -41.5 18.5 -95.5 q0 -59 -20.5 -105.5 q-20.5 -46.5 -55.5 -78.5 q-35 -32 -82 -49 q-47 -17 -100 -17 q-89 0 -150 41.5 q-61 41.5 -89 113.5 l109 40 q15 -42 50 -67.5 q35 -25.5 83 -25.5 q27 0 51 9 q24 9 42 26 q18 17 28.5 42.5 q10.5 25.5 10.5 57.5 q0 41 -14 68 q-14 27 -36.5 43.5 q-22.5 16.5 -50.5 23 q-28 6.5 -57 6.5 q-20 0 -42.5 -3 q-22.5 -3 -44 -8.5 q-21.5 -5.5 -42 -12.5 q-20.5 -7 -36.5 -15 l12 387 l403 0 l0 -108 Z" /><glyph glyph-name="six" unicode="6" d="M441 708 l-181 -262 l1 -1 q14 6 35.5 9 q21.5 3 39.5 3 q47 0 88 -17.5 q41 -17.5 72 -48 q31 -30.5 48.5 -72 q17.5 -41.5 17.5 -89.5 q0 -56 -20 -102 q-20 -46 -54.5 -78.5 q-34.5 -32.5 -82 -50 q-47.5 -17.5 -101.5 -17.5 q-56 0 -103 18.5 q-47 18.5 -82 51.5 q-35 33 -54.5 77.5 q-19.5 44.5 -19.5 95.5 q0 30 5 56.5 q5 26.5 14.5 51 q9.5 24.5 23 49.5 q13.5 25 30.5 52 l177 274 l146 0 ZM167 222 q0 -28 9.5 -53 q9.5 -25 27.5 -44 q18 -19 43 -30 q25 -11 56 -11 q61 0 98.5 38.5 q37.5 38.5 37.5 101.5 q0 30 -9.5 55.5 q-9.5 25.5 -27.5 43.5 q-18 18 -42.5 28.5 q-24.5 10.5 -54.5 10.5 q-30 0 -55.5 -10 q-25.5 -10 -44 -28.5 q-18.5 -18.5 -28.5 -44.5 q-10 -26 -10 -57 Z" /><glyph glyph-name="seven" unicode="7" d="M51 708 l481 0 l0 -110 l-283 -598 l-141 0 l298 600 l-355 0 l0 108 Z" /><glyph glyph-name="eight" unicode="8" d="M305 726 q46 0 87 -13 q41 -13 71.5 -38 q30.5 -25 48 -60.5 q17.5 -35.5 17.5 -80.5 q0 -62 -31 -103 q-31 -41 -79 -57 l0 -2 q28 -7 52 -22.5 q24 -15.5 42 -38 q18 -22.5 28.5 -50.5 q10.5 -28 10.5 -61 q0 -53 -19.5 -93.5 q-19.5 -40.5 -53 -68.5 q-33.5 -28 -78.5 -42 q-45 -14 -96 -14 q-51 0 -96 14 q-45 14 -78.5 42 q-33.5 28 -53 68.5 q-19.5 40.5 -19.5 93.5 q0 34 11 63 q11 29 29.5 51 q18.5 22 42.5 36.5 q24 14.5 50 21.5 l0 2 q-48 17 -79 55 q-31 38 -31 100 q0 45 17.5 81.5 q17.5 36.5 48 62 q30.5 25.5 71 39.5 q40.5 14 87.5 14 ZM305 627 q-45 0 -73.5 -27 q-28.5 -27 -28.5 -73 q0 -43 27.5 -73 q27.5 -30 74.5 -30 q21 0 40 8 q19 8 33 22 q14 14 22 33 q8 19 8 40 q0 23 -8.5 41.5 q-8.5 18.5 -23 31.5 q-14.5 13 -33 20 q-18.5 7 -38.5 7 ZM305 322 q-26 0 -48.5 -9 q-22.5 -9 -39 -24.5 q-16.5 -15.5 -26 -38 q-9.5 -22.5 -9.5 -49.5 q0 -56 35 -87 q35 -31 88 -31 q52 0 87 31 q35 31 35 87 q0 26 -9.5 48.5 q-9.5 22.5 -26 38.5 q-16.5 16 -39 25 q-22.5 9 -47.5 9 Z" /><glyph glyph-name="nine" unicode="9" d="M168 0 l182 263 l-1 1 q-15 -7 -36.5 -10 q-21.5 -3 -39.5 -3 q-47 0 -88 17.5 q-41 17.5 -72 48 q-31 30.5 -48.5 72 q-17.5 41.5 -17.5 89.5 q0 56 20 102 q20 46 54.5 78.5 q34.5 32.5 82 50 q47.5 17.5 101.5 17.5 q55 0 102.5 -18.5 q47.5 -18.5 82.5 -51.5 q35 -33 54.5 -77.5 q19.5 -44.5 19.5 -95.5 q0 -30 -5 -56.5 q-5 -26.5 -14.5 -51 q-9.5 -24.5 -23 -49.5 q-13.5 -25 -30.5 -52 l-177 -274 l-146 0 ZM442 486 q0 28 -9.5 53 q-9.5 25 -27.5 44.5 q-18 19.5 -43 31 q-25 11.5 -56 11.5 q-61 0 -98.5 -39.5 q-37.5 -39.5 -37.5 -102.5 q0 -30 9.5 -55.5 q9.5 -25.5 27.5 -43.5 q18 -18 42.5 -28.5 q24.5 -10.5 54.5 -10.5 q30 0 55.5 10 q25.5 10 44 28.5 q18.5 18.5 28.5 44.5 q10 26 10 57 Z" /><glyph glyph-name="colon" unicode=":" d="M70 70 q0 32 23.5 55 q23.5 23 56.5 23 q32 0 56 -22 q24 -22 24 -54 q0 -32 -23.5 -55 q-23.5 -23 -56.5 -23 q-16 0 -30.5 6 q-14.5 6 -25.5 16 q-11 10 -17.5 24 q-6.5 14 -6.5 30 ZM70 408 q0 32 23.5 55 q23.5 23 56.5 23 q32 0 56 -22 q24 -22 24 -54 q0 -32 -23.5 -55 q-23.5 -23 -56.5 -23 q-16 0 -30.5 6 q-14.5 6 -25.5 16 q-11 10 -17.5 24 q-6.5 14 -6.5 30 Z" /><glyph glyph-name="semicolon" unicode=";" d="M110 138 l122 0 l-85 -264 l-107 0 l70 264 ZM70 409 q0 32 23.5 55 q23.5 23 56.5 23 q32 0 56 -22 q24 -22 24 -54 q0 -32 -23.5 -55 q-23.5 -23 -56.5 -23 q-16 0 -30.5 6 q-14.5 6 -25.5 16 q-11 10 -17.5 24 q-6.5 14 -6.5 30 Z" /><glyph glyph-name="less" unicode="&lt;" d="M80 267 l0 72 l506 225 l0 -110 l-338 -151 l338 -151 l0 -110 l-506 225 Z" /><glyph glyph-name="equal" unicode="=" d="M586 444 l0 -102 l-506 0 l0 102 l506 0 ZM586 264 l0 -102 l-506 0 l0 102 l506 0 Z" /><glyph glyph-name="greater" unicode="&gt;" d="M586 339 l0 -72 l-506 -225 l0 110 l338 151 l-338 151 l0 110 l506 -225 Z" /><glyph glyph-name="question" unicode="?" d="M210 209 l0 38 q0 24 3.5 43 q3.5 19 11 36 q7.5 17 20 33 q12.5 16 31.5 34 l45 43 q19 17 32.5 38 q13.5 21 13.5 51 q0 39 -24.5 65.5 q-24.5 26.5 -69.5 26.5 q-23 0 -41.5 -8.5 q-18.5 -8.5 -32 -23 q-13.5 -14.5 -20.5 -33.5 q-7 -19 -8 -39 l-123 11 q6 48 25.5 85.5 q19.5 37.5 50.5 63.5 q31 26 71 39.5 q40 13.5 86 13.5 q43 0 81.5 -12.5 q38.5 -12.5 68 -37 q29.5 -24.5 46.5 -60.5 q17 -36 17 -83 q0 -32 -7 -56 q-7 -24 -20 -44 q-13 -20 -31.5 -38.5 q-18.5 -18.5 -41.5 -38.5 q-20 -17 -32.5 -30 q-12.5 -13 -20 -26 q-7.5 -13 -10.5 -28 q-3 -15 -3 -37 l0 -26 l-118 0 ZM190 70 q0 32 23.5 55 q23.5 23 56.5 23 q32 0 56 -22 q24 -22 24 -54 q0 -32 -23.5 -55 q-23.5 -23 -56.5 -23 q-16 0 -30.5 6 q-14.5 6 -25.5 16 q-11 10 -17.5 24 q-6.5 14 -6.5 30 Z" /><glyph glyph-name="at" unicode="@" d="M412 467 q-24 0 -42 -14 q-18 -14 -30.5 -35.5 q-12.5 -21.5 -19 -47.5 q-6.5 -26 -6.5 -50 q0 -12 2.5 -25.5 q2.5 -13.5 10 -25 q7.5 -11.5 19.5 -19 q12 -7.5 32 -7.5 q27 0 46 13.5 q19 13.5 31 34 q12 20.5 17.5 44.5 q5.5 24 5.5 44 q0 16 -3 31.5 q-3 15.5 -10.5 28 q-7.5 12.5 -20.5 20.5 q-13 8 -32 8 ZM725 103 q-59 -63 -140 -92 q-81 -29 -171 -29 q-86 0 -156.5 27.5 q-70.5 27.5 -120.5 76.5 q-50 49 -77.5 117.5 q-27.5 68.5 -27.5 149.5 q0 80 30 148 q30 68 82 118 q52 50 121.5 78.5 q69.5 28.5 148.5 28.5 q68 0 132 -20 q64 -20 113.5 -60 q49.5 -40 79 -100 q29.5 -60 29.5 -141 q0 -60 -16.5 -106 q-16.5 -46 -44 -77 q-27.5 -31 -63 -46.5 q-35.5 -15.5 -74.5 -15.5 q-40 0 -64 19 q-24 19 -24 48 l-5 0 q-15 -24 -46 -45.5 q-31 -21.5 -76 -21.5 q-68 0 -105 45 q-37 45 -37 117 q0 42 14 83 q14 41 40 73 q26 32 62 51.5 q36 19.5 80 19.5 q38 0 64 -16 q26 -16 34 -39 l1 0 l8 40 l89 0 l-39 -189 q-2 -14 -5.5 -31 q-3.5 -17 -3.5 -32 q0 -17 6.5 -28.5 q6.5 -11.5 25.5 -11.5 q39 0 64.5 42 q25.5 42 25.5 113 q0 60 -20 106.5 q-20 46.5 -55.5 78 q-35.5 31.5 -84.5 47.5 q-49 16 -107 16 q-63 0 -115.5 -22.5 q-52.5 -22.5 -89.5 -62 q-37 -39.5 -57.5 -93 q-20.5 -53.5 -20.5 -115.5 q0 -66 21.5 -119 q21.5 -53 60.5 -90.5 q39 -37.5 93 -57.5 q54 -20 119 -20 q81 0 139.5 26 q58.5 26 107.5 72 l55 -60 Z" /><glyph glyph-name="A" unicode="a" d="M300 708 l109 0 l305 -708 l-144 0 l-66 162 l-307 0 l-64 -162 l-141 0 l308 708 ZM460 270 l-109 288 l-111 -288 l220 0 Z" /><glyph glyph-name="B" unicode="b" d="M78 708 l276 0 q40 0 79 -9.5 q39 -9.5 69.5 -31 q30.5 -21.5 49.5 -55.5 q19 -34 19 -82 q0 -60 -34 -99 q-34 -39 -89 -56 l0 -2 q67 -9 110 -52 q43 -43 43 -115 q0 -58 -23 -97.5 q-23 -39.5 -60.5 -63.5 q-37.5 -24 -86 -34.5 q-48.5 -10.5 -98.5 -10.5 l-255 0 l0 708 ZM204 420 l112 0 q63 0 96 25 q33 25 33 71 q0 48 -34 68 q-34 20 -106 20 l-101 0 l0 -184 ZM204 106 l113 0 q24 0 52 3.5 q28 3.5 51.5 14.5 q23.5 11 39 32 q15.5 21 15.5 56 q0 56 -38 78 q-38 22 -115 22 l-118 0 l0 -206 Z" /><glyph glyph-name="C" unicode="c" d="M589 542 q-28 38 -73 55.5 q-45 17.5 -88 17.5 q-55 0 -100 -20 q-45 -20 -77.5 -55 q-32.5 -35 -50 -82 q-17.5 -47 -17.5 -102 q0 -58 17 -106 q17 -48 48.5 -82.5 q31.5 -34.5 75.5 -53.5 q44 -19 99 -19 q57 0 101 22.5 q44 22.5 71 59.5 l101 -71 q-47 -59 -115 -91.5 q-68 -32.5 -159 -32.5 q-83 0 -152.5 27.5 q-69.5 27.5 -119.5 77 q-50 49.5 -78 118 q-28 68.5 -28 151.5 q0 85 29.5 153.5 q29.5 68.5 81 116.5 q51.5 48 121.5 74 q70 26 152 26 q34 0 71 -6.5 q37 -6.5 71 -20 q34 -13.5 64 -33.5 q30 -20 51 -48 l-96 -76 Z" /><glyph glyph-name="D" unicode="d" d="M78 708 l251 0 q69 0 139 -18 q70 -18 126 -59.5 q56 -41.5 91 -109 q35 -67.5 35 -167.5 q0 -93 -35 -160 q-35 -67 -91 -110 q-56 -43 -126 -63.5 q-70 -20.5 -139 -20.5 l-251 0 l0 708 ZM309 110 q49 0 98 11.5 q49 11.5 88.5 39 q39.5 27.5 64.5 74.5 q25 47 25 119 q0 76 -25 124 q-25 48 -64.5 75 q-39.5 27 -88.5 37 q-49 10 -98 10 l-105 0 l0 -490 l105 0 Z" /><glyph glyph-name="E" unicode="e" d="M78 708 l469 0 l0 -110 l-343 0 l0 -180 l325 0 l0 -106 l-325 0 l0 -200 l361 0 l0 -112 l-487 0 l0 708 Z" /><glyph glyph-name="F" unicode="f" d="M78 708 l457 0 l0 -110 l-331 0 l0 -194 l312 0 l0 -106 l-312 0 l0 -298 l-126 0 l0 708 Z" /><glyph glyph-name="G" unicode="g" d="M698 37 q-54 -26 -118.5 -40.5 q-64.5 -14.5 -148.5 -14.5 q-86 0 -157 27.5 q-71 27.5 -122 77 q-51 49.5 -79.5 118 q-28.5 68.5 -28.5 151.5 q0 85 29.5 153.5 q29.5 68.5 81 116.5 q51.5 48 121.5 74 q70 26 152 26 q85 0 155.5 -24.5 q70.5 -24.5 113.5 -64.5 l-87 -94 q-27 30 -75.5 51 q-48.5 21 -105.5 21 q-56 0 -101.5 -20 q-45.5 -20 -77.5 -55 q-32 -35 -49.5 -82 q-17.5 -47 -17.5 -102 q0 -57 17.5 -104.5 q17.5 -47.5 50 -82.5 q32.5 -35 79 -54.5 q46.5 -19.5 105.5 -19.5 q81 0 141 25 l0 180 l-149 0 l0 104 l271 0 l0 -367 Z" /><glyph glyph-name="H" unicode="h" d="M78 708 l126 0 l0 -286 l331 0 l0 286 l126 0 l0 -708 l-126 0 l0 314 l-331 0 l0 -314 l-126 0 l0 708 Z" /><glyph glyph-name="I" unicode="i" d="M78 708 l126 0 l0 -708 l-126 0 l0 708 Z" /><glyph glyph-name="J" unicode="j" d="M426 229 q0 -39 -8.5 -82 q-8.5 -43 -31.5 -80 q-23 -37 -65 -61 q-42 -24 -108 -24 q-86 0 -137.5 43 q-51.5 43 -70.5 113 l116 33 q9 -35 33 -55.5 q24 -20.5 57 -20.5 q27 0 44.5 10 q17.5 10 27 28.5 q9.5 18.5 13.5 44 q4 25.5 4 55.5 l0 475 l126 0 l0 -479 Z" /><glyph glyph-name="K" unicode="k" d="M78 708 l126 0 l0 -306 l3 0 l296 306 l170 0 l-331 -327 l353 -381 l-177 0 l-311 355 l-3 0 l0 -355 l-126 0 l0 708 Z" /><glyph glyph-name="L" unicode="l" d="M78 708 l126 0 l0 -596 l301 0 l0 -112 l-427 0 l0 708 Z" /><glyph glyph-name="M" unicode="m" d="M78 708 l197 0 l184 -503 l3 0 l182 503 l198 0 l0 -708 l-125 0 l0 569 l-2 0 l-215 -569 l-88 0 l-212 569 l-2 0 l0 -569 l-120 0 l0 708 Z" /><glyph glyph-name="N" unicode="n" d="M78 708 l167 0 l329 -530 l2 0 l0 530 l126 0 l0 -708 l-160 0 l-336 547 l-2 0 l0 -547 l-126 0 l0 708 Z" /><glyph glyph-name="O" unicode="o" d="M44 356 q0 85 28.5 153.5 q28.5 68.5 79 116.5 q50.5 48 120 74 q69.5 26 151.5 26 q83 0 153 -26 q70 -26 121 -74 q51 -48 79.5 -116.5 q28.5 -68.5 28.5 -153.5 q0 -83 -28.5 -151.5 q-28.5 -68.5 -79.5 -118 q-51 -49.5 -121 -77 q-70 -27.5 -153 -27.5 q-82 0 -151.5 27.5 q-69.5 27.5 -120 77 q-50.5 49.5 -79 118 q-28.5 68.5 -28.5 151.5 ZM181 356 q0 -57 17.5 -104.5 q17.5 -47.5 50 -82.5 q32.5 -35 77 -54.5 q44.5 -19.5 98.5 -19.5 q54 0 99 19.5 q45 19.5 77.5 54.5 q32.5 35 50 82.5 q17.5 47.5 17.5 104.5 q0 55 -17.5 102 q-17.5 47 -49.5 82 q-32 35 -77 55 q-45 20 -100 20 q-55 0 -99.5 -20 q-44.5 -20 -76.5 -55 q-32 -35 -49.5 -82 q-17.5 -47 -17.5 -102 Z" /><glyph glyph-name="P" unicode="p" d="M78 708 l231 0 q61 0 110 -11 q49 -11 84 -36 q35 -25 54 -64 q19 -39 19 -94 q0 -59 -22 -99 q-22 -40 -59.5 -64.5 q-37.5 -24.5 -87.5 -35.5 q-50 -11 -106 -11 l-97 0 l0 -293 l-126 0 l0 708 ZM292 399 q31 0 59 4.5 q28 4.5 50 16 q22 11.5 35 31.5 q13 20 13 52 q0 31 -13 50.5 q-13 19.5 -34.5 30.5 q-21.5 11 -49 14.5 q-27.5 3.5 -56.5 3.5 l-92 0 l0 -203 l88 0 Z" /><glyph glyph-name="Q" unicode="q" d="M841 0 l-427 0 q-85 0 -154.5 24.5 q-69.5 24.5 -119 71 q-49.5 46.5 -76.5 114 q-27 67.5 -27 153.5 q0 81 28.5 147.5 q28.5 66.5 79.5 114.5 q51 48 120.5 74.5 q69.5 26.5 150.5 26.5 q81 0 150 -26.5 q69 -26.5 119.5 -74.5 q50.5 -48 78.5 -114.5 q28 -66.5 28 -147.5 q0 -48 -11 -88 q-11 -40 -28.5 -72.5 q-17.5 -32.5 -40 -57 q-22.5 -24.5 -46.5 -41.5 l0 -2 l175 0 l0 -102 ZM416 613 q-51 0 -95.5 -19 q-44.5 -19 -76.5 -52 q-32 -33 -50.5 -79 q-18.5 -46 -18.5 -100 q0 -57 17.5 -103.5 q17.5 -46.5 49 -79.5 q31.5 -33 75.5 -51.5 q44 -18.5 97 -18.5 q52 0 96.5 18.5 q44.5 18.5 76.5 51.5 q32 33 50 79.5 q18 46.5 18 103.5 q0 54 -17 100 q-17 46 -48.5 79 q-31.5 33 -75.5 52 q-44 19 -98 19 Z" /><glyph glyph-name="R" unicode="r" d="M78 708 l246 0 q50 0 97 -10.5 q47 -10.5 83.5 -34.5 q36.5 -24 58.5 -63 q22 -39 22 -95 q0 -77 -43.5 -125.5 q-43.5 -48.5 -118.5 -65.5 l189 -314 l-152 0 l-164 300 l-92 0 l0 -300 l-126 0 l0 708 ZM307 403 q27 0 54 4 q27 4 48.5 15 q21.5 11 35.5 31.5 q14 20.5 14 52.5 q0 29 -13 47.5 q-13 18.5 -33 29.5 q-20 11 -45.5 15 q-25.5 4 -49.5 4 l-114 0 l0 -199 l103 0 Z" /><glyph glyph-name="S" unicode="s" d="M439 560 q-20 26 -56.5 43.5 q-36.5 17.5 -73.5 17.5 q-22 0 -44 -5.5 q-22 -5.5 -40 -17 q-18 -11.5 -29.5 -30 q-11.5 -18.5 -11.5 -44.5 q0 -24 10 -41 q10 -17 27.5 -29 q17.5 -12 42.5 -21 q25 -9 55 -18 q34 -11 70.5 -25 q36.5 -14 67 -37 q30.5 -23 50 -58 q19.5 -35 19.5 -87 q0 -57 -21 -99.5 q-21 -42.5 -56 -70.5 q-35 -28 -82 -42 q-47 -14 -99 -14 q-69 0 -135 25.5 q-66 25.5 -108 75.5 l90 84 q26 -36 69.5 -57 q43.5 -21 85.5 -21 q22 0 45 5.5 q23 5.5 41.5 18.5 q18.5 13 30 32.5 q11.5 19.5 11.5 48.5 q0 28 -13 46.5 q-13 18.5 -35 32 q-22 13.5 -52 23.5 q-30 10 -63 21 q-32 10 -64 24 q-32 14 -57.5 37 q-25.5 23 -41.5 56.5 q-16 33.5 -16 83.5 q0 54 22.5 93 q22.5 39 59 64.5 q36.5 25.5 83 38 q46.5 12.5 94.5 12.5 q54 0 109.5 -19 q55.5 -19 96.5 -57 l-82 -90 Z" /><glyph glyph-name="T" unicode="t" d="M221 598 l-217 0 l0 110 l560 0 l0 -110 l-217 0 l0 -598 l-126 0 l0 598 Z" /><glyph glyph-name="U" unicode="u" d="M642 260 q0 -64 -22 -115.5 q-22 -51.5 -60 -87.5 q-38 -36 -90 -55.5 q-52 -19.5 -113 -19.5 q-61 0 -113 19.5 q-52 19.5 -90.5 55.5 q-38.5 36 -60 87.5 q-21.5 51.5 -21.5 115.5 l0 448 l126 0 l0 -443 q0 -31 8 -61.5 q8 -30.5 26.5 -54.5 q18.5 -24 49 -39 q30.5 -15 75.5 -15 q45 0 75.5 15 q30.5 15 49 39 q18.5 24 26.5 54.5 q8 30.5 8 61.5 l0 443 l126 0 l0 -448 Z" /><glyph glyph-name="V" unicode="v" d="M-10 708 l141 0 l195 -545 l4 0 l197 545 l136 0 l-284 -708 l-109 0 l-280 708 Z" /><glyph glyph-name="W" unicode="w" d="M6 708 l138 0 l137 -520 l2 0 l156 520 l130 0 l153 -520 l2 0 l140 520 l134 0 l-207 -708 l-122 0 l-166 531 l-2 0 l-166 -531 l-122 0 l-207 708 Z" /><glyph glyph-name="X" unicode="x" d="M249 378 l-220 330 l152 0 l146 -242 l144 242 l145 0 l-216 -333 l254 -375 l-159 0 l-173 278 l-166 -278 l-152 0 l245 378 Z" /><glyph glyph-name="Y" unicode="y" d="M249 307 l-266 401 l154 0 l178 -298 l180 298 l146 0 l-266 -401 l0 -307 l-126 0 l0 307 Z" /><glyph glyph-name="Z" unicode="z" d="M35 114 l385 484 l-379 0 l0 110 l529 0 l0 -114 l-387 -482 l393 0 l0 -112 l-541 0 l0 114 Z" /><glyph glyph-name="bracketleft" unicode="[" d="M252 654 l-90 0 l0 -732 l90 0 l0 -78 l-192 0 l0 888 l192 0 l0 -78 Z" /><glyph glyph-name="backslash" unicode="\" d="M86 758 l312 -776 l-83 -30 l-312 774 l83 32 Z" /><glyph glyph-name="bracketright" unicode="]" d="M78 -78 l90 0 l0 732 l-90 0 l0 78 l192 0 l0 -888 l-192 0 l0 78 Z" /><glyph glyph-name="asciicircum" unicode="^" d="M69 343 l223 365 l82 0 l223 -365 l-118 0 l-147 239 l-145 -239 l-118 0 Z" /><glyph glyph-name="underscore" unicode="_" d="M500 -150 l-500 0 l0 75 l500 0 l0 -75 Z" /><glyph glyph-name="grave" unicode="`" d="M177 564 l-94 0 l-141 144 l136 0 l99 -144 Z" /><glyph glyph-name="a" unicode="a" d="M370 61 l-3 0 q-18 -32 -58 -52.5 q-40 -20.5 -91 -20.5 q-29 0 -60.5 7.5 q-31.5 7.5 -58 25 q-26.5 17.5 -44 46 q-17.5 28.5 -17.5 70.5 q0 54 30.5 86 q30.5 32 78.5 49 q48 17 106.5 22.5 q58.5 5.5 114.5 5.5 l0 12 q0 45 -32.5 66.5 q-32.5 21.5 -77.5 21.5 q-38 0 -73 -16 q-35 -16 -58 -39 l-62 73 q41 38 94.5 57 q53.5 19 108.5 19 q64 0 105.5 -18 q41.5 -18 65.5 -47 q24 -29 33.5 -65 q9.5 -36 9.5 -72 l0 -292 l-112 0 l0 61 ZM368 219 l-27 0 q-29 0 -61 -2.5 q-32 -2.5 -59 -11 q-27 -8.5 -45 -24 q-18 -15.5 -18 -42.5 q0 -17 7.5 -28.5 q7.5 -11.5 19.5 -18.5 q12 -7 27 -10 q15 -3 30 -3 q62 0 94 33 q32 33 32 90 l0 17 Z" /><glyph glyph-name="b" unicode="b" d="M194 756 l0 -337 l3 0 q9 12 23 25 q14 13 33.5 24 q19.5 11 45.5 18.5 q26 7.5 59 7.5 q51 0 94 -19.5 q43 -19.5 74 -53.5 q31 -34 48 -80 q17 -46 17 -99 q0 -53 -16.5 -99.5 q-16.5 -46.5 -47 -81 q-30.5 -34.5 -74 -55 q-43.5 -20.5 -98.5 -20.5 q-51 0 -95.5 22 q-44.5 22 -69.5 64 l-2 0 l0 -72 l-114 0 l0 756 l120 0 ZM469 242 q0 28 -8.5 55.5 q-8.5 27.5 -25.5 49.5 q-17 22 -43 35.5 q-26 13.5 -61 13.5 q-33 0 -59 -14 q-26 -14 -44.5 -36 q-18.5 -22 -28 -50 q-9.5 -28 -9.5 -56 q0 -28 9.5 -55.5 q9.5 -27.5 28 -49.5 q18.5 -22 44.5 -35.5 q26 -13.5 59 -13.5 q35 0 61 14 q26 14 43 36 q17 22 25.5 50 q8.5 28 8.5 56 Z" /><glyph glyph-name="c" unicode="c" d="M400 347 q-14 20 -42 33.5 q-28 13.5 -57 13.5 q-33 0 -58 -13.5 q-25 -13.5 -41.5 -35.5 q-16.5 -22 -24.5 -49.5 q-8 -27.5 -8 -55.5 q0 -28 8.5 -55.5 q8.5 -27.5 25.5 -49.5 q17 -22 42.5 -35.5 q25.5 -13.5 59.5 -13.5 q28 0 56 11 q28 11 45 32 l75 -76 q-30 -32 -76.5 -49.5 q-46.5 -17.5 -100.5 -17.5 q-53 0 -100.5 17 q-47.5 17 -83 50 q-35.5 33 -56 80 q-20.5 47 -20.5 107 q0 58 20.5 105 q20.5 47 55.5 80 q35 33 81.5 51 q46.5 18 99.5 18 q53 0 102.5 -20 q49.5 -20 78.5 -55 l-82 -72 Z" /><glyph glyph-name="d" unicode="d" d="M560 0 l-114 0 l0 72 l-2 0 q-25 -42 -69.5 -64 q-44.5 -22 -95.5 -22 q-55 0 -98.5 20.5 q-43.5 20.5 -74 55 q-30.5 34.5 -47 81 q-16.5 46.5 -16.5 99.5 q0 53 17 99 q17 46 48 80 q31 34 74 53.5 q43 19.5 94 19.5 q33 0 59 -7.5 q26 -7.5 45.5 -18.5 q19.5 -11 33.5 -24 q14 -13 23 -25 l3 0 l0 337 l120 0 l0 -756 ZM165 242 q0 -28 8.5 -56 q8.5 -28 25.5 -50 q17 -22 43 -36 q26 -14 61 -14 q33 0 59 13.5 q26 13.5 44.5 35.5 q18.5 22 28 49.5 q9.5 27.5 9.5 55.5 q0 28 -9.5 56 q-9.5 28 -28 50 q-18.5 22 -44.5 36 q-26 14 -59 14 q-35 0 -61 -13.5 q-26 -13.5 -43 -35.5 q-17 -22 -25.5 -49.5 q-8.5 -27.5 -8.5 -55.5 Z" /><glyph glyph-name="e" unicode="e" d="M410 288 q0 23 -6.5 44 q-6.5 21 -20.5 37 q-14 16 -35.5 25.5 q-21.5 9.5 -50.5 9.5 q-54 0 -91.5 -32.5 q-37.5 -32.5 -41.5 -83.5 l246 0 ZM530 234 q0 -8 0 -16 q0 -8 -1 -16 l-365 0 q2 -26 13.5 -47.5 q11.5 -21.5 30.5 -37 q19 -15.5 43 -24.5 q24 -9 50 -9 q45 0 76 16.5 q31 16.5 51 45.5 l80 -64 q-71 -96 -206 -96 q-56 0 -103 17.5 q-47 17.5 -81.5 49.5 q-34.5 32 -54 78.5 q-19.5 46.5 -19.5 105.5 q0 58 19.5 105.5 q19.5 47.5 53.5 81 q34 33.5 80.5 52 q46.5 18.5 100.5 18.5 q50 0 92.5 -16.5 q42.5 -16.5 73.5 -49 q31 -32.5 48.5 -81 q17.5 -48.5 17.5 -113.5 Z" /><glyph glyph-name="f" unicode="f" d="M91 384 l-91 0 l0 96 l91 0 l0 71 q0 43 9.5 82.5 q9.5 39.5 32 69.5 q22.5 30 59.5 47.5 q37 17.5 93 17.5 q20 0 33.5 -1.5 q13.5 -1.5 27.5 -5.5 l-8 -102 q-10 3 -21.5 5 q-11.5 2 -24.5 2 q-26 0 -42 -10 q-16 -10 -24.5 -26 q-8.5 -16 -11.5 -35 q-3 -19 -3 -37 l0 -78 l111 0 l0 -96 l-111 0 l0 -384 l-120 0 l0 384 Z" /><glyph glyph-name="g" unicode="g" d="M560 480 l0 -437 q0 -65 -16 -117.5 q-16 -52.5 -49.5 -89 q-33.5 -36.5 -84.5 -56.5 q-51 -20 -121 -20 q-29 0 -61.5 5 q-32.5 5 -64 15 q-31.5 10 -60.5 25 q-29 15 -52 34 l69 93 q35 -33 79 -50.5 q44 -17.5 89 -17.5 q43 0 72.5 12.5 q29.5 12.5 47 34.5 q17.5 22 25 52 q7.5 30 7.5 66 l0 35 l-2 0 q-26 -35 -66.5 -53.5 q-40.5 -18.5 -90.5 -18.5 q-54 0 -98 20 q-44 20 -74.5 54 q-30.5 34 -47.5 79.5 q-17 45.5 -17 96.5 q0 52 16.5 98 q16.5 46 47 80 q30.5 34 74 54 q43.5 20 97.5 20 q51 0 95 -21 q44 -21 70 -65 l2 0 l0 72 l114 0 ZM304 396 q-33 0 -58.5 -12 q-25.5 -12 -43 -32.5 q-17.5 -20.5 -27 -48.5 q-9.5 -28 -9.5 -60 q0 -29 9.5 -56 q9.5 -27 27 -48.5 q17.5 -21.5 43 -34.5 q25.5 -13 57.5 -13 q33 0 59.5 12.5 q26.5 12.5 45 33.5 q18.5 21 28.5 48.5 q10 27.5 10 57.5 q0 31 -10 59 q-10 28 -28.5 49 q-18.5 21 -44.5 33 q-26 12 -59 12 Z" /><glyph glyph-name="h" unicode="h" d="M339 494 q47 0 80.5 -16.5 q33.5 -16.5 55 -43.5 q21.5 -27 31.5 -62 q10 -35 10 -72 l0 -300 l-120 0 l0 264 q0 21 -3 43.5 q-3 22.5 -12.5 41 q-9.5 18.5 -27 30.5 q-17.5 12 -46.5 12 q-29 0 -50 -11 q-21 -11 -35 -29.5 q-14 -18.5 -21 -41.5 q-7 -23 -7 -47 l0 -262 l-120 0 l0 756 l120 0 l0 -343 l2 0 q7 15 20.5 29.5 q13.5 14.5 31.5 26 q18 11.5 41 18.5 q23 7 50 7 Z" /><glyph glyph-name="i" unicode="i" d="M74 480 l120 0 l0 -480 l-120 0 l0 480 ZM57 643 q0 29 21.5 50.5 q21.5 21.5 54.5 21.5 q33 0 55.5 -20.5 q22.5 -20.5 22.5 -51.5 q0 -31 -22.5 -51.5 q-22.5 -20.5 -55.5 -20.5 q-33 0 -54.5 21.5 q-21.5 21.5 -21.5 50.5 Z" /><glyph glyph-name="j" unicode="j" d="M194 480 l0 -509 q0 -43 -7 -81.5 q-7 -38.5 -26.5 -67 q-19.5 -28.5 -53 -45.5 q-33.5 -17 -87.5 -17 q-15 0 -30 2 q-15 2 -24 4 l10 102 q8 -2 17 -3 q9 -1 16 -1 q21 0 34 8 q13 8 20 22 q7 14 9 32.5 q2 18.5 2 39.5 l0 514 l120 0 ZM57 643 q0 29 21.5 50.5 q21.5 21.5 54.5 21.5 q33 0 55.5 -20.5 q22.5 -20.5 22.5 -51.5 q0 -31 -22.5 -51.5 q-22.5 -20.5 -55.5 -20.5 q-33 0 -54.5 21.5 q-21.5 21.5 -21.5 50.5 Z" /><glyph glyph-name="k" unicode="k" d="M74 756 l120 0 l0 -478 l3 0 l182 202 l154 0 l-208 -217 l221 -263 l-159 0 l-190 246 l-3 0 l0 -246 l-120 0 l0 756 Z" /><glyph glyph-name="l" unicode="l" d="M74 756 l120 0 l0 -756 l-120 0 l0 756 Z" /><glyph glyph-name="m" unicode="m" d="M645 494 q47 0 80.5 -16.5 q33.5 -16.5 55 -43.5 q21.5 -27 31.5 -62 q10 -35 10 -72 l0 -300 l-120 0 l0 266 q0 21 -3 44 q-3 23 -13 41.5 q-10 18.5 -27.5 30.5 q-17.5 12 -46.5 12 q-28 0 -48 -12 q-20 -12 -33 -31 q-13 -19 -19 -42.5 q-6 -23.5 -6 -46.5 l0 -262 l-120 0 l0 290 q0 45 -21.5 74.5 q-21.5 29.5 -67.5 29.5 q-27 0 -47 -11.5 q-20 -11.5 -32.5 -29.5 q-12.5 -18 -19 -41.5 q-6.5 -23.5 -6.5 -47.5 l0 -264 l-120 0 l0 480 l114 0 l0 -77 l2 0 q8 18 21.5 34 q13.5 16 32 29 q18.5 13 42.5 20.5 q24 7.5 53 7.5 q56 0 93 -25 q37 -25 57 -66 q24 44 64 67.5 q40 23.5 94 23.5 Z" /><glyph glyph-name="n" unicode="n" d="M72 480 l114 0 l0 -77 l2 0 q16 36 55.5 63.5 q39.5 27.5 93.5 27.5 q47 0 80.5 -16.5 q33.5 -16.5 55 -43.5 q21.5 -27 31.5 -62 q10 -35 10 -72 l0 -300 l-120 0 l0 266 q0 21 -3 44 q-3 23 -13 41.5 q-10 18.5 -27.5 30.5 q-17.5 12 -46.5 12 q-29 0 -50 -11.5 q-21 -11.5 -34.5 -29.5 q-13.5 -18 -20.5 -41.5 q-7 -23.5 -7 -47.5 l0 -264 l-120 0 l0 480 Z" /><glyph glyph-name="o" unicode="o" d="M44 242 q0 57 20.5 103.5 q20.5 46.5 55.5 79.5 q35 33 83 51 q48 18 102 18 q54 0 102 -18 q48 -18 83 -51 q35 -33 55.5 -79.5 q20.5 -46.5 20.5 -103.5 q0 -57 -20.5 -104 q-20.5 -47 -55.5 -80.5 q-35 -33.5 -83 -52.5 q-48 -19 -102 -19 q-54 0 -102 19 q-48 19 -83 52.5 q-35 33.5 -55.5 80.5 q-20.5 47 -20.5 104 ZM166 242 q0 -28 8.5 -56 q8.5 -28 25.5 -50 q17 -22 43 -36 q26 -14 62 -14 q36 0 62 14 q26 14 43 36 q17 22 25.5 50 q8.5 28 8.5 56 q0 28 -8.5 55.5 q-8.5 27.5 -25.5 49.5 q-17 22 -43 35.5 q-26 13.5 -62 13.5 q-36 0 -62 -13.5 q-26 -13.5 -43 -35.5 q-17 -22 -25.5 -49.5 q-8.5 -27.5 -8.5 -55.5 Z" /><glyph glyph-name="p" unicode="p" d="M187 480 l0 -67 l3 0 q9 14 23.5 28.5 q14.5 14.5 35.5 26 q21 11.5 47.5 19 q26.5 7.5 59.5 7.5 q51 0 94 -19.5 q43 -19.5 74 -53.5 q31 -34 48 -80 q17 -46 17 -99 q0 -53 -16.5 -99.5 q-16.5 -46.5 -47 -81 q-30.5 -34.5 -74 -55 q-43.5 -20.5 -98.5 -20.5 q-51 0 -93.5 21 q-42.5 21 -65.5 57 l-2 0 l0 -304 l-120 0 l0 720 l115 0 ZM467 242 q0 28 -8.5 55.5 q-8.5 27.5 -25.5 49.5 q-17 22 -43 35.5 q-26 13.5 -61 13.5 q-33 0 -59 -14 q-26 -14 -44.5 -36 q-18.5 -22 -28 -50 q-9.5 -28 -9.5 -56 q0 -28 9.5 -55.5 q9.5 -27.5 28 -49.5 q18.5 -22 44.5 -35.5 q26 -13.5 59 -13.5 q35 0 61 14 q26 14 43 36 q17 22 25.5 50 q8.5 28 8.5 56 Z" /><glyph glyph-name="q" unicode="q" d="M560 -240 l-120 0 l0 304 l-2 0 q-23 -36 -65.5 -57 q-42.5 -21 -93.5 -21 q-55 0 -98.5 20.5 q-43.5 20.5 -74 55 q-30.5 34.5 -47 81 q-16.5 46.5 -16.5 99.5 q0 53 17 99 q17 46 48 80 q31 34 74 53.5 q43 19.5 94 19.5 q33 0 59.5 -7.5 q26.5 -7.5 47.5 -19 q21 -11.5 35.5 -26 q14.5 -14.5 23.5 -28.5 l3 0 l0 67 l115 0 l0 -720 ZM165 242 q0 -28 8.5 -56 q8.5 -28 25.5 -50 q17 -22 43 -36 q26 -14 61 -14 q33 0 59 13.5 q26 13.5 44.5 35.5 q18.5 22 28 49.5 q9.5 27.5 9.5 55.5 q0 28 -9.5 56 q-9.5 28 -28 50 q-18.5 22 -44.5 36 q-26 14 -59 14 q-35 0 -61 -13.5 q-26 -13.5 -43 -35.5 q-17 -22 -25.5 -49.5 q-8.5 -27.5 -8.5 -55.5 Z" /><glyph glyph-name="r" unicode="r" d="M72 480 l115 0 l0 -80 l2 0 q20 42 56 68 q36 26 84 26 q7 0 15 -0.5 q8 -0.5 14 -2.5 l0 -110 q-12 3 -20.5 4 q-8.5 1 -16.5 1 q-41 0 -66 -15 q-25 -15 -39 -36 q-14 -21 -19 -43 q-5 -22 -5 -35 l0 -257 l-120 0 l0 480 Z" /><glyph glyph-name="s" unicode="s" d="M335 352 q-16 21 -44 36.5 q-28 15.5 -61 15.5 q-29 0 -53 -12 q-24 -12 -24 -40 q0 -28 26.5 -39.5 q26.5 -11.5 77.5 -23.5 q27 -6 54.5 -16 q27.5 -10 50 -26.5 q22.5 -16.5 36.5 -41 q14 -24.5 14 -59.5 q0 -44 -16.5 -74.5 q-16.5 -30.5 -44 -49.5 q-27.5 -19 -64 -27.5 q-36.5 -8.5 -75.5 -8.5 q-56 0 -109 20.5 q-53 20.5 -88 58.5 l79 74 q20 -26 52 -43 q32 -17 71 -17 q13 0 26.5 3 q13.5 3 25 9.5 q11.5 6.5 18.5 17.5 q7 11 7 27 q0 30 -27.5 43 q-27.5 13 -82.5 26 q-27 6 -52.5 15.5 q-25.5 9.5 -45.5 25 q-20 15.5 -32 38.5 q-12 23 -12 57 q0 40 16.5 69 q16.5 29 43.5 47.5 q27 18.5 61 27.5 q34 9 70 9 q52 0 101.5 -18 q49.5 -18 78.5 -55 l-78 -69 Z" /><glyph glyph-name="t" unicode="t" d="M3 384 l0 96 l84 0 l0 139 l118 0 l0 -139 l120 0 l0 -96 l-120 0 l0 -223 q0 -32 11.5 -53 q11.5 -21 51.5 -21 q12 0 26 2.5 q14 2.5 25 7.5 l4 -94 q-16 -6 -38 -9.5 q-22 -3.5 -42 -3.5 q-48 0 -78 13.5 q-30 13.5 -47.5 37 q-17.5 23.5 -24 54 q-6.5 30.5 -6.5 65.5 l0 224 l-84 0 Z" /><glyph glyph-name="u" unicode="u" d="M510 0 l-114 0 l0 77 l-2 0 q-16 -36 -55.5 -63.5 q-39.5 -27.5 -93.5 -27.5 q-47 0 -80.5 16.5 q-33.5 16.5 -55 43.5 q-21.5 27 -31.5 62 q-10 35 -10 72 l0 300 l120 0 l0 -266 q0 -21 3 -44 q3 -23 13 -41.5 q10 -18.5 27.5 -30.5 q17.5 -12 46.5 -12 q28 0 49.5 11.5 q21.5 11.5 35 29.5 q13.5 18 20.5 41.5 q7 23.5 7 47.5 l0 264 l120 0 l0 -480 Z" /><glyph glyph-name="v" unicode="v" d="M0 480 l131 0 l126 -350 l2 0 l127 350 l127 0 l-191 -480 l-128 0 l-194 480 Z" /><glyph glyph-name="w" unicode="w" d="M4 480 l130 0 l100 -344 l2 0 l103 344 l128 0 l104 -344 l2 0 l102 344 l125 0 l-166 -480 l-122 0 l-109 336 l-2 0 l-108 -336 l-122 0 l-167 480 Z" /><glyph glyph-name="x" unicode="x" d="M194 255 l-173 225 l144 0 l104 -149 l107 149 l138 0 l-172 -225 l196 -255 l-146 0 l-125 175 l-126 -175 l-142 0 l195 255 Z" /><glyph glyph-name="y" unicode="y" d="M0 480 l133 0 l134 -349 l2 0 l119 349 l125 0 l-227 -583 q-13 -33 -28 -58.5 q-15 -25.5 -36 -43 q-21 -17.5 -49.5 -26.5 q-28.5 -9 -68.5 -9 q-15 0 -30.5 1.5 q-15.5 1.5 -31.5 5.5 l10 104 q12 -4 23.5 -5.5 q11.5 -1.5 21.5 -1.5 q19 0 32 4.5 q13 4.5 22 14 q9 9.5 16 23.5 q7 14 15 33 l24 61 l-206 480 Z" /><glyph glyph-name="z" unicode="z" d="M34 106 l259 278 l-247 0 l0 96 l390 0 l0 -106 l-260 -276 l272 0 l0 -98 l-414 0 l0 106 Z" /><glyph glyph-name="braceleft" unicode="{" d="M10 332 q10 0 22.5 3 q12.5 3 22.5 10.5 q10 7.5 17 21.5 q7 14 7 35 l0 198 q0 34 10.5 58.5 q10.5 24.5 28.5 41 q18 16.5 41 24.5 q23 8 48 8 l73 0 l0 -84 l-55 0 q-29 0 -36.5 -19 q-7.5 -19 -7.5 -41 l0 -188 q0 -29 -11 -49.5 q-11 -20.5 -26 -33.5 q-15 -13 -32 -20 q-17 -7 -29 -8 l0 -2 q12 -1 29 -6.5 q17 -5.5 32 -18.5 q15 -13 26 -35 q11 -22 11 -57 l0 -182 q0 -22 7.5 -41 q7.5 -19 36.5 -19 l55 0 l0 -84 l-73 0 q-25 0 -48 8 q-23 8 -41 24.5 q-18 16.5 -28.5 41 q-10.5 24.5 -10.5 58.5 l0 191 q0 24 -7 39 q-7 15 -17 23.5 q-10 8.5 -22.5 11.5 q-12.5 3 -22.5 3 l0 88 Z" /><glyph glyph-name="bar" unicode="|" d="M162 750 l0 -1000 l-102 0 l0 1000 l102 0 Z" /><glyph glyph-name="braceright" unicode="}" d="M320 244 q-11 0 -23 -3 q-12 -3 -22 -11.5 q-10 -8.5 -17 -23.5 q-7 -15 -7 -39 l0 -191 q0 -34 -10.5 -58.5 q-10.5 -24.5 -28.5 -41 q-18 -16.5 -41 -24.5 q-23 -8 -48 -8 l-73 0 l0 84 l55 0 q29 0 36.5 19 q7.5 19 7.5 41 l0 182 q0 35 11 57 q11 22 26 35 q15 13 32 18.5 q17 5.5 29 6.5 l0 2 q-12 1 -29 8 q-17 7 -32 20 q-15 13 -26 33.5 q-11 20.5 -11 49.5 l0 188 q0 22 -7.5 41 q-7.5 19 -36.5 19 l-55 0 l0 84 l73 0 q25 0 48 -8 q23 -8 41 -24.5 q18 -16.5 28.5 -41 q10.5 -24.5 10.5 -58.5 l0 -198 q0 -21 7 -35 q7 -14 17 -21.5 q10 -7.5 22 -10.5 q12 -3 23 -3 l0 -88 Z" /><glyph glyph-name="asciitilde" unicode="~" d="M345 354 q21 -14 34.5 -21 q13.5 -7 23 -11 q9.5 -4 17.5 -4.5 q8 -0.5 19 -0.5 q24 0 43 16.5 q19 16.5 35 46.5 l77 -65 q-35 -58 -74 -80 q-39 -22 -79 -22 q-32 0 -60 9.5 q-28 9.5 -61 30.5 q-20 12 -34 19.5 q-14 7.5 -24.5 11 q-10.5 3.5 -18.5 4.5 q-8 1 -16 1 q-21 0 -40 -14 q-19 -14 -38 -49 l-77 65 q37 61 75.5 82 q38.5 21 77.5 21 q37 0 63 -10 q26 -10 57 -30 Z" /><glyph glyph-name="nonbreakingspace" unicode=" " d="" /><glyph glyph-name="exclamdown" unicode="¡" d="M110 -214 l0 486 l120 0 l0 -486 l-120 0 ZM90 424 q0 16 6.5 30 q6.5 14 17.5 24 q11 10 25.5 16 q14.5 6 30.5 6 q33 0 56.5 -23 q23.5 -23 23.5 -55 q0 -32 -24 -54 q-24 -22 -56 -22 q-33 0 -56.5 23 q-23.5 23 -23.5 55 Z" /><glyph glyph-name="cent" unicode="¢" d="M354 492 q48 -2 93.5 -17 q45.5 -15 76.5 -52 l-77 -78 q-19 20 -42.5 31.5 q-23.5 11.5 -50.5 13.5 l0 -300 q28 0 53.5 13 q25.5 13 43.5 33 l73 -79 q-32 -35 -77.5 -51 q-45.5 -16 -92.5 -18 l0 -72 l-54 0 l0 72 q-51 4 -92.5 25.5 q-41.5 21.5 -70 55 q-28.5 33.5 -44 77.5 q-15.5 44 -15.5 95 q0 105 59.5 171 q59.5 66 162.5 80 l0 67 l54 0 l0 -67 ZM300 389 q-28 -6 -48 -19.5 q-20 -13.5 -33.5 -33 q-13.5 -19.5 -20 -44.5 q-6.5 -25 -6.5 -52 q0 -53 27 -94.5 q27 -41.5 81 -55.5 l0 299 Z" /><glyph glyph-name="sterling" unicode="£" d="M66 107 l98 0 l0 208 l-98 0 l0 84 l98 0 l0 83 q0 37 12 80 q12 43 40.5 79.5 q28.5 36.5 75.5 60.5 q47 24 116 24 q54 0 98.5 -15.5 q44.5 -15.5 77.5 -44.5 l-71 -83 q-19 20 -46 31.5 q-27 11.5 -59 11.5 q-36 0 -59.5 -14.5 q-23.5 -14.5 -37.5 -36.5 q-14 -22 -19.5 -48 q-5.5 -26 -5.5 -50 l0 -78 l164 0 l0 -84 l-164 0 l0 -208 l265 0 l0 -107 l-485 0 l0 107 Z" /><glyph glyph-name="currency" unicode="¤" d="M508 420 q39 -59 39 -136 q0 -39 -11 -75 q-11 -36 -30 -65 l83 -84 l-63 -64 l-86 85 q-56 -39 -134 -39 q-37 0 -71.5 11 q-34.5 11 -62.5 29 l-87 -86 l-64 64 l86 87 q-17 28 -28.5 63.5 q-11.5 35.5 -11.5 73.5 q0 38 10 71.5 q10 33.5 27 62.5 l-83 83 l64 63 l83 -81 q29 18 64.5 29.5 q35.5 11.5 73.5 11.5 q39 0 74.5 -11 q35.5 -11 62.5 -30 l82 81 l64 -63 l-81 -81 ZM306 428 q-32 0 -57.5 -11.5 q-25.5 -11.5 -43.5 -31 q-18 -19.5 -27.5 -45.5 q-9.5 -26 -9.5 -56 q0 -30 9.5 -56.5 q9.5 -26.5 27.5 -46 q18 -19.5 43.5 -31 q25.5 -11.5 57.5 -11.5 q32 0 58 11.5 q26 11.5 44 31 q18 19.5 27.5 46 q9.5 26.5 9.5 56.5 q0 30 -9.5 56 q-9.5 26 -27.5 45.5 q-18 19.5 -44 31 q-26 11.5 -58 11.5 Z" /><glyph glyph-name="yen" unicode="¥" d="M245 155 l-176 0 l0 78 l176 0 l0 77 l-176 0 l0 78 l145 0 l-198 320 l140 0 l155 -288 l149 288 l134 0 l-193 -320 l140 0 l0 -78 l-176 0 l0 -77 l176 0 l0 -78 l-176 0 l0 -155 l-120 0 l0 155 Z" /><glyph glyph-name="brokenbar" unicode="¦" d="M162 675 l0 -350 l-102 0 l0 350 l102 0 ZM162 175 l0 -350 l-102 0 l0 350 l102 0 Z" /><glyph glyph-name="section" unicode="§" d="M447 567 q-20 29 -51.5 46 q-31.5 17 -63.5 17 q-15 0 -31 -4 q-16 -4 -29 -12 q-13 -8 -21.5 -20.5 q-8.5 -12.5 -8.5 -29.5 q0 -19 10 -33.5 q10 -14.5 27 -26.5 q17 -12 41 -23 q24 -11 52 -23 q30 -13 60.5 -28.5 q30.5 -15.5 55 -36.5 q24.5 -21 39.5 -48.5 q15 -27.5 15 -64.5 q0 -42 -23.5 -76.5 q-23.5 -34.5 -57.5 -51.5 q29 -22 40.5 -51 q11.5 -29 11.5 -65 q0 -45 -19.5 -79 q-19.5 -34 -50.5 -56.5 q-31 -22.5 -70 -33.5 q-39 -11 -78 -11 q-31 0 -63.5 7 q-32.5 7 -62.5 21 q-30 14 -56.5 35 q-26.5 21 -44.5 50 l99 59 q18 -35 54 -52.5 q36 -17.5 73 -17.5 q15 0 32 4 q17 4 31 13 q14 9 23 22.5 q9 13.5 9 31.5 q0 22 -9.5 37.5 q-9.5 15.5 -28.5 27.5 q-19 12 -47 23.5 q-28 11.5 -65 25.5 q-28 11 -55.5 24 q-27.5 13 -49 31.5 q-21.5 18.5 -35 43.5 q-13.5 25 -13.5 60 q0 27 8 49.5 q8 22.5 21.5 40.5 q13.5 18 30.5 31.5 q17 13.5 36 23.5 q-61 39 -61 114 q0 42 18.5 73 q18.5 31 48.5 51.5 q30 20.5 67 30.5 q37 10 74 10 q59 0 112.5 -21.5 q53.5 -21.5 87.5 -64.5 l-82 -73 ZM385 196 q20 10 31.5 29 q11.5 19 11.5 39 q0 19 -7.5 32.5 q-7.5 13.5 -19 24 q-11.5 10.5 -26 18.5 q-14.5 8 -28.5 15 l-89 40 q-23 -10 -40.5 -25.5 q-17.5 -15.5 -17.5 -44.5 q0 -18 7.5 -31.5 q7.5 -13.5 19 -23 q11.5 -9.5 26 -17 q14.5 -7.5 28.5 -13.5 l104 -43 Z" /><glyph glyph-name="dieresis" unicode="¨" d="M-40 644 q0 28 20 49 q20 21 51 21 q31 0 52 -20 q21 -20 21 -50 q0 -30 -21 -50 q-21 -20 -52 -20 q-31 0 -51 21 q-20 21 -20 49 ZM156 644 q0 28 20 49 q20 21 51 21 q31 0 52 -20 q21 -20 21 -50 q0 -30 -21 -50 q-21 -20 -52 -20 q-31 0 -51 21 q-20 21 -20 49 Z" /><glyph glyph-name="copyright" unicode="©" d="M514 443 q-14 18 -40.5 30 q-26.5 12 -55.5 12 q-30 0 -53.5 -11 q-23.5 -11 -39 -29.5 q-15.5 -18.5 -23.5 -42.5 q-8 -24 -8 -49 q0 -26 8.5 -50.5 q8.5 -24.5 25 -43 q16.5 -18.5 41 -30 q24.5 -11.5 56.5 -11.5 q26 0 51.5 10 q25.5 10 41.5 28 l58 -68 q-26 -29 -68 -44.5 q-42 -15.5 -90 -15.5 q-48 0 -89.5 14.5 q-41.5 14.5 -73 43 q-31.5 28.5 -49.5 70 q-18 41.5 -18 95.5 q0 52 18 94 q18 42 49.5 70.5 q31.5 28.5 73.5 44 q42 15.5 89 15.5 q48 0 90.5 -18 q42.5 -18 68.5 -51 l-63 -63 ZM20 353 q0 79 30 147.5 q30 68.5 81.5 119.5 q51.5 51 121 80.5 q69.5 29.5 148.5 29.5 q78 0 147 -29.5 q69 -29.5 120.5 -80.5 q51.5 -51 81.5 -119.5 q30 -68.5 30 -147.5 q0 -78 -30 -146.5 q-30 -68.5 -81.5 -119.5 q-51.5 -51 -120.5 -80 q-69 -29 -147 -29 q-79 0 -148.5 29 q-69.5 29 -121 80 q-51.5 51 -81.5 119.5 q-30 68.5 -30 146.5 ZM80 353 q0 -66 25.5 -124 q25.5 -58 69 -101.5 q43.5 -43.5 102 -68.5 q58.5 -25 124.5 -25 q66 0 124 25 q58 25 101.5 68.5 q43.5 43.5 68.5 101.5 q25 58 25 124 q0 66 -25 124.5 q-25 58.5 -68.5 102 q-43.5 43.5 -101.5 69 q-58 25.5 -124 25.5 q-66 0 -124.5 -25.5 q-58.5 -25.5 -102 -69 q-43.5 -43.5 -69 -102 q-25.5 -58.5 -25.5 -124.5 Z" /><glyph glyph-name="ordfeminine" unicode="ª" d="M244 461 l-1 0 q-10 -17 -34 -27 q-24 -10 -55 -10 q-20 0 -39 5.5 q-19 5.5 -33.5 16 q-14.5 10.5 -23.5 27 q-9 16.5 -9 37.5 q0 35 18 55 q18 20 45.5 30 q27.5 10 61 12.5 q33.5 2.5 64.5 2.5 l0 6 q0 23 -17 32.5 q-17 9.5 -43 9.5 q-20 0 -38.5 -8.5 q-18.5 -8.5 -30.5 -22.5 l-44 52 q23 23 55 33.5 q32 10.5 65 10.5 q39 0 64.5 -9.5 q25.5 -9.5 40.5 -26 q15 -16.5 21 -38 q6 -21.5 6 -44.5 l0 -174 l-73 0 l0 30 ZM238 557 l-14 0 q-13 0 -29 -1.5 q-16 -1.5 -30 -5.5 q-14 -4 -23.5 -11.5 q-9.5 -7.5 -9.5 -20.5 q0 -17 13.5 -24.5 q13.5 -7.5 29.5 -7.5 q31 0 47 16 q16 16 16 42 l0 13 Z" /><glyph glyph-name="guillemotleft" unicode="«" d="M142 248 l116 -175 l-76 -51 l-152 226 l152 224 l75 -51 l-115 -173 ZM365 248 l116 -175 l-76 -51 l-152 226 l152 224 l75 -51 l-115 -173 Z" /><glyph glyph-name="logicalnot" unicode="¬" d="M502 342 l-440 0 l0 102 l542 0 l0 -297 l-102 0 l0 195 Z" /><glyph glyph-name="uni00AD" unicode="­" d="M280 195 l-240 0 l0 102 l240 0 l0 -102 Z" /><glyph glyph-name="registered" unicode="®" d="M528 493 q0 -47 -18 -88 q-18 -41 -48.5 -71 q-30.5 -30 -72 -47.5 q-41.5 -17.5 -88.5 -17.5 q-47 0 -89 17.5 q-42 17.5 -73 47.5 q-31 30 -49 71 q-18 41 -18 88 q0 47 18 88.5 q18 41.5 49 72 q31 30.5 73 48.5 q42 18 89 18 q47 0 88.5 -18 q41.5 -18 72 -48.5 q30.5 -30.5 48.5 -72 q18 -41.5 18 -88.5 ZM492 493 q0 40 -15 75 q-15 35 -41 61.5 q-26 26.5 -60.5 41.5 q-34.5 15 -74.5 15 q-40 0 -75 -15 q-35 -15 -61.5 -41.5 q-26.5 -26.5 -41.5 -61.5 q-15 -35 -15 -75 q0 -39 15 -74 q15 -35 41.5 -61 q26.5 -26 61.5 -41 q35 -15 75 -15 q40 0 74.5 15 q34.5 15 60.5 41 q26 26 41 61 q15 35 15 74 ZM349 368 l-50 96 l-29 0 l0 -96 l-71 0 l0 260 l112 0 q19 0 38 -4 q19 -4 34.5 -13.5 q15.5 -9.5 25 -25.5 q9.5 -16 9.5 -39 q0 -26 -14.5 -44.5 q-14.5 -18.5 -37.5 -26.5 l66 -107 l-83 0 ZM343 545 q0 13 -11.5 19 q-11.5 6 -23.5 6 l-38 0 l0 -54 l38 0 q14 0 24.5 8 q10.5 8 10.5 21 Z" /><glyph glyph-name="macron" unicode="¯" d="M290 595 l-320 0 l0 78 l320 0 l0 -78 Z" /><glyph glyph-name="degree" unicode="°" d="M40 560 q0 33 12.5 62 q12.5 29 34.5 51 q22 22 51 34.5 q29 12.5 62 12.5 q33 0 62 -12.5 q29 -12.5 51 -34.5 q22 -22 34.5 -51 q12.5 -29 12.5 -62 q0 -33 -12.5 -62 q-12.5 -29 -34.5 -51 q-22 -22 -51 -34.5 q-29 -12.5 -62 -12.5 q-33 0 -62 12.5 q-29 12.5 -51 34.5 q-22 22 -34.5 51 q-12.5 29 -12.5 62 ZM118 560 q0 -34 24 -58 q24 -24 58 -24 q34 0 58 24 q24 24 24 58 q0 34 -24 58 q-24 24 -58 24 q-34 0 -58 -24 q-24 -24 -24 -58 Z" /><glyph glyph-name="plusminus" unicode="±" d="M286 574 l96 0 l0 -143 l204 0 l0 -102 l-204 0 l0 -143 l-96 0 l0 143 l-206 0 l0 102 l206 0 l0 143 ZM80 134 l506 0 l0 -102 l-506 0 l0 102 Z" /><glyph glyph-name="twosuperior" unicode="²" d="M178 365 l169 0 l0 -82 l-291 0 l0 76 l162 161 q16 16 26 33 q10 17 10 37 q0 23 -15 36 q-15 13 -38 13 q-26 0 -42.5 -19 q-16.5 -19 -18.5 -48 l-88 12 q3 29 15.5 54 q12.5 25 32 43 q19.5 18 45.5 28 q26 10 56 10 q28 0 54.5 -8 q26.5 -8 47 -24 q20.5 -16 32.5 -40 q12 -24 12 -56 q0 -42 -20.5 -72 q-20.5 -30 -48.5 -57 l-100 -97 Z" /><glyph glyph-name="threesuperior" unicode="³" d="M148 540 l28 0 q28 0 51.5 12.5 q23.5 12.5 23.5 44.5 q0 21 -15.5 33 q-15.5 12 -37.5 12 q-21 0 -36 -15 q-15 -15 -20 -38 l-86 21 q14 48 53.5 79 q39.5 31 91.5 31 q60 0 101 -29 q41 -29 41 -89 q0 -29 -14.5 -54 q-14.5 -25 -40.5 -39 q32 -12 49 -38 q17 -26 17 -62 q0 -34 -13.5 -59 q-13.5 -25 -35.5 -41 q-22 -16 -49 -24 q-27 -8 -55 -8 q-55 0 -98 26 q-43 26 -63 86 l85 25 q8 -25 25.5 -41.5 q17.5 -16.5 46.5 -16.5 q24 0 45 13 q21 13 21 44 q0 17 -8.5 28 q-8.5 11 -21 17 q-12.5 6 -28 8.5 q-15.5 2.5 -30.5 2.5 l-27 0 l0 71 Z" /><glyph glyph-name="acute" unicode="´" d="M182 708 l136 0 l-141 -144 l-94 0 l99 144 Z" /><glyph glyph-name="mu" unicode="µ" d="M188 480 l0 -243 q0 -20 2 -44.5 q2 -24.5 10.5 -46 q8.5 -21.5 26 -36 q17.5 -14.5 49.5 -14.5 q30 0 50.5 10 q20.5 10 34 27 q13.5 17 19.5 39 q6 22 6 46 l0 262 l120 0 l0 -480 l-114 0 l0 77 l-2 0 q-8 -18 -19.5 -34 q-11.5 -16 -28 -28.5 q-16.5 -12.5 -38.5 -19.5 q-22 -7 -51 -7 q-18 0 -36.5 6 q-18.5 6 -28.5 18 l0 -240 l-120 0 l0 708 l120 0 Z" /><glyph glyph-name="paragraph" unicode="¶" d="M246 338 q-49 0 -88.5 13.5 q-39.5 13.5 -67.5 38 q-28 24.5 -43.5 58 q-15.5 33.5 -15.5 72.5 q0 50 17 86 q17 36 47.5 58.5 q30.5 22.5 73.5 33 q43 10.5 95 10.5 l269 0 l0 -834 l-90 0 l0 762 l-107 0 l0 -762 l-90 0 l0 464 Z" /><glyph glyph-name="periodcentered" unicode="·" d="M50 291 q0 32 23.5 55 q23.5 23 56.5 23 q32 0 56 -22 q24 -22 24 -54 q0 -32 -23.5 -55 q-23.5 -23 -56.5 -23 q-16 0 -30.5 6 q-14.5 6 -25.5 16 q-11 10 -17.5 24 q-6.5 14 -6.5 30 Z" /><glyph glyph-name="cedilla" unicode="¸" d="M133 -64 q6 1 10.5 1 q4.5 0 8.5 0 q19 0 37.5 -3.5 q18.5 -3.5 33.5 -12.5 q15 -9 24.5 -25 q9.5 -16 9.5 -42 q0 -27 -13 -45.5 q-13 -18.5 -32.5 -29 q-19.5 -10.5 -44 -15 q-24.5 -4.5 -46.5 -4.5 q-30 0 -59.5 7.5 q-29.5 7.5 -50.5 18.5 l23 48 q38 -20 82 -20 q8 0 18 1.5 q10 1.5 18.5 6 q8.5 4.5 14.5 12.5 q6 8 6 21 q0 11 -5.5 18 q-5.5 7 -13.5 11 q-8 4 -17 5.5 q-9 1.5 -17 1.5 q-8 0 -19 -1.5 q-11 -1.5 -20 -4.5 l-23 25 l62 90 l58 0 l-45 -64 Z" /><glyph glyph-name="onesuperior" unicode="¹" d="M42 597 l137 111 l83 0 l0 -429 l-94 0 l0 317 l-73 -61 l-53 62 Z" /><glyph glyph-name="ordmasculine" unicode="º" d="M342 574 q0 -32 -11.5 -59.5 q-11.5 -27.5 -31.5 -47 q-20 -19.5 -48 -30.5 q-28 -11 -61 -11 q-33 0 -61 11 q-28 11 -48 30.5 q-20 19.5 -31.5 47 q-11.5 27.5 -11.5 59.5 q0 33 11.5 60 q11.5 27 31.5 46.5 q20 19.5 48 30.5 q28 11 61 11 q33 0 61 -11 q28 -11 48 -30.5 q20 -19.5 31.5 -46.5 q11.5 -27 11.5 -60 ZM260 574 q0 30 -17.5 52.5 q-17.5 22.5 -52.5 22.5 q-35 0 -52 -22.5 q-17 -22.5 -17 -52.5 q0 -29 17 -52 q17 -23 52 -23 q35 0 52.5 23 q17.5 23 17.5 52 Z" /><glyph glyph-name="guillemotright" unicode="»" d="M377 246 l-116 175 l76 51 l152 -226 l-152 -224 l-75 51 l115 173 ZM154 246 l-116 175 l76 51 l152 -226 l-152 -224 l-75 51 l115 173 Z" /><glyph glyph-name="onequarter" unicode="¼" d="M682 85 l-190 0 l0 74 l179 270 l97 0 l0 -265 l58 0 l0 -79 l-58 0 l0 -85 l-86 0 l0 85 ZM682 313 l-1 0 l-96 -149 l97 0 l0 149 ZM602 740 l78 -38 l-416 -734 l-78 38 l416 734 ZM42 597 l137 111 l83 0 l0 -429 l-94 0 l0 317 l-73 -61 l-53 62 Z" /><glyph glyph-name="onehalf" unicode="½" d="M602 740 l78 -38 l-416 -734 l-78 38 l416 734 ZM671 82 l169 0 l0 -82 l-291 0 l0 76 l162 161 q16 16 26 33 q10 17 10 37 q0 23 -15 36 q-15 13 -38 13 q-26 0 -42.5 -19 q-16.5 -19 -18.5 -48 l-88 12 q3 29 15.5 54 q12.5 25 32 43 q19.5 18 45.5 28 q26 10 56 10 q28 0 54.5 -8 q26.5 -8 47 -24 q20.5 -16 32.5 -40 q12 -24 12 -56 q0 -42 -20.5 -72 q-20.5 -30 -48.5 -57 l-100 -97 ZM42 597 l137 111 l83 0 l0 -429 l-94 0 l0 317 l-73 -61 l-53 62 Z" /><glyph glyph-name="threequarters" unicode="¾" d="M682 85 l-190 0 l0 74 l179 270 l97 0 l0 -265 l58 0 l0 -79 l-58 0 l0 -85 l-86 0 l0 85 ZM682 313 l-1 0 l-96 -149 l97 0 l0 149 ZM602 740 l78 -38 l-416 -734 l-78 38 l416 734 ZM148 540 l28 0 q28 0 51.5 12.5 q23.5 12.5 23.5 44.5 q0 21 -15.5 33 q-15.5 12 -37.5 12 q-21 0 -36 -15 q-15 -15 -20 -38 l-86 21 q14 48 53.5 79 q39.5 31 91.5 31 q60 0 101 -29 q41 -29 41 -89 q0 -29 -14.5 -54 q-14.5 -25 -40.5 -39 q32 -12 49 -38 q17 -26 17 -62 q0 -34 -13.5 -59 q-13.5 -25 -35.5 -41 q-22 -16 -49 -24 q-27 -8 -55 -8 q-55 0 -98 26 q-43 26 -63 86 l85 25 q8 -25 25.5 -41.5 q17.5 -16.5 46.5 -16.5 q24 0 45 13 q21 13 21 44 q0 17 -8.5 28 q-8.5 11 -21 17 q-12.5 6 -28 8.5 q-15.5 2.5 -30.5 2.5 l-27 0 l0 71 Z" /><glyph glyph-name="questiondown" unicode="¿" d="M313 285 l0 -38 q0 -24 -3.5 -43 q-3.5 -19 -11 -36 q-7.5 -17 -20 -33 q-12.5 -16 -31.5 -34 l-45 -43 q-19 -17 -32.5 -38 q-13.5 -21 -13.5 -51 q0 -39 24.5 -65.5 q24.5 -26.5 69.5 -26.5 q23 0 41.5 8.5 q18.5 8.5 32 23 q13.5 14.5 20.5 33.5 q7 19 8 39 l123 -11 q-6 -48 -25.5 -85.5 q-19.5 -37.5 -50.5 -63.5 q-31 -26 -71 -39.5 q-40 -13.5 -86 -13.5 q-43 0 -81.5 12.5 q-38.5 12.5 -68 37 q-29.5 24.5 -46.5 60.5 q-17 36 -17 83 q0 32 7 56 q7 24 20 44 q13 20 31.5 38.5 q18.5 18.5 41.5 38.5 q19 17 32 30 q13 13 20.5 26 q7.5 13 10.5 28 q3 15 3 37 l0 26 l118 0 ZM333 424 q0 -32 -23.5 -55 q-23.5 -23 -56.5 -23 q-32 0 -56 22 q-24 22 -24 54 q0 32 23.5 55 q23.5 23 56.5 23 q16 0 30.5 -6 q14.5 -6 25.5 -16 q11 -10 17.5 -24 q6.5 -14 6.5 -30 Z" /><glyph glyph-name="Agrave" unicode="à" d="M300 708 l109 0 l305 -708 l-144 0 l-66 162 l-307 0 l-64 -162 l-141 0 l308 708 ZM460 270 l-109 288 l-111 -288 l220 0 ZM403 764 l-94 0 l-141 144 l136 0 l99 -144 Z" /><glyph glyph-name="Aacute" unicode="á" d="M300 708 l109 0 l305 -708 l-144 0 l-66 162 l-307 0 l-64 -162 l-141 0 l308 708 ZM460 270 l-109 288 l-111 -288 l220 0 ZM400 908 l136 0 l-141 -144 l-94 0 l99 144 Z" /><glyph glyph-name="Acircumflex" unicode="â" d="M300 708 l109 0 l305 -708 l-144 0 l-66 162 l-307 0 l-64 -162 l-141 0 l308 708 ZM460 270 l-109 288 l-111 -288 l220 0 ZM423 764 l-69 90 l-69 -90 l-112 0 l115 144 l135 0 l114 -144 l-114 0 Z" /><glyph glyph-name="Atilde" unicode="ã" d="M300 708 l109 0 l305 -708 l-144 0 l-66 162 l-307 0 l-64 -162 l-141 0 l308 708 ZM460 270 l-109 288 l-111 -288 l220 0 ZM170 768 q4 24 11.5 47 q7.5 23 20.5 40.5 q13 17.5 32.5 28.5 q19.5 11 47.5 11 q20 0 40.5 -5 q20.5 -5 38.5 -13 q20 -8 36.5 -13.5 q16.5 -5.5 28.5 -5.5 q20 0 30.5 12.5 q10.5 12.5 15.5 29.5 l66 0 q-4 -24 -11.5 -47 q-7.5 -23 -20.5 -40.5 q-13 -17.5 -32.5 -28.5 q-19.5 -11 -47.5 -11 q-21 0 -42 6 q-21 6 -40 14 q-18 8 -34 13 q-16 5 -28 5 q-20 0 -30.5 -13 q-10.5 -13 -15.5 -30 l-66 0 Z" /><glyph glyph-name="Adieresis" unicode="ä" d="M300 708 l109 0 l305 -708 l-144 0 l-66 162 l-307 0 l-64 -162 l-141 0 l308 708 ZM460 270 l-109 288 l-111 -288 l220 0 ZM186 844 q0 28 20 49 q20 21 51 21 q31 0 52 -20 q21 -20 21 -50 q0 -30 -21 -50 q-21 -20 -52 -20 q-31 0 -51 21 q-20 21 -20 49 ZM382 844 q0 28 20 49 q20 21 51 21 q31 0 52 -20 q21 -20 21 -50 q0 -30 -21 -50 q-21 -20 -52 -20 q-31 0 -51 21 q-20 21 -20 49 Z" /><glyph glyph-name="Aring" unicode="å" d="M300 708 l109 0 l305 -708 l-144 0 l-66 162 l-307 0 l-64 -162 l-141 0 l308 708 ZM460 270 l-109 288 l-111 -288 l220 0 ZM458 855 q0 -45 -30 -73.5 q-30 -28.5 -75 -28.5 q-45 0 -75 28.5 q-30 28.5 -30 72.5 q0 22 8 41 q8 19 22 32.5 q14 13.5 33 21.5 q19 8 42 8 q45 0 75 -28.5 q30 -28.5 30 -73.5 ZM412 855 q0 25 -17 41 q-17 16 -42 16 q-26 0 -42.5 -16.5 q-16.5 -16.5 -16.5 -41.5 q0 -24 17 -40 q17 -16 42 -16 q25 0 42 16 q17 16 17 41 Z" /><glyph glyph-name="AE" unicode="æ" d="M529 186 l-268 0 l-114 -186 l-153 0 l453 708 l536 0 l0 -110 l-328 0 l0 -180 l310 0 l0 -106 l-310 0 l0 -200 l346 0 l0 -112 l-472 0 l0 186 ZM529 294 l0 304 l-15 0 l-187 -304 l202 0 Z" /><glyph glyph-name="Ccedilla" unicode="ç" d="M589 542 q-28 38 -73 55.5 q-45 17.5 -88 17.5 q-55 0 -100 -20 q-45 -20 -77.5 -55 q-32.5 -35 -50 -82 q-17.5 -47 -17.5 -102 q0 -58 17 -106 q17 -48 48.5 -82.5 q31.5 -34.5 75.5 -53.5 q44 -19 99 -19 q57 0 101 22.5 q44 22.5 71 59.5 l101 -71 q-45 -57 -109 -88.5 q-64 -31.5 -149 -34.5 l-32 -47 q6 1 10.5 1 q4.5 0 8.5 0 q19 0 37.5 -3.5 q18.5 -3.5 33.5 -12.5 q15 -9 24.5 -25 q9.5 -16 9.5 -42 q0 -27 -13 -45.5 q-13 -18.5 -32.5 -29 q-19.5 -10.5 -44 -15 q-24.5 -4.5 -46.5 -4.5 q-30 0 -59.5 7.5 q-29.5 7.5 -50.5 18.5 l23 48 q38 -20 82 -20 q8 0 18 1.5 q10 1.5 18.5 6 q8.5 4.5 14.5 12.5 q6 8 6 21 q0 11 -5.5 18 q-5.5 7 -13.5 11 q-8 4 -17 5.5 q-9 1.5 -17 1.5 q-8 0 -19 -1.5 q-11 -1.5 -20 -4.5 l-23 25 l51 74 q-75 6 -137 36 q-62 30 -107 78.5 q-45 48.5 -69.5 114 q-24.5 65.5 -24.5 143.5 q0 85 29.5 153.5 q29.5 68.5 81 116.5 q51.5 48 121.5 74 q70 26 152 26 q34 0 71 -6.5 q37 -6.5 71 -20 q34 -13.5 64 -33.5 q30 -20 51 -48 l-96 -76 Z" /><glyph glyph-name="Egrave" unicode="è" d="M78 708 l469 0 l0 -110 l-343 0 l0 -180 l325 0 l0 -106 l-325 0 l0 -200 l361 0 l0 -112 l-487 0 l0 708 ZM395 764 l-94 0 l-141 144 l136 0 l99 -144 Z" /><glyph glyph-name="Eacute" unicode="é" d="M78 708 l469 0 l0 -110 l-343 0 l0 -180 l325 0 l0 -106 l-325 0 l0 -200 l361 0 l0 -112 l-487 0 l0 708 ZM352 908 l136 0 l-141 -144 l-94 0 l99 144 Z" /><glyph glyph-name="Ecircumflex" unicode="ê" d="M78 708 l469 0 l0 -110 l-343 0 l0 -180 l325 0 l0 -106 l-325 0 l0 -200 l361 0 l0 -112 l-487 0 l0 708 ZM385 764 l-69 90 l-69 -90 l-112 0 l115 144 l135 0 l114 -144 l-114 0 Z" /><glyph glyph-name="Edieresis" unicode="ë" d="M78 708 l469 0 l0 -110 l-343 0 l0 -180 l325 0 l0 -106 l-325 0 l0 -200 l361 0 l0 -112 l-487 0 l0 708 ZM148 844 q0 28 20 49 q20 21 51 21 q31 0 52 -20 q21 -20 21 -50 q0 -30 -21 -50 q-21 -20 -52 -20 q-31 0 -51 21 q-20 21 -20 49 ZM344 844 q0 28 20 49 q20 21 51 21 q31 0 52 -20 q21 -20 21 -50 q0 -30 -21 -50 q-21 -20 -52 -20 q-31 0 -51 21 q-20 21 -20 49 Z" /><glyph glyph-name="Igrave" unicode="ì" d="M78 708 l126 0 l0 -708 l-126 0 l0 708 ZM203 764 l-94 0 l-141 144 l136 0 l99 -144 Z" /><glyph glyph-name="Iacute" unicode="í" d="M78 708 l126 0 l0 -708 l-126 0 l0 708 ZM177 908 l136 0 l-141 -144 l-94 0 l99 144 Z" /><glyph glyph-name="Icircumflex" unicode="î" d="M78 708 l126 0 l0 -708 l-126 0 l0 708 ZM208 764 l-69 90 l-69 -90 l-112 0 l115 144 l135 0 l114 -144 l-114 0 Z" /><glyph glyph-name="Idieresis" unicode="ï" d="M78 708 l126 0 l0 -708 l-126 0 l0 708 ZM-29 844 q0 28 20 49 q20 21 51 21 q31 0 52 -20 q21 -20 21 -50 q0 -30 -21 -50 q-21 -20 -52 -20 q-31 0 -51 21 q-20 21 -20 49 ZM167 844 q0 28 20 49 q20 21 51 21 q31 0 52 -20 q21 -20 21 -50 q0 -30 -21 -50 q-21 -20 -52 -20 q-31 0 -51 21 q-20 21 -20 49 Z" /><glyph glyph-name="Eth" unicode="ð" d="M79 324 l-66 0 l0 84 l66 0 l0 300 l279 0 q70 0 135 -21.5 q65 -21.5 115 -65.5 q50 -44 80 -110.5 q30 -66.5 30 -156.5 q0 -91 -34.5 -157.5 q-34.5 -66.5 -89 -110 q-54.5 -43.5 -121 -65 q-66.5 -21.5 -130.5 -21.5 l-264 0 l0 324 ZM299 114 q59 0 111.5 13.5 q52.5 13.5 91.5 42 q39 28.5 61.5 74 q22.5 45.5 22.5 110.5 q0 64 -20 110 q-20 46 -55.5 74.5 q-35.5 28.5 -84 42 q-48.5 13.5 -106.5 13.5 l-115 0 l0 -186 l216 0 l0 -84 l-216 0 l0 -210 l94 0 Z" /><glyph glyph-name="Ntilde" unicode="ñ" d="M78 708 l167 0 l329 -530 l2 0 l0 530 l126 0 l0 -708 l-160 0 l-336 547 l-2 0 l0 -547 l-126 0 l0 708 ZM205 768 q4 24 11.5 47 q7.5 23 20.5 40.5 q13 17.5 32.5 28.5 q19.5 11 47.5 11 q20 0 40.5 -5 q20.5 -5 38.5 -13 q20 -8 36.5 -13.5 q16.5 -5.5 28.5 -5.5 q20 0 30.5 12.5 q10.5 12.5 15.5 29.5 l66 0 q-4 -24 -11.5 -47 q-7.5 -23 -20.5 -40.5 q-13 -17.5 -32.5 -28.5 q-19.5 -11 -47.5 -11 q-21 0 -42 6 q-21 6 -40 14 q-18 8 -34 13 q-16 5 -28 5 q-20 0 -30.5 -13 q-10.5 -13 -15.5 -30 l-66 0 Z" /><glyph glyph-name="Ograve" unicode="ò" d="M44 356 q0 85 28.5 153.5 q28.5 68.5 79 116.5 q50.5 48 120 74 q69.5 26 151.5 26 q83 0 153 -26 q70 -26 121 -74 q51 -48 79.5 -116.5 q28.5 -68.5 28.5 -153.5 q0 -83 -28.5 -151.5 q-28.5 -68.5 -79.5 -118 q-51 -49.5 -121 -77 q-70 -27.5 -153 -27.5 q-82 0 -151.5 27.5 q-69.5 27.5 -120 77 q-50.5 49.5 -79 118 q-28.5 68.5 -28.5 151.5 ZM181 356 q0 -57 17.5 -104.5 q17.5 -47.5 50 -82.5 q32.5 -35 77 -54.5 q44.5 -19.5 98.5 -19.5 q54 0 99 19.5 q45 19.5 77.5 54.5 q32.5 35 50 82.5 q17.5 47.5 17.5 104.5 q0 55 -17.5 102 q-17.5 47 -49.5 82 q-32 35 -77 55 q-45 20 -100 20 q-55 0 -99.5 -20 q-44.5 -20 -76.5 -55 q-32 -35 -49.5 -82 q-17.5 -47 -17.5 -102 ZM494 764 l-94 0 l-141 144 l136 0 l99 -144 Z" /><glyph glyph-name="Oacute" unicode="ó" d="M44 356 q0 85 28.5 153.5 q28.5 68.5 79 116.5 q50.5 48 120 74 q69.5 26 151.5 26 q83 0 153 -26 q70 -26 121 -74 q51 -48 79.5 -116.5 q28.5 -68.5 28.5 -153.5 q0 -83 -28.5 -151.5 q-28.5 -68.5 -79.5 -118 q-51 -49.5 -121 -77 q-70 -27.5 -153 -27.5 q-82 0 -151.5 27.5 q-69.5 27.5 -120 77 q-50.5 49.5 -79 118 q-28.5 68.5 -28.5 151.5 ZM181 356 q0 -57 17.5 -104.5 q17.5 -47.5 50 -82.5 q32.5 -35 77 -54.5 q44.5 -19.5 98.5 -19.5 q54 0 99 19.5 q45 19.5 77.5 54.5 q32.5 35 50 82.5 q17.5 47.5 17.5 104.5 q0 55 -17.5 102 q-17.5 47 -49.5 82 q-32 35 -77 55 q-45 20 -100 20 q-55 0 -99.5 -20 q-44.5 -20 -76.5 -55 q-32 -35 -49.5 -82 q-17.5 -47 -17.5 -102 ZM460 908 l136 0 l-141 -144 l-94 0 l99 144 Z" /><glyph glyph-name="Ocircumflex" unicode="ô" d="M44 356 q0 85 28.5 153.5 q28.5 68.5 79 116.5 q50.5 48 120 74 q69.5 26 151.5 26 q83 0 153 -26 q70 -26 121 -74 q51 -48 79.5 -116.5 q28.5 -68.5 28.5 -153.5 q0 -83 -28.5 -151.5 q-28.5 -68.5 -79.5 -118 q-51 -49.5 -121 -77 q-70 -27.5 -153 -27.5 q-82 0 -151.5 27.5 q-69.5 27.5 -120 77 q-50.5 49.5 -79 118 q-28.5 68.5 -28.5 151.5 ZM181 356 q0 -57 17.5 -104.5 q17.5 -47.5 50 -82.5 q32.5 -35 77 -54.5 q44.5 -19.5 98.5 -19.5 q54 0 99 19.5 q45 19.5 77.5 54.5 q32.5 35 50 82.5 q17.5 47.5 17.5 104.5 q0 55 -17.5 102 q-17.5 47 -49.5 82 q-32 35 -77 55 q-45 20 -100 20 q-55 0 -99.5 -20 q-44.5 -20 -76.5 -55 q-32 -35 -49.5 -82 q-17.5 -47 -17.5 -102 ZM497 764 l-69 90 l-69 -90 l-112 0 l115 144 l135 0 l114 -144 l-114 0 Z" /><glyph glyph-name="Otilde" unicode="õ" d="M44 356 q0 85 28.5 153.5 q28.5 68.5 79 116.5 q50.5 48 120 74 q69.5 26 151.5 26 q83 0 153 -26 q70 -26 121 -74 q51 -48 79.5 -116.5 q28.5 -68.5 28.5 -153.5 q0 -83 -28.5 -151.5 q-28.5 -68.5 -79.5 -118 q-51 -49.5 -121 -77 q-70 -27.5 -153 -27.5 q-82 0 -151.5 27.5 q-69.5 27.5 -120 77 q-50.5 49.5 -79 118 q-28.5 68.5 -28.5 151.5 ZM181 356 q0 -57 17.5 -104.5 q17.5 -47.5 50 -82.5 q32.5 -35 77 -54.5 q44.5 -19.5 98.5 -19.5 q54 0 99 19.5 q45 19.5 77.5 54.5 q32.5 35 50 82.5 q17.5 47.5 17.5 104.5 q0 55 -17.5 102 q-17.5 47 -49.5 82 q-32 35 -77 55 q-45 20 -100 20 q-55 0 -99.5 -20 q-44.5 -20 -76.5 -55 q-32 -35 -49.5 -82 q-17.5 -47 -17.5 -102 ZM244 768 q4 24 11.5 47 q7.5 23 20.5 40.5 q13 17.5 32.5 28.5 q19.5 11 47.5 11 q20 0 40.5 -5 q20.5 -5 38.5 -13 q20 -8 36.5 -13.5 q16.5 -5.5 28.5 -5.5 q20 0 30.5 12.5 q10.5 12.5 15.5 29.5 l66 0 q-4 -24 -11.5 -47 q-7.5 -23 -20.5 -40.5 q-13 -17.5 -32.5 -28.5 q-19.5 -11 -47.5 -11 q-21 0 -42 6 q-21 6 -40 14 q-18 8 -34 13 q-16 5 -28 5 q-20 0 -30.5 -13 q-10.5 -13 -15.5 -30 l-66 0 Z" /><glyph glyph-name="Odieresis" unicode="ö" d="M44 356 q0 85 28.5 153.5 q28.5 68.5 79 116.5 q50.5 48 120 74 q69.5 26 151.5 26 q83 0 153 -26 q70 -26 121 -74 q51 -48 79.5 -116.5 q28.5 -68.5 28.5 -153.5 q0 -83 -28.5 -151.5 q-28.5 -68.5 -79.5 -118 q-51 -49.5 -121 -77 q-70 -27.5 -153 -27.5 q-82 0 -151.5 27.5 q-69.5 27.5 -120 77 q-50.5 49.5 -79 118 q-28.5 68.5 -28.5 151.5 ZM181 356 q0 -57 17.5 -104.5 q17.5 -47.5 50 -82.5 q32.5 -35 77 -54.5 q44.5 -19.5 98.5 -19.5 q54 0 99 19.5 q45 19.5 77.5 54.5 q32.5 35 50 82.5 q17.5 47.5 17.5 104.5 q0 55 -17.5 102 q-17.5 47 -49.5 82 q-32 35 -77 55 q-45 20 -100 20 q-55 0 -99.5 -20 q-44.5 -20 -76.5 -55 q-32 -35 -49.5 -82 q-17.5 -47 -17.5 -102 ZM257 844 q0 28 20 49 q20 21 51 21 q31 0 52 -20 q21 -20 21 -50 q0 -30 -21 -50 q-21 -20 -52 -20 q-31 0 -51 21 q-20 21 -20 49 ZM453 844 q0 28 20 49 q20 21 51 21 q31 0 52 -20 q21 -20 21 -50 q0 -30 -21 -50 q-21 -20 -52 -20 q-31 0 -51 21 q-20 21 -20 49 Z" /><glyph glyph-name="multiply" unicode="×" d="M333 374 l182 182 l70 -70 l-181 -181 l185 -186 l-74 -74 l-183 181 l-181 -181 l-74 73 l185 182 l-184 186 l72 71 l183 -183 Z" /><glyph glyph-name="Oslash" unicode="ø" d="M44 356 q0 85 28.5 153.5 q28.5 68.5 79 116.5 q50.5 48 120 74 q69.5 26 151.5 26 q65 0 122 -16 q57 -16 103 -46 l85 93 l49 -43 l-83 -91 q51 -49 78.5 -116 q27.5 -67 27.5 -151 q0 -83 -28.5 -151 q-28.5 -68 -79.5 -117 q-51 -49 -121 -77 q-70 -28 -153 -29 q-71 0 -131.5 19.5 q-60.5 19.5 -108.5 57.5 l-85 -92 l-50 43 l87 94 q-44 46 -67.5 111 q-23.5 65 -23.5 141 ZM674 356 q0 51 -14 95 q-14 44 -43 79 l-352 -383 q60 -55 159 -55 q55 0 101 19.5 q46 19.5 79 54.5 q33 35 51.5 83.5 q18.5 48.5 18.5 106.5 ZM175 356 q0 -49 11 -88 q11 -39 34 -71 l349 378 q-26 20 -63 31.5 q-37 11.5 -82 11.5 q-57 0 -103 -20 q-46 -20 -78.5 -55 q-32.5 -35 -50 -83 q-17.5 -48 -17.5 -104 Z" /><glyph glyph-name="Ugrave" unicode="ù" d="M642 260 q0 -64 -22 -115.5 q-22 -51.5 -60 -87.5 q-38 -36 -90 -55.5 q-52 -19.5 -113 -19.5 q-61 0 -113 19.5 q-52 19.5 -90.5 55.5 q-38.5 36 -60 87.5 q-21.5 51.5 -21.5 115.5 l0 448 l126 0 l0 -443 q0 -31 8 -61.5 q8 -30.5 26.5 -54.5 q18.5 -24 49 -39 q30.5 -15 75.5 -15 q45 0 75.5 15 q30.5 15 49 39 q18.5 24 26.5 54.5 q8 30.5 8 61.5 l0 443 l126 0 l0 -448 ZM437 764 l-94 0 l-141 144 l136 0 l99 -144 Z" /><glyph glyph-name="Uacute" unicode="ú" d="M642 260 q0 -64 -22 -115.5 q-22 -51.5 -60 -87.5 q-38 -36 -90 -55.5 q-52 -19.5 -113 -19.5 q-61 0 -113 19.5 q-52 19.5 -90.5 55.5 q-38.5 36 -60 87.5 q-21.5 51.5 -21.5 115.5 l0 448 l126 0 l0 -443 q0 -31 8 -61.5 q8 -30.5 26.5 -54.5 q18.5 -24 49 -39 q30.5 -15 75.5 -15 q45 0 75.5 15 q30.5 15 49 39 q18.5 24 26.5 54.5 q8 30.5 8 61.5 l0 443 l126 0 l0 -448 ZM390 908 l136 0 l-141 -144 l-94 0 l99 144 Z" /><glyph glyph-name="Ucircumflex" unicode="û" d="M642 260 q0 -64 -22 -115.5 q-22 -51.5 -60 -87.5 q-38 -36 -90 -55.5 q-52 -19.5 -113 -19.5 q-61 0 -113 19.5 q-52 19.5 -90.5 55.5 q-38.5 36 -60 87.5 q-21.5 51.5 -21.5 115.5 l0 448 l126 0 l0 -443 q0 -31 8 -61.5 q8 -30.5 26.5 -54.5 q18.5 -24 49 -39 q30.5 -15 75.5 -15 q45 0 75.5 15 q30.5 15 49 39 q18.5 24 26.5 54.5 q8 30.5 8 61.5 l0 443 l126 0 l0 -448 ZM427 764 l-69 90 l-69 -90 l-112 0 l115 144 l135 0 l114 -144 l-114 0 Z" /><glyph glyph-name="Udieresis" unicode="ü" d="M642 260 q0 -64 -22 -115.5 q-22 -51.5 -60 -87.5 q-38 -36 -90 -55.5 q-52 -19.5 -113 -19.5 q-61 0 -113 19.5 q-52 19.5 -90.5 55.5 q-38.5 36 -60 87.5 q-21.5 51.5 -21.5 115.5 l0 448 l126 0 l0 -443 q0 -31 8 -61.5 q8 -30.5 26.5 -54.5 q18.5 -24 49 -39 q30.5 -15 75.5 -15 q45 0 75.5 15 q30.5 15 49 39 q18.5 24 26.5 54.5 q8 30.5 8 61.5 l0 443 l126 0 l0 -448 ZM189 844 q0 28 20 49 q20 21 51 21 q31 0 52 -20 q21 -20 21 -50 q0 -30 -21 -50 q-21 -20 -52 -20 q-31 0 -51 21 q-20 21 -20 49 ZM385 844 q0 28 20 49 q20 21 51 21 q31 0 52 -20 q21 -20 21 -50 q0 -30 -21 -50 q-21 -20 -52 -20 q-31 0 -51 21 q-20 21 -20 49 Z" /><glyph glyph-name="Yacute" unicode="ý" d="M249 307 l-266 401 l154 0 l178 -298 l180 298 l146 0 l-266 -401 l0 -307 l-126 0 l0 307 ZM365 908 l136 0 l-141 -144 l-94 0 l99 144 Z" /><glyph glyph-name="Thorn" unicode="þ" d="M78 708 l126 0 l0 -134 l105 0 q61 0 110 -11 q49 -11 84 -36 q35 -25 54 -64 q19 -39 19 -94 q0 -59 -22 -99 q-22 -40 -59.5 -64.5 q-37.5 -24.5 -87.5 -35.5 q-50 -11 -106 -11 l-97 0 l0 -159 l-126 0 l0 708 ZM292 265 q31 0 59 4.5 q28 4.5 50 16 q22 11.5 35 31.5 q13 20 13 52 q0 31 -13 50.5 q-13 19.5 -34.5 30.5 q-21.5 11 -49 14.5 q-27.5 3.5 -56.5 3.5 l-92 0 l0 -203 l88 0 Z" /><glyph glyph-name="germandbls" unicode="ß" d="M72 507 q0 52 13.5 99 q13.5 47 43 83 q29.5 36 75.5 57.5 q46 21.5 112 21.5 q47 0 86.5 -15 q39.5 -15 68 -41.5 q28.5 -26.5 44 -62 q15.5 -35.5 15.5 -76.5 q0 -26 -8 -50 q-8 -24 -22.5 -44 q-14.5 -20 -34 -34.5 q-19.5 -14.5 -42.5 -20.5 l0 -2 q38 -6 68.5 -23.5 q30.5 -17.5 51.5 -44 q21 -26.5 32.5 -60 q11.5 -33.5 11.5 -72.5 q0 -51 -17 -94 q-17 -43 -49.5 -74 q-32.5 -31 -78 -48.5 q-45.5 -17.5 -102.5 -17.5 q-21 0 -42.5 2.5 q-21.5 2.5 -44.5 8.5 l0 101 q14 -5 34.5 -7.5 q20.5 -2.5 35.5 -2.5 q63 0 102 37 q39 37 39 101 q0 35 -12.5 61 q-12.5 26 -33.5 42.5 q-21 16.5 -49 24.5 q-28 8 -59 8 l-13 0 l0 102 l15 0 q45 0 72 26 q27 26 27 70 q0 19 -6 37 q-6 18 -18 32 q-12 14 -31 23 q-19 9 -45 9 q-36 0 -59 -15 q-23 -15 -36.5 -39 q-13.5 -24 -18.5 -52.5 q-5 -28.5 -5 -55.5 l0 -501 l-120 0 l0 507 Z" /><glyph glyph-name="agrave" unicode="à" d="M370 61 l-3 0 q-18 -32 -58 -52.5 q-40 -20.5 -91 -20.5 q-29 0 -60.5 7.5 q-31.5 7.5 -58 25 q-26.5 17.5 -44 46 q-17.5 28.5 -17.5 70.5 q0 54 30.5 86 q30.5 32 78.5 49 q48 17 106.5 22.5 q58.5 5.5 114.5 5.5 l0 12 q0 45 -32.5 66.5 q-32.5 21.5 -77.5 21.5 q-38 0 -73 -16 q-35 -16 -58 -39 l-62 73 q41 38 94.5 57 q53.5 19 108.5 19 q64 0 105.5 -18 q41.5 -18 65.5 -47 q24 -29 33.5 -65 q9.5 -36 9.5 -72 l0 -292 l-112 0 l0 61 ZM368 219 l-27 0 q-29 0 -61 -2.5 q-32 -2.5 -59 -11 q-27 -8.5 -45 -24 q-18 -15.5 -18 -42.5 q0 -17 7.5 -28.5 q7.5 -11.5 19.5 -18.5 q12 -7 27 -10 q15 -3 30 -3 q62 0 94 33 q32 33 32 90 l0 17 ZM335 564 l-94 0 l-141 144 l136 0 l99 -144 Z" /><glyph glyph-name="aacute" unicode="á" d="M370 61 l-3 0 q-18 -32 -58 -52.5 q-40 -20.5 -91 -20.5 q-29 0 -60.5 7.5 q-31.5 7.5 -58 25 q-26.5 17.5 -44 46 q-17.5 28.5 -17.5 70.5 q0 54 30.5 86 q30.5 32 78.5 49 q48 17 106.5 22.5 q58.5 5.5 114.5 5.5 l0 12 q0 45 -32.5 66.5 q-32.5 21.5 -77.5 21.5 q-38 0 -73 -16 q-35 -16 -58 -39 l-62 73 q41 38 94.5 57 q53.5 19 108.5 19 q64 0 105.5 -18 q41.5 -18 65.5 -47 q24 -29 33.5 -65 q9.5 -36 9.5 -72 l0 -292 l-112 0 l0 61 ZM368 219 l-27 0 q-29 0 -61 -2.5 q-32 -2.5 -59 -11 q-27 -8.5 -45 -24 q-18 -15.5 -18 -42.5 q0 -17 7.5 -28.5 q7.5 -11.5 19.5 -18.5 q12 -7 27 -10 q15 -3 30 -3 q62 0 94 33 q32 33 32 90 l0 17 ZM294 708 l136 0 l-141 -144 l-94 0 l99 144 Z" /><glyph glyph-name="acircumflex" unicode="â" d="M370 61 l-3 0 q-18 -32 -58 -52.5 q-40 -20.5 -91 -20.5 q-29 0 -60.5 7.5 q-31.5 7.5 -58 25 q-26.5 17.5 -44 46 q-17.5 28.5 -17.5 70.5 q0 54 30.5 86 q30.5 32 78.5 49 q48 17 106.5 22.5 q58.5 5.5 114.5 5.5 l0 12 q0 45 -32.5 66.5 q-32.5 21.5 -77.5 21.5 q-38 0 -73 -16 q-35 -16 -58 -39 l-62 73 q41 38 94.5 57 q53.5 19 108.5 19 q64 0 105.5 -18 q41.5 -18 65.5 -47 q24 -29 33.5 -65 q9.5 -36 9.5 -72 l0 -292 l-112 0 l0 61 ZM368 219 l-27 0 q-29 0 -61 -2.5 q-32 -2.5 -59 -11 q-27 -8.5 -45 -24 q-18 -15.5 -18 -42.5 q0 -17 7.5 -28.5 q7.5 -11.5 19.5 -18.5 q12 -7 27 -10 q15 -3 30 -3 q62 0 94 33 q32 33 32 90 l0 17 ZM342 564 l-69 90 l-69 -90 l-112 0 l115 144 l135 0 l114 -144 l-114 0 Z" /><glyph glyph-name="atilde" unicode="ã" d="M370 61 l-3 0 q-18 -32 -58 -52.5 q-40 -20.5 -91 -20.5 q-29 0 -60.5 7.5 q-31.5 7.5 -58 25 q-26.5 17.5 -44 46 q-17.5 28.5 -17.5 70.5 q0 54 30.5 86 q30.5 32 78.5 49 q48 17 106.5 22.5 q58.5 5.5 114.5 5.5 l0 12 q0 45 -32.5 66.5 q-32.5 21.5 -77.5 21.5 q-38 0 -73 -16 q-35 -16 -58 -39 l-62 73 q41 38 94.5 57 q53.5 19 108.5 19 q64 0 105.5 -18 q41.5 -18 65.5 -47 q24 -29 33.5 -65 q9.5 -36 9.5 -72 l0 -292 l-112 0 l0 61 ZM368 219 l-27 0 q-29 0 -61 -2.5 q-32 -2.5 -59 -11 q-27 -8.5 -45 -24 q-18 -15.5 -18 -42.5 q0 -17 7.5 -28.5 q7.5 -11.5 19.5 -18.5 q12 -7 27 -10 q15 -3 30 -3 q62 0 94 33 q32 33 32 90 l0 17 ZM87 568 q4 24 11.5 47 q7.5 23 20.5 40.5 q13 17.5 32.5 28.5 q19.5 11 47.5 11 q20 0 40.5 -5 q20.5 -5 38.5 -13 q20 -8 36.5 -13.5 q16.5 -5.5 28.5 -5.5 q20 0 30.5 12.5 q10.5 12.5 15.5 29.5 l66 0 q-4 -24 -11.5 -47 q-7.5 -23 -20.5 -40.5 q-13 -17.5 -32.5 -28.5 q-19.5 -11 -47.5 -11 q-21 0 -42 6 q-21 6 -40 14 q-18 8 -34 13 q-16 5 -28 5 q-20 0 -30.5 -13 q-10.5 -13 -15.5 -30 l-66 0 Z" /><glyph glyph-name="adieresis" unicode="ä" d="M370 61 l-3 0 q-18 -32 -58 -52.5 q-40 -20.5 -91 -20.5 q-29 0 -60.5 7.5 q-31.5 7.5 -58 25 q-26.5 17.5 -44 46 q-17.5 28.5 -17.5 70.5 q0 54 30.5 86 q30.5 32 78.5 49 q48 17 106.5 22.5 q58.5 5.5 114.5 5.5 l0 12 q0 45 -32.5 66.5 q-32.5 21.5 -77.5 21.5 q-38 0 -73 -16 q-35 -16 -58 -39 l-62 73 q41 38 94.5 57 q53.5 19 108.5 19 q64 0 105.5 -18 q41.5 -18 65.5 -47 q24 -29 33.5 -65 q9.5 -36 9.5 -72 l0 -292 l-112 0 l0 61 ZM368 219 l-27 0 q-29 0 -61 -2.5 q-32 -2.5 -59 -11 q-27 -8.5 -45 -24 q-18 -15.5 -18 -42.5 q0 -17 7.5 -28.5 q7.5 -11.5 19.5 -18.5 q12 -7 27 -10 q15 -3 30 -3 q62 0 94 33 q32 33 32 90 l0 17 ZM103 644 q0 28 20 49 q20 21 51 21 q31 0 52 -20 q21 -20 21 -50 q0 -30 -21 -50 q-21 -20 -52 -20 q-31 0 -51 21 q-20 21 -20 49 ZM299 644 q0 28 20 49 q20 21 51 21 q31 0 52 -20 q21 -20 21 -50 q0 -30 -21 -50 q-21 -20 -52 -20 q-31 0 -51 21 q-20 21 -20 49 Z" /><glyph glyph-name="aring" unicode="å" d="M370 61 l-3 0 q-18 -32 -58 -52.5 q-40 -20.5 -91 -20.5 q-29 0 -60.5 7.5 q-31.5 7.5 -58 25 q-26.5 17.5 -44 46 q-17.5 28.5 -17.5 70.5 q0 54 30.5 86 q30.5 32 78.5 49 q48 17 106.5 22.5 q58.5 5.5 114.5 5.5 l0 12 q0 45 -32.5 66.5 q-32.5 21.5 -77.5 21.5 q-38 0 -73 -16 q-35 -16 -58 -39 l-62 73 q41 38 94.5 57 q53.5 19 108.5 19 q64 0 105.5 -18 q41.5 -18 65.5 -47 q24 -29 33.5 -65 q9.5 -36 9.5 -72 l0 -292 l-112 0 l0 61 ZM368 219 l-27 0 q-29 0 -61 -2.5 q-32 -2.5 -59 -11 q-27 -8.5 -45 -24 q-18 -15.5 -18 -42.5 q0 -17 7.5 -28.5 q7.5 -11.5 19.5 -18.5 q12 -7 27 -10 q15 -3 30 -3 q62 0 94 33 q32 33 32 90 l0 17 ZM374 655 q0 -45 -30 -73.5 q-30 -28.5 -75 -28.5 q-45 0 -75 28.5 q-30 28.5 -30 72.5 q0 22 8 41 q8 19 22 32.5 q14 13.5 33 21.5 q19 8 42 8 q45 0 75 -28.5 q30 -28.5 30 -73.5 ZM328 655 q0 25 -17 41 q-17 16 -42 16 q-26 0 -42.5 -16.5 q-16.5 -16.5 -16.5 -41.5 q0 -24 17 -40 q17 -16 42 -16 q25 0 42 16 q17 16 17 41 Z" /><glyph glyph-name="ae" unicode="æ" d="M611 494 q50 0 92.5 -16.5 q42.5 -16.5 73.5 -49 q31 -32.5 48.5 -81 q17.5 -48.5 17.5 -113.5 q0 -8 0 -16 q0 -8 -1 -16 l-365 0 q3 -26 15 -48 q12 -22 30.5 -37.5 q18.5 -15.5 42 -24 q23.5 -8.5 49.5 -8.5 q45 0 76 17 q31 17 51 46 l79 -65 q-71 -96 -206 -96 q-65 0 -113 25 q-48 25 -77 71 q-21 -39 -68.5 -66.5 q-47.5 -27.5 -132.5 -27.5 q-30 0 -63 8 q-33 8 -60 26 q-27 18 -44.5 46.5 q-17.5 28.5 -17.5 68.5 q0 50 26.5 80 q26.5 30 72 45.5 q45.5 15.5 105.5 20.5 q60 5 126 5 l0 10 q0 54 -29.5 78 q-29.5 24 -79.5 24 q-36 0 -72.5 -16 q-36.5 -16 -59.5 -39 l-61 73 q40 38 93.5 57 q53.5 19 108.5 19 q63 0 103 -25 q40 -25 60 -57 q26 36 71.5 59 q45.5 23 108.5 23 ZM368 202 l-27 0 q-85 0 -134 -11.5 q-49 -11.5 -49 -51.5 q0 -17 7.5 -28.5 q7.5 -11.5 19.5 -18.5 q12 -7 27 -10 q15 -3 30 -3 q62 0 94 28 q32 28 32 79 l0 16 ZM723 288 q0 23 -6.5 44 q-6.5 21 -20.5 37 q-14 16 -35.5 25.5 q-21.5 9.5 -50.5 9.5 q-54 0 -91.5 -32.5 q-37.5 -32.5 -41.5 -83.5 l246 0 Z" /><glyph glyph-name="ccedilla" unicode="ç" d="M400 347 q-14 20 -42 33.5 q-28 13.5 -57 13.5 q-33 0 -58 -13.5 q-25 -13.5 -41.5 -35.5 q-16.5 -22 -24.5 -49.5 q-8 -27.5 -8 -55.5 q0 -28 8.5 -55.5 q8.5 -27.5 25.5 -49.5 q17 -22 42.5 -35.5 q25.5 -13.5 59.5 -13.5 q28 0 56 11 q28 11 45 32 l75 -76 q-29 -31 -72 -48 q-43 -17 -93 -19 l-35 -50 q6 1 10.5 1 q4.5 0 8.5 0 q19 0 37.5 -3.5 q18.5 -3.5 33.5 -12.5 q15 -9 24.5 -25 q9.5 -16 9.5 -42 q0 -27 -13 -45.5 q-13 -18.5 -32.5 -29 q-19.5 -10.5 -44 -15 q-24.5 -4.5 -46.5 -4.5 q-30 0 -59.5 7.5 q-29.5 7.5 -50.5 18.5 l23 48 q38 -20 82 -20 q8 0 18 1.5 q10 1.5 18.5 6 q8.5 4.5 14.5 12.5 q6 8 6 21 q0 11 -5.5 18 q-5.5 7 -13.5 11 q-8 4 -17 5.5 q-9 1.5 -17 1.5 q-8 0 -19 -1.5 q-11 -1.5 -20 -4.5 l-23 25 l54 79 q-46 6 -85.5 26 q-39.5 20 -68.5 52 q-29 32 -45.5 75.5 q-16.5 43.5 -16.5 97.5 q0 58 20.5 105 q20.5 47 55.5 80 q35 33 81.5 51 q46.5 18 99.5 18 q53 0 102.5 -20 q49.5 -20 78.5 -55 l-82 -72 Z" /><glyph glyph-name="egrave" unicode="è" d="M410 288 q0 23 -6.5 44 q-6.5 21 -20.5 37 q-14 16 -35.5 25.5 q-21.5 9.5 -50.5 9.5 q-54 0 -91.5 -32.5 q-37.5 -32.5 -41.5 -83.5 l246 0 ZM530 234 q0 -8 0 -16 q0 -8 -1 -16 l-365 0 q2 -26 13.5 -47.5 q11.5 -21.5 30.5 -37 q19 -15.5 43 -24.5 q24 -9 50 -9 q45 0 76 16.5 q31 16.5 51 45.5 l80 -64 q-71 -96 -206 -96 q-56 0 -103 17.5 q-47 17.5 -81.5 49.5 q-34.5 32 -54 78.5 q-19.5 46.5 -19.5 105.5 q0 58 19.5 105.5 q19.5 47.5 53.5 81 q34 33.5 80.5 52 q46.5 18.5 100.5 18.5 q50 0 92.5 -16.5 q42.5 -16.5 73.5 -49 q31 -32.5 48.5 -81 q17.5 -48.5 17.5 -113.5 ZM359 564 l-94 0 l-141 144 l136 0 l99 -144 Z" /><glyph glyph-name="eacute" unicode="é" d="M410 288 q0 23 -6.5 44 q-6.5 21 -20.5 37 q-14 16 -35.5 25.5 q-21.5 9.5 -50.5 9.5 q-54 0 -91.5 -32.5 q-37.5 -32.5 -41.5 -83.5 l246 0 ZM530 234 q0 -8 0 -16 q0 -8 -1 -16 l-365 0 q2 -26 13.5 -47.5 q11.5 -21.5 30.5 -37 q19 -15.5 43 -24.5 q24 -9 50 -9 q45 0 76 16.5 q31 16.5 51 45.5 l80 -64 q-71 -96 -206 -96 q-56 0 -103 17.5 q-47 17.5 -81.5 49.5 q-34.5 32 -54 78.5 q-19.5 46.5 -19.5 105.5 q0 58 19.5 105.5 q19.5 47.5 53.5 81 q34 33.5 80.5 52 q46.5 18.5 100.5 18.5 q50 0 92.5 -16.5 q42.5 -16.5 73.5 -49 q31 -32.5 48.5 -81 q17.5 -48.5 17.5 -113.5 ZM330 708 l136 0 l-141 -144 l-94 0 l99 144 Z" /><glyph glyph-name="ecircumflex" unicode="ê" d="M410 288 q0 23 -6.5 44 q-6.5 21 -20.5 37 q-14 16 -35.5 25.5 q-21.5 9.5 -50.5 9.5 q-54 0 -91.5 -32.5 q-37.5 -32.5 -41.5 -83.5 l246 0 ZM530 234 q0 -8 0 -16 q0 -8 -1 -16 l-365 0 q2 -26 13.5 -47.5 q11.5 -21.5 30.5 -37 q19 -15.5 43 -24.5 q24 -9 50 -9 q45 0 76 16.5 q31 16.5 51 45.5 l80 -64 q-71 -96 -206 -96 q-56 0 -103 17.5 q-47 17.5 -81.5 49.5 q-34.5 32 -54 78.5 q-19.5 46.5 -19.5 105.5 q0 58 19.5 105.5 q19.5 47.5 53.5 81 q34 33.5 80.5 52 q46.5 18.5 100.5 18.5 q50 0 92.5 -16.5 q42.5 -16.5 73.5 -49 q31 -32.5 48.5 -81 q17.5 -48.5 17.5 -113.5 ZM370 564 l-69 90 l-69 -90 l-112 0 l115 144 l135 0 l114 -144 l-114 0 Z" /><glyph glyph-name="edieresis" unicode="ë" d="M410 288 q0 23 -6.5 44 q-6.5 21 -20.5 37 q-14 16 -35.5 25.5 q-21.5 9.5 -50.5 9.5 q-54 0 -91.5 -32.5 q-37.5 -32.5 -41.5 -83.5 l246 0 ZM530 234 q0 -8 0 -16 q0 -8 -1 -16 l-365 0 q2 -26 13.5 -47.5 q11.5 -21.5 30.5 -37 q19 -15.5 43 -24.5 q24 -9 50 -9 q45 0 76 16.5 q31 16.5 51 45.5 l80 -64 q-71 -96 -206 -96 q-56 0 -103 17.5 q-47 17.5 -81.5 49.5 q-34.5 32 -54 78.5 q-19.5 46.5 -19.5 105.5 q0 58 19.5 105.5 q19.5 47.5 53.5 81 q34 33.5 80.5 52 q46.5 18.5 100.5 18.5 q50 0 92.5 -16.5 q42.5 -16.5 73.5 -49 q31 -32.5 48.5 -81 q17.5 -48.5 17.5 -113.5 ZM130 644 q0 28 20 49 q20 21 51 21 q31 0 52 -20 q21 -20 21 -50 q0 -30 -21 -50 q-21 -20 -52 -20 q-31 0 -51 21 q-20 21 -20 49 ZM326 644 q0 28 20 49 q20 21 51 21 q31 0 52 -20 q21 -20 21 -50 q0 -30 -21 -50 q-21 -20 -52 -20 q-31 0 -51 21 q-20 21 -20 49 Z" /><glyph glyph-name="igrave" unicode="ì" d="M74 480 l120 0 l0 -480 l-120 0 l0 480 ZM193 564 l-94 0 l-141 144 l136 0 l99 -144 Z" /><glyph glyph-name="iacute" unicode="í" d="M74 480 l120 0 l0 -480 l-120 0 l0 480 ZM174 708 l136 0 l-141 -144 l-94 0 l99 144 Z" /><glyph glyph-name="icircumflex" unicode="î" d="M74 480 l120 0 l0 -480 l-120 0 l0 480 ZM203 564 l-69 90 l-69 -90 l-112 0 l115 144 l135 0 l114 -144 l-114 0 Z" /><glyph glyph-name="idieresis" unicode="ï" d="M74 480 l120 0 l0 -480 l-120 0 l0 480 ZM-35 644 q0 28 20 49 q20 21 51 21 q31 0 52 -20 q21 -20 21 -50 q0 -30 -21 -50 q-21 -20 -52 -20 q-31 0 -51 21 q-20 21 -20 49 ZM161 644 q0 28 20 49 q20 21 51 21 q31 0 52 -20 q21 -20 21 -50 q0 -30 -21 -50 q-21 -20 -52 -20 q-31 0 -51 21 q-20 21 -20 49 Z" /><glyph glyph-name="eth" unicode="ð" d="M506 712 l-117 -54 q36 -39 68.5 -83.5 q32.5 -44.5 56.5 -93 q24 -48.5 38.5 -101 q14.5 -52.5 14.5 -108.5 q0 -61 -17 -113.5 q-17 -52.5 -50 -90.5 q-33 -38 -82 -60 q-49 -22 -113 -22 q-56 0 -103.5 18.5 q-47.5 18.5 -82.5 52 q-35 33.5 -55 80 q-20 46.5 -20 103.5 q0 57 20 103.5 q20 46.5 54.5 80 q34.5 33.5 80.5 52 q46 18.5 98 18.5 q33 0 61.5 -9.5 q28.5 -9.5 50.5 -30.5 l2 2 q-26 42 -57 83 q-31 41 -70 73 l-108 -50 l-60 57 l110 50 q-14 15 -35.5 32 q-21.5 17 -42.5 33 l94 55 q27 -21 51.5 -42 q24.5 -21 35.5 -32 l113 53 l64 -56 ZM305 86 q36 0 62.5 13.5 q26.5 13.5 44 35.5 q17.5 22 26 49.5 q8.5 27.5 8.5 55.5 q0 28 -8.5 55.5 q-8.5 27.5 -26 49.5 q-17.5 22 -44 35.5 q-26.5 13.5 -62.5 13.5 q-36 0 -62.5 -13.5 q-26.5 -13.5 -44 -35.5 q-17.5 -22 -26 -49.5 q-8.5 -27.5 -8.5 -55.5 q0 -28 8.5 -55.5 q8.5 -27.5 26 -49.5 q17.5 -22 44 -35.5 q26.5 -13.5 62.5 -13.5 Z" /><glyph glyph-name="ntilde" unicode="ñ" d="M72 480 l114 0 l0 -77 l2 0 q16 36 55.5 63.5 q39.5 27.5 93.5 27.5 q47 0 80.5 -16.5 q33.5 -16.5 55 -43.5 q21.5 -27 31.5 -62 q10 -35 10 -72 l0 -300 l-120 0 l0 266 q0 21 -3 44 q-3 23 -13 41.5 q-10 18.5 -27.5 30.5 q-17.5 12 -46.5 12 q-29 0 -50 -11.5 q-21 -11.5 -34.5 -29.5 q-13.5 -18 -20.5 -41.5 q-7 -23.5 -7 -47.5 l0 -264 l-120 0 l0 480 ZM109 568 q4 24 11.5 47 q7.5 23 20.5 40.5 q13 17.5 32.5 28.5 q19.5 11 47.5 11 q20 0 40.5 -5 q20.5 -5 38.5 -13 q20 -8 36.5 -13.5 q16.5 -5.5 28.5 -5.5 q20 0 30.5 12.5 q10.5 12.5 15.5 29.5 l66 0 q-4 -24 -11.5 -47 q-7.5 -23 -20.5 -40.5 q-13 -17.5 -32.5 -28.5 q-19.5 -11 -47.5 -11 q-21 0 -42 6 q-21 6 -40 14 q-18 8 -34 13 q-16 5 -28 5 q-20 0 -30.5 -13 q-10.5 -13 -15.5 -30 l-66 0 Z" /><glyph glyph-name="ograve" unicode="ò" d="M44 242 q0 57 20.5 103.5 q20.5 46.5 55.5 79.5 q35 33 83 51 q48 18 102 18 q54 0 102 -18 q48 -18 83 -51 q35 -33 55.5 -79.5 q20.5 -46.5 20.5 -103.5 q0 -57 -20.5 -104 q-20.5 -47 -55.5 -80.5 q-35 -33.5 -83 -52.5 q-48 -19 -102 -19 q-54 0 -102 19 q-48 19 -83 52.5 q-35 33.5 -55.5 80.5 q-20.5 47 -20.5 104 ZM166 242 q0 -28 8.5 -56 q8.5 -28 25.5 -50 q17 -22 43 -36 q26 -14 62 -14 q36 0 62 14 q26 14 43 36 q17 22 25.5 50 q8.5 28 8.5 56 q0 28 -8.5 55.5 q-8.5 27.5 -25.5 49.5 q-17 22 -43 35.5 q-26 13.5 -62 13.5 q-36 0 -62 -13.5 q-26 -13.5 -43 -35.5 q-17 -22 -25.5 -49.5 q-8.5 -27.5 -8.5 -55.5 ZM379 564 l-94 0 l-141 144 l136 0 l99 -144 Z" /><glyph glyph-name="oacute" unicode="ó" d="M44 242 q0 57 20.5 103.5 q20.5 46.5 55.5 79.5 q35 33 83 51 q48 18 102 18 q54 0 102 -18 q48 -18 83 -51 q35 -33 55.5 -79.5 q20.5 -46.5 20.5 -103.5 q0 -57 -20.5 -104 q-20.5 -47 -55.5 -80.5 q-35 -33.5 -83 -52.5 q-48 -19 -102 -19 q-54 0 -102 19 q-48 19 -83 52.5 q-35 33.5 -55.5 80.5 q-20.5 47 -20.5 104 ZM166 242 q0 -28 8.5 -56 q8.5 -28 25.5 -50 q17 -22 43 -36 q26 -14 62 -14 q36 0 62 14 q26 14 43 36 q17 22 25.5 50 q8.5 28 8.5 56 q0 28 -8.5 55.5 q-8.5 27.5 -25.5 49.5 q-17 22 -43 35.5 q-26 13.5 -62 13.5 q-36 0 -62 -13.5 q-26 -13.5 -43 -35.5 q-17 -22 -25.5 -49.5 q-8.5 -27.5 -8.5 -55.5 ZM332 708 l136 0 l-141 -144 l-94 0 l99 144 Z" /><glyph glyph-name="ocircumflex" unicode="ô" d="M44 242 q0 57 20.5 103.5 q20.5 46.5 55.5 79.5 q35 33 83 51 q48 18 102 18 q54 0 102 -18 q48 -18 83 -51 q35 -33 55.5 -79.5 q20.5 -46.5 20.5 -103.5 q0 -57 -20.5 -104 q-20.5 -47 -55.5 -80.5 q-35 -33.5 -83 -52.5 q-48 -19 -102 -19 q-54 0 -102 19 q-48 19 -83 52.5 q-35 33.5 -55.5 80.5 q-20.5 47 -20.5 104 ZM166 242 q0 -28 8.5 -56 q8.5 -28 25.5 -50 q17 -22 43 -36 q26 -14 62 -14 q36 0 62 14 q26 14 43 36 q17 22 25.5 50 q8.5 28 8.5 56 q0 28 -8.5 55.5 q-8.5 27.5 -25.5 49.5 q-17 22 -43 35.5 q-26 13.5 -62 13.5 q-36 0 -62 -13.5 q-26 -13.5 -43 -35.5 q-17 -22 -25.5 -49.5 q-8.5 -27.5 -8.5 -55.5 ZM375 564 l-69 90 l-69 -90 l-112 0 l115 144 l135 0 l114 -144 l-114 0 Z" /><glyph glyph-name="otilde" unicode="õ" d="M44 242 q0 57 20.5 103.5 q20.5 46.5 55.5 79.5 q35 33 83 51 q48 18 102 18 q54 0 102 -18 q48 -18 83 -51 q35 -33 55.5 -79.5 q20.5 -46.5 20.5 -103.5 q0 -57 -20.5 -104 q-20.5 -47 -55.5 -80.5 q-35 -33.5 -83 -52.5 q-48 -19 -102 -19 q-54 0 -102 19 q-48 19 -83 52.5 q-35 33.5 -55.5 80.5 q-20.5 47 -20.5 104 ZM166 242 q0 -28 8.5 -56 q8.5 -28 25.5 -50 q17 -22 43 -36 q26 -14 62 -14 q36 0 62 14 q26 14 43 36 q17 22 25.5 50 q8.5 28 8.5 56 q0 28 -8.5 55.5 q-8.5 27.5 -25.5 49.5 q-17 22 -43 35.5 q-26 13.5 -62 13.5 q-36 0 -62 -13.5 q-26 -13.5 -43 -35.5 q-17 -22 -25.5 -49.5 q-8.5 -27.5 -8.5 -55.5 ZM123 568 q4 24 11.5 47 q7.5 23 20.5 40.5 q13 17.5 32.5 28.5 q19.5 11 47.5 11 q20 0 40.5 -5 q20.5 -5 38.5 -13 q20 -8 36.5 -13.5 q16.5 -5.5 28.5 -5.5 q20 0 30.5 12.5 q10.5 12.5 15.5 29.5 l66 0 q-4 -24 -11.5 -47 q-7.5 -23 -20.5 -40.5 q-13 -17.5 -32.5 -28.5 q-19.5 -11 -47.5 -11 q-21 0 -42 6 q-21 6 -40 14 q-18 8 -34 13 q-16 5 -28 5 q-20 0 -30.5 -13 q-10.5 -13 -15.5 -30 l-66 0 Z" /><glyph glyph-name="odieresis" unicode="ö" d="M44 242 q0 57 20.5 103.5 q20.5 46.5 55.5 79.5 q35 33 83 51 q48 18 102 18 q54 0 102 -18 q48 -18 83 -51 q35 -33 55.5 -79.5 q20.5 -46.5 20.5 -103.5 q0 -57 -20.5 -104 q-20.5 -47 -55.5 -80.5 q-35 -33.5 -83 -52.5 q-48 -19 -102 -19 q-54 0 -102 19 q-48 19 -83 52.5 q-35 33.5 -55.5 80.5 q-20.5 47 -20.5 104 ZM166 242 q0 -28 8.5 -56 q8.5 -28 25.5 -50 q17 -22 43 -36 q26 -14 62 -14 q36 0 62 14 q26 14 43 36 q17 22 25.5 50 q8.5 28 8.5 56 q0 28 -8.5 55.5 q-8.5 27.5 -25.5 49.5 q-17 22 -43 35.5 q-26 13.5 -62 13.5 q-36 0 -62 -13.5 q-26 -13.5 -43 -35.5 q-17 -22 -25.5 -49.5 q-8.5 -27.5 -8.5 -55.5 ZM137 644 q0 28 20 49 q20 21 51 21 q31 0 52 -20 q21 -20 21 -50 q0 -30 -21 -50 q-21 -20 -52 -20 q-31 0 -51 21 q-20 21 -20 49 ZM333 644 q0 28 20 49 q20 21 51 21 q31 0 52 -20 q21 -20 21 -50 q0 -30 -21 -50 q-21 -20 -52 -20 q-31 0 -51 21 q-20 21 -20 49 Z" /><glyph glyph-name="divide" unicode="÷" d="M258 483 q0 31 22 53 q22 22 53 22 q31 0 53 -22 q22 -22 22 -53 q0 -31 -22 -53 q-22 -22 -53 -22 q-31 0 -53 22 q-22 22 -22 53 ZM258 123 q0 31 22 53 q22 22 53 22 q31 0 53 -22 q22 -22 22 -53 q0 -31 -22 -53 q-22 -22 -53 -22 q-31 0 -53 22 q-22 22 -22 53 ZM80 250 l0 107 l506 0 l0 -107 l-506 0 Z" /><glyph glyph-name="oslash" unicode="ø" d="M391 369 q-16 14 -38.5 22.5 q-22.5 8.5 -47.5 8.5 q-37 0 -64 -14.5 q-27 -14.5 -44.5 -38 q-17.5 -23.5 -26 -52 q-8.5 -28.5 -8.5 -56.5 q0 -22 5.5 -45 q5.5 -23 16.5 -38 l207 213 ZM218 114 q17 -16 39.5 -23.5 q22.5 -7.5 47.5 -7.5 q38 0 65 14.5 q27 14.5 44.5 37 q17.5 22.5 25.5 51 q8 28.5 8 56.5 q0 23 -5 45 q-5 22 -16 39 l-209 -212 ZM575 476 l-69 -71 q29 -33 44.5 -74.5 q15.5 -41.5 15.5 -90.5 q0 -57 -20.5 -103.5 q-20.5 -46.5 -55.5 -80 q-35 -33.5 -83 -52 q-48 -18.5 -102 -18.5 q-94 0 -159 51 l-70 -71 l-40 41 l67 68 q-28 32 -43.5 73.5 q-15.5 41.5 -15.5 91.5 q0 57 20.5 103.5 q20.5 46.5 55.5 80 q35 33.5 83 52 q48 18.5 102 18.5 q46 0 86.5 -13 q40.5 -13 71.5 -37 l70 72 l42 -40 Z" /><glyph glyph-name="ugrave" unicode="ù" d="M510 0 l-114 0 l0 77 l-2 0 q-16 -36 -55.5 -63.5 q-39.5 -27.5 -93.5 -27.5 q-47 0 -80.5 16.5 q-33.5 16.5 -55 43.5 q-21.5 27 -31.5 62 q-10 35 -10 72 l0 300 l120 0 l0 -266 q0 -21 3 -44 q3 -23 13 -41.5 q10 -18.5 27.5 -30.5 q17.5 -12 46.5 -12 q28 0 49.5 11.5 q21.5 11.5 35 29.5 q13.5 18 20.5 41.5 q7 23.5 7 47.5 l0 264 l120 0 l0 -480 ZM363 564 l-94 0 l-141 144 l136 0 l99 -144 Z" /><glyph glyph-name="uacute" unicode="ú" d="M510 0 l-114 0 l0 77 l-2 0 q-16 -36 -55.5 -63.5 q-39.5 -27.5 -93.5 -27.5 q-47 0 -80.5 16.5 q-33.5 16.5 -55 43.5 q-21.5 27 -31.5 62 q-10 35 -10 72 l0 300 l120 0 l0 -266 q0 -21 3 -44 q3 -23 13 -41.5 q10 -18.5 27.5 -30.5 q17.5 -12 46.5 -12 q28 0 49.5 11.5 q21.5 11.5 35 29.5 q13.5 18 20.5 41.5 q7 23.5 7 47.5 l0 264 l120 0 l0 -480 ZM324 708 l136 0 l-141 -144 l-94 0 l99 144 Z" /><glyph glyph-name="ucircumflex" unicode="û" d="M510 0 l-114 0 l0 77 l-2 0 q-16 -36 -55.5 -63.5 q-39.5 -27.5 -93.5 -27.5 q-47 0 -80.5 16.5 q-33.5 16.5 -55 43.5 q-21.5 27 -31.5 62 q-10 35 -10 72 l0 300 l120 0 l0 -266 q0 -21 3 -44 q3 -23 13 -41.5 q10 -18.5 27.5 -30.5 q17.5 -12 46.5 -12 q28 0 49.5 11.5 q21.5 11.5 35 29.5 q13.5 18 20.5 41.5 q7 23.5 7 47.5 l0 264 l120 0 l0 -480 ZM361 564 l-69 90 l-69 -90 l-112 0 l115 144 l135 0 l114 -144 l-114 0 Z" /><glyph glyph-name="udieresis" unicode="ü" d="M510 0 l-114 0 l0 77 l-2 0 q-16 -36 -55.5 -63.5 q-39.5 -27.5 -93.5 -27.5 q-47 0 -80.5 16.5 q-33.5 16.5 -55 43.5 q-21.5 27 -31.5 62 q-10 35 -10 72 l0 300 l120 0 l0 -266 q0 -21 3 -44 q3 -23 13 -41.5 q10 -18.5 27.5 -30.5 q17.5 -12 46.5 -12 q28 0 49.5 11.5 q21.5 11.5 35 29.5 q13.5 18 20.5 41.5 q7 23.5 7 47.5 l0 264 l120 0 l0 -480 ZM122 644 q0 28 20 49 q20 21 51 21 q31 0 52 -20 q21 -20 21 -50 q0 -30 -21 -50 q-21 -20 -52 -20 q-31 0 -51 21 q-20 21 -20 49 ZM318 644 q0 28 20 49 q20 21 51 21 q31 0 52 -20 q21 -20 21 -50 q0 -30 -21 -50 q-21 -20 -52 -20 q-31 0 -51 21 q-20 21 -20 49 Z" /><glyph glyph-name="yacute" unicode="ý" d="M0 480 l133 0 l134 -349 l2 0 l119 349 l125 0 l-227 -583 q-13 -33 -28 -58.5 q-15 -25.5 -36 -43 q-21 -17.5 -49.5 -26.5 q-28.5 -9 -68.5 -9 q-15 0 -30.5 1.5 q-15.5 1.5 -31.5 5.5 l10 104 q12 -4 23.5 -5.5 q11.5 -1.5 21.5 -1.5 q19 0 32 4.5 q13 4.5 22 14 q9 9.5 16 23.5 q7 14 15 33 l24 61 l-206 480 ZM304 708 l136 0 l-141 -144 l-94 0 l99 144 Z" /><glyph glyph-name="thorn" unicode="þ" d="M194 756 l0 -337 l3 0 q9 12 23 25 q14 13 33.5 24 q19.5 11 45.5 18.5 q26 7.5 59 7.5 q51 0 94 -19.5 q43 -19.5 74 -53.5 q31 -34 48 -80 q17 -46 17 -99 q0 -53 -16.5 -99.5 q-16.5 -46.5 -47 -81 q-30.5 -34.5 -74 -55 q-43.5 -20.5 -98.5 -20.5 q-50 0 -94.5 21.5 q-44.5 21.5 -64.5 58.5 l-2 0 l0 -294 l-120 0 l0 984 l120 0 ZM469 242 q0 28 -8.5 55.5 q-8.5 27.5 -25.5 49.5 q-17 22 -43 35.5 q-26 13.5 -61 13.5 q-33 0 -59 -14 q-26 -14 -44.5 -36 q-18.5 -22 -28 -50 q-9.5 -28 -9.5 -56 q0 -28 9.5 -55.5 q9.5 -27.5 28 -49.5 q18.5 -22 44.5 -35.5 q26 -13.5 59 -13.5 q35 0 61 14 q26 14 43 36 q17 22 25.5 50 q8.5 28 8.5 56 Z" /><glyph glyph-name="ydieresis" unicode="ÿ" d="M0 480 l133 0 l134 -349 l2 0 l119 349 l125 0 l-227 -583 q-13 -33 -28 -58.5 q-15 -25.5 -36 -43 q-21 -17.5 -49.5 -26.5 q-28.5 -9 -68.5 -9 q-15 0 -30.5 1.5 q-15.5 1.5 -31.5 5.5 l10 104 q12 -4 23.5 -5.5 q11.5 -1.5 21.5 -1.5 q19 0 32 4.5 q13 4.5 22 14 q9 9.5 16 23.5 q7 14 15 33 l24 61 l-206 480 ZM98 644 q0 28 20 49 q20 21 51 21 q31 0 52 -20 q21 -20 21 -50 q0 -30 -21 -50 q-21 -20 -52 -20 q-31 0 -51 21 q-20 21 -20 49 ZM294 644 q0 28 20 49 q20 21 51 21 q31 0 52 -20 q21 -20 21 -50 q0 -30 -21 -50 q-21 -20 -52 -20 q-31 0 -51 21 q-20 21 -20 49 Z" /><glyph glyph-name="Amacron" unicode="&#x100;" d="M300 708 l109 0 l305 -708 l-144 0 l-66 162 l-307 0 l-64 -162 l-141 0 l308 708 ZM460 270 l-109 288 l-111 -288 l220 0 ZM515 795 l-320 0 l0 78 l320 0 l0 -78 Z" /><glyph glyph-name="amacron" unicode="&#x101;" d="M370 61 l-3 0 q-18 -32 -58 -52.5 q-40 -20.5 -91 -20.5 q-29 0 -60.5 7.5 q-31.5 7.5 -58 25 q-26.5 17.5 -44 46 q-17.5 28.5 -17.5 70.5 q0 54 30.5 86 q30.5 32 78.5 49 q48 17 106.5 22.5 q58.5 5.5 114.5 5.5 l0 12 q0 45 -32.5 66.5 q-32.5 21.5 -77.5 21.5 q-38 0 -73 -16 q-35 -16 -58 -39 l-62 73 q41 38 94.5 57 q53.5 19 108.5 19 q64 0 105.5 -18 q41.5 -18 65.5 -47 q24 -29 33.5 -65 q9.5 -36 9.5 -72 l0 -292 l-112 0 l0 61 ZM368 219 l-27 0 q-29 0 -61 -2.5 q-32 -2.5 -59 -11 q-27 -8.5 -45 -24 q-18 -15.5 -18 -42.5 q0 -17 7.5 -28.5 q7.5 -11.5 19.5 -18.5 q12 -7 27 -10 q15 -3 30 -3 q62 0 94 33 q32 33 32 90 l0 17 ZM444 595 l-320 0 l0 78 l320 0 l0 -78 Z" /><glyph glyph-name="Abreve" unicode="&#x102;" d="M300 708 l109 0 l305 -708 l-144 0 l-66 162 l-307 0 l-64 -162 l-141 0 l308 708 ZM460 270 l-109 288 l-111 -288 l220 0 ZM251 908 q7 -38 36 -52 q29 -14 67 -14 q43 0 68 12 q25 12 36 54 l66 0 q-8 -74 -53.5 -109 q-45.5 -35 -117.5 -35 q-72 0 -118 34.5 q-46 34.5 -51 109.5 l67 0 Z" /><glyph glyph-name="abreve" unicode="&#x103;" d="M370 61 l-3 0 q-18 -32 -58 -52.5 q-40 -20.5 -91 -20.5 q-29 0 -60.5 7.5 q-31.5 7.5 -58 25 q-26.5 17.5 -44 46 q-17.5 28.5 -17.5 70.5 q0 54 30.5 86 q30.5 32 78.5 49 q48 17 106.5 22.5 q58.5 5.5 114.5 5.5 l0 12 q0 45 -32.5 66.5 q-32.5 21.5 -77.5 21.5 q-38 0 -73 -16 q-35 -16 -58 -39 l-62 73 q41 38 94.5 57 q53.5 19 108.5 19 q64 0 105.5 -18 q41.5 -18 65.5 -47 q24 -29 33.5 -65 q9.5 -36 9.5 -72 l0 -292 l-112 0 l0 61 ZM368 219 l-27 0 q-29 0 -61 -2.5 q-32 -2.5 -59 -11 q-27 -8.5 -45 -24 q-18 -15.5 -18 -42.5 q0 -17 7.5 -28.5 q7.5 -11.5 19.5 -18.5 q12 -7 27 -10 q15 -3 30 -3 q62 0 94 33 q32 33 32 90 l0 17 ZM176 708 q7 -38 36 -52 q29 -14 67 -14 q43 0 68 12 q25 12 36 54 l66 0 q-8 -74 -53.5 -109 q-45.5 -35 -117.5 -35 q-72 0 -118 34.5 q-46 34.5 -51 109.5 l67 0 Z" /><glyph glyph-name="Aogonek" unicode="&#x104;" d="M678 -196 q-21 -17 -46.5 -27.5 q-25.5 -10.5 -53.5 -10.5 q-20 0 -38.5 5.5 q-18.5 5.5 -33 17 q-14.5 11.5 -23 28 q-8.5 16.5 -8.5 38.5 q0 21 9 41.5 q9 20.5 22.5 39.5 q13.5 19 30 36 q16.5 17 32.5 29 l-65 161 l-307 0 l-64 -162 l-141 0 l308 708 l109 0 l305 -708 l-85 0 q-12 -11 -25 -25.5 q-13 -14.5 -24.5 -31 q-11.5 -16.5 -19 -33.5 q-7.5 -17 -7.5 -32 q0 -19 13.5 -32.5 q13.5 -13.5 32.5 -13.5 q14 0 28.5 6 q14.5 6 25.5 15 l25 -49 ZM460 270 l-109 288 l-111 -288 l220 0 Z" /><glyph glyph-name="aogonek" unicode="&#x105;" d="M472 -196 q-21 -17 -46.5 -27.5 q-25.5 -10.5 -53.5 -10.5 q-20 0 -38.5 5.5 q-18.5 5.5 -33 17 q-14.5 11.5 -23 28 q-8.5 16.5 -8.5 38.5 q0 21 9.5 43 q9.5 22 24.5 41.5 q15 19.5 32.5 37 q17.5 17.5 33.5 29.5 l1 0 l0 55 l-3 0 q-18 -32 -58 -52.5 q-40 -20.5 -91 -20.5 q-29 0 -60.5 7.5 q-31.5 7.5 -58 25 q-26.5 17.5 -44 46 q-17.5 28.5 -17.5 70.5 q0 54 30.5 86 q30.5 32 78.5 49 q48 17 106.5 22.5 q58.5 5.5 114.5 5.5 l0 12 q0 45 -32.5 66.5 q-32.5 21.5 -77.5 21.5 q-38 0 -73 -16 q-35 -16 -58 -39 l-62 73 q41 38 94.5 57 q53.5 19 108.5 19 q64 0 105.5 -18 q41.5 -18 65.5 -47 q24 -29 33.5 -65 q9.5 -36 9.5 -72 l0 -292 l-59 0 q-12 -11 -25 -25.5 q-13 -14.5 -24.5 -31 q-11.5 -16.5 -19 -33.5 q-7.5 -17 -7.5 -32 q0 -19 13.5 -32.5 q13.5 -13.5 32.5 -13.5 q14 0 28.5 6 q14.5 6 25.5 15 l25 -49 ZM368 219 l-27 0 q-29 0 -61 -2.5 q-32 -2.5 -59 -11 q-27 -8.5 -45 -24 q-18 -15.5 -18 -42.5 q0 -17 7.5 -28.5 q7.5 -11.5 19.5 -18.5 q12 -7 27 -10 q15 -3 30 -3 q62 0 94 33 q32 33 32 90 l0 17 Z" /><glyph glyph-name="Cacute" unicode="&#x106;" d="M589 542 q-28 38 -73 55.5 q-45 17.5 -88 17.5 q-55 0 -100 -20 q-45 -20 -77.5 -55 q-32.5 -35 -50 -82 q-17.5 -47 -17.5 -102 q0 -58 17 -106 q17 -48 48.5 -82.5 q31.5 -34.5 75.5 -53.5 q44 -19 99 -19 q57 0 101 22.5 q44 22.5 71 59.5 l101 -71 q-47 -59 -115 -91.5 q-68 -32.5 -159 -32.5 q-83 0 -152.5 27.5 q-69.5 27.5 -119.5 77 q-50 49.5 -78 118 q-28 68.5 -28 151.5 q0 85 29.5 153.5 q29.5 68.5 81 116.5 q51.5 48 121.5 74 q70 26 152 26 q34 0 71 -6.5 q37 -6.5 71 -20 q34 -13.5 64 -33.5 q30 -20 51 -48 l-96 -76 ZM429 908 l136 0 l-141 -144 l-94 0 l99 144 Z" /><glyph glyph-name="cacute" unicode="&#x107;" d="M400 347 q-14 20 -42 33.5 q-28 13.5 -57 13.5 q-33 0 -58 -13.5 q-25 -13.5 -41.5 -35.5 q-16.5 -22 -24.5 -49.5 q-8 -27.5 -8 -55.5 q0 -28 8.5 -55.5 q8.5 -27.5 25.5 -49.5 q17 -22 42.5 -35.5 q25.5 -13.5 59.5 -13.5 q28 0 56 11 q28 11 45 32 l75 -76 q-30 -32 -76.5 -49.5 q-46.5 -17.5 -100.5 -17.5 q-53 0 -100.5 17 q-47.5 17 -83 50 q-35.5 33 -56 80 q-20.5 47 -20.5 107 q0 58 20.5 105 q20.5 47 55.5 80 q35 33 81.5 51 q46.5 18 99.5 18 q53 0 102.5 -20 q49.5 -20 78.5 -55 l-82 -72 ZM328 708 l136 0 l-141 -144 l-94 0 l99 144 Z" /><glyph glyph-name="Ccircumflex" unicode="&#x108;" d="M589 542 q-28 38 -73 55.5 q-45 17.5 -88 17.5 q-55 0 -100 -20 q-45 -20 -77.5 -55 q-32.5 -35 -50 -82 q-17.5 -47 -17.5 -102 q0 -58 17 -106 q17 -48 48.5 -82.5 q31.5 -34.5 75.5 -53.5 q44 -19 99 -19 q57 0 101 22.5 q44 22.5 71 59.5 l101 -71 q-47 -59 -115 -91.5 q-68 -32.5 -159 -32.5 q-83 0 -152.5 27.5 q-69.5 27.5 -119.5 77 q-50 49.5 -78 118 q-28 68.5 -28 151.5 q0 85 29.5 153.5 q29.5 68.5 81 116.5 q51.5 48 121.5 74 q70 26 152 26 q34 0 71 -6.5 q37 -6.5 71 -20 q34 -13.5 64 -33.5 q30 -20 51 -48 l-96 -76 ZM497 764 l-69 90 l-69 -90 l-112 0 l115 144 l135 0 l114 -144 l-114 0 Z" /><glyph glyph-name="ccircumflex" unicode="&#x109;" d="M400 347 q-14 20 -42 33.5 q-28 13.5 -57 13.5 q-33 0 -58 -13.5 q-25 -13.5 -41.5 -35.5 q-16.5 -22 -24.5 -49.5 q-8 -27.5 -8 -55.5 q0 -28 8.5 -55.5 q8.5 -27.5 25.5 -49.5 q17 -22 42.5 -35.5 q25.5 -13.5 59.5 -13.5 q28 0 56 11 q28 11 45 32 l75 -76 q-30 -32 -76.5 -49.5 q-46.5 -17.5 -100.5 -17.5 q-53 0 -100.5 17 q-47.5 17 -83 50 q-35.5 33 -56 80 q-20.5 47 -20.5 107 q0 58 20.5 105 q20.5 47 55.5 80 q35 33 81.5 51 q46.5 18 99.5 18 q53 0 102.5 -20 q49.5 -20 78.5 -55 l-82 -72 ZM369 564 l-69 90 l-69 -90 l-112 0 l115 144 l135 0 l114 -144 l-114 0 Z" /><glyph glyph-name="Cdotaccent" unicode="&#x10a;" d="M589 542 q-28 38 -73 55.5 q-45 17.5 -88 17.5 q-55 0 -100 -20 q-45 -20 -77.5 -55 q-32.5 -35 -50 -82 q-17.5 -47 -17.5 -102 q0 -58 17 -106 q17 -48 48.5 -82.5 q31.5 -34.5 75.5 -53.5 q44 -19 99 -19 q57 0 101 22.5 q44 22.5 71 59.5 l101 -71 q-47 -59 -115 -91.5 q-68 -32.5 -159 -32.5 q-83 0 -152.5 27.5 q-69.5 27.5 -119.5 77 q-50 49.5 -78 118 q-28 68.5 -28 151.5 q0 85 29.5 153.5 q29.5 68.5 81 116.5 q51.5 48 121.5 74 q70 26 152 26 q34 0 71 -6.5 q37 -6.5 71 -20 q34 -13.5 64 -33.5 q30 -20 51 -48 l-96 -76 ZM349 843 q0 29 21.5 50.5 q21.5 21.5 54.5 21.5 q33 0 55.5 -20.5 q22.5 -20.5 22.5 -51.5 q0 -31 -22.5 -51.5 q-22.5 -20.5 -55.5 -20.5 q-33 0 -54.5 21.5 q-21.5 21.5 -21.5 50.5 Z" /><glyph glyph-name="cdotaccent" unicode="&#x10b;" d="M400 347 q-14 20 -42 33.5 q-28 13.5 -57 13.5 q-33 0 -58 -13.5 q-25 -13.5 -41.5 -35.5 q-16.5 -22 -24.5 -49.5 q-8 -27.5 -8 -55.5 q0 -28 8.5 -55.5 q8.5 -27.5 25.5 -49.5 q17 -22 42.5 -35.5 q25.5 -13.5 59.5 -13.5 q28 0 56 11 q28 11 45 32 l75 -76 q-30 -32 -76.5 -49.5 q-46.5 -17.5 -100.5 -17.5 q-53 0 -100.5 17 q-47.5 17 -83 50 q-35.5 33 -56 80 q-20.5 47 -20.5 107 q0 58 20.5 105 q20.5 47 55.5 80 q35 33 81.5 51 q46.5 18 99.5 18 q53 0 102.5 -20 q49.5 -20 78.5 -55 l-82 -72 ZM222 643 q0 29 21.5 50.5 q21.5 21.5 54.5 21.5 q33 0 55.5 -20.5 q22.5 -20.5 22.5 -51.5 q0 -31 -22.5 -51.5 q-22.5 -20.5 -55.5 -20.5 q-33 0 -54.5 21.5 q-21.5 21.5 -21.5 50.5 Z" /><glyph glyph-name="Ccaron" unicode="&#x10c;" d="M589 542 q-28 38 -73 55.5 q-45 17.5 -88 17.5 q-55 0 -100 -20 q-45 -20 -77.5 -55 q-32.5 -35 -50 -82 q-17.5 -47 -17.5 -102 q0 -58 17 -106 q17 -48 48.5 -82.5 q31.5 -34.5 75.5 -53.5 q44 -19 99 -19 q57 0 101 22.5 q44 22.5 71 59.5 l101 -71 q-47 -59 -115 -91.5 q-68 -32.5 -159 -32.5 q-83 0 -152.5 27.5 q-69.5 27.5 -119.5 77 q-50 49.5 -78 118 q-28 68.5 -28 151.5 q0 85 29.5 153.5 q29.5 68.5 81 116.5 q51.5 48 121.5 74 q70 26 152 26 q34 0 71 -6.5 q37 -6.5 71 -20 q34 -13.5 64 -33.5 q30 -20 51 -48 l-96 -76 ZM357 908 l69 -90 l69 90 l110 0 l-115 -144 l-133 0 l-114 144 l114 0 Z" /><glyph glyph-name="ccaron" unicode="&#x10d;" d="M400 347 q-14 20 -42 33.5 q-28 13.5 -57 13.5 q-33 0 -58 -13.5 q-25 -13.5 -41.5 -35.5 q-16.5 -22 -24.5 -49.5 q-8 -27.5 -8 -55.5 q0 -28 8.5 -55.5 q8.5 -27.5 25.5 -49.5 q17 -22 42.5 -35.5 q25.5 -13.5 59.5 -13.5 q28 0 56 11 q28 11 45 32 l75 -76 q-30 -32 -76.5 -49.5 q-46.5 -17.5 -100.5 -17.5 q-53 0 -100.5 17 q-47.5 17 -83 50 q-35.5 33 -56 80 q-20.5 47 -20.5 107 q0 58 20.5 105 q20.5 47 55.5 80 q35 33 81.5 51 q46.5 18 99.5 18 q53 0 102.5 -20 q49.5 -20 78.5 -55 l-82 -72 ZM235 708 l69 -90 l69 90 l110 0 l-115 -144 l-133 0 l-114 144 l114 0 Z" /><glyph glyph-name="Dcaron" unicode="&#x10e;" d="M78 708 l251 0 q69 0 139 -18 q70 -18 126 -59.5 q56 -41.5 91 -109 q35 -67.5 35 -167.5 q0 -93 -35 -160 q-35 -67 -91 -110 q-56 -43 -126 -63.5 q-70 -20.5 -139 -20.5 l-251 0 l0 708 ZM309 110 q49 0 98 11.5 q49 11.5 88.5 39 q39.5 27.5 64.5 74.5 q25 47 25 119 q0 76 -25 124 q-25 48 -64.5 75 q-39.5 27 -88.5 37 q-49 10 -98 10 l-105 0 l0 -490 l105 0 ZM277 908 l69 -90 l69 90 l110 0 l-115 -144 l-133 0 l-114 144 l114 0 Z" /><glyph glyph-name="dcaron" unicode="&#x10f;" d="M560 0 l-114 0 l0 72 l-2 0 q-25 -42 -69.5 -64 q-44.5 -22 -95.5 -22 q-55 0 -98.5 20.5 q-43.5 20.5 -74 55 q-30.5 34.5 -47 81 q-16.5 46.5 -16.5 99.5 q0 53 17 99 q17 46 48 80 q31 34 74 53.5 q43 19.5 94 19.5 q33 0 59 -7.5 q26 -7.5 45.5 -18.5 q19.5 -11 33.5 -24 q14 -13 23 -25 l3 0 l0 337 l120 0 l0 -756 ZM165 242 q0 -28 8.5 -56 q8.5 -28 25.5 -50 q17 -22 43 -36 q26 -14 61 -14 q33 0 59 13.5 q26 13.5 44.5 35.5 q18.5 22 28 49.5 q9.5 27.5 9.5 55.5 q0 28 -9.5 56 q-9.5 28 -28 50 q-18.5 22 -44.5 36 q-26 14 -59 14 q-35 0 -61 -13.5 q-26 -13.5 -43 -35.5 q-17 -22 -25.5 -49.5 q-8.5 -27.5 -8.5 -55.5 ZM652 708 l106 0 l-80 -195 l-91 0 l65 195 Z" /><glyph glyph-name="Dcroat" unicode="&#x110;" d="M79 324 l-66 0 l0 84 l66 0 l0 300 l279 0 q70 0 135 -21.5 q65 -21.5 115 -65.5 q50 -44 80 -110.5 q30 -66.5 30 -156.5 q0 -91 -34.5 -157.5 q-34.5 -66.5 -89 -110 q-54.5 -43.5 -121 -65 q-66.5 -21.5 -130.5 -21.5 l-264 0 l0 324 ZM299 114 q59 0 111.5 13.5 q52.5 13.5 91.5 42 q39 28.5 61.5 74 q22.5 45.5 22.5 110.5 q0 64 -20 110 q-20 46 -55.5 74.5 q-35.5 28.5 -84 42 q-48.5 13.5 -106.5 13.5 l-115 0 l0 -186 l216 0 l0 -84 l-216 0 l0 -210 l94 0 Z" /><glyph glyph-name="dcroat" unicode="&#x111;" d="M614 570 l-54 0 l0 -570 l-114 0 l0 72 l-2 0 q-25 -42 -69.5 -64 q-44.5 -22 -95.5 -22 q-55 0 -98.5 20.5 q-43.5 20.5 -74 55 q-30.5 34.5 -47 81 q-16.5 46.5 -16.5 99.5 q0 53 17 99 q17 46 48 80 q31 34 74 53.5 q43 19.5 94 19.5 q33 0 59 -7.5 q26 -7.5 45.5 -18.5 q19.5 -11 33.5 -24 q14 -13 23 -25 l3 0 l0 151 l-170 0 l0 75 l170 0 l0 111 l120 0 l0 -111 l54 0 l0 -75 ZM165 242 q0 -28 8.5 -56 q8.5 -28 25.5 -50 q17 -22 43 -36 q26 -14 61 -14 q33 0 59 13.5 q26 13.5 44.5 35.5 q18.5 22 28 49.5 q9.5 27.5 9.5 55.5 q0 28 -9.5 56 q-9.5 28 -28 50 q-18.5 22 -44.5 36 q-26 14 -59 14 q-35 0 -61 -13.5 q-26 -13.5 -43 -35.5 q-17 -22 -25.5 -49.5 q-8.5 -27.5 -8.5 -55.5 Z" /><glyph glyph-name="Emacron" unicode="&#x112;" d="M78 708 l469 0 l0 -110 l-343 0 l0 -180 l325 0 l0 -106 l-325 0 l0 -200 l361 0 l0 -112 l-487 0 l0 708 ZM477 795 l-320 0 l0 78 l320 0 l0 -78 Z" /><glyph glyph-name="emacron" unicode="&#x113;" d="M410 288 q0 23 -6.5 44 q-6.5 21 -20.5 37 q-14 16 -35.5 25.5 q-21.5 9.5 -50.5 9.5 q-54 0 -91.5 -32.5 q-37.5 -32.5 -41.5 -83.5 l246 0 ZM530 234 q0 -8 0 -16 q0 -8 -1 -16 l-365 0 q2 -26 13.5 -47.5 q11.5 -21.5 30.5 -37 q19 -15.5 43 -24.5 q24 -9 50 -9 q45 0 76 16.5 q31 16.5 51 45.5 l80 -64 q-71 -96 -206 -96 q-56 0 -103 17.5 q-47 17.5 -81.5 49.5 q-34.5 32 -54 78.5 q-19.5 46.5 -19.5 105.5 q0 58 19.5 105.5 q19.5 47.5 53.5 81 q34 33.5 80.5 52 q46.5 18.5 100.5 18.5 q50 0 92.5 -16.5 q42.5 -16.5 73.5 -49 q31 -32.5 48.5 -81 q17.5 -48.5 17.5 -113.5 ZM459 595 l-320 0 l0 78 l320 0 l0 -78 Z" /><glyph glyph-name="Ebreve" unicode="&#x114;" d="M78 708 l469 0 l0 -110 l-343 0 l0 -180 l325 0 l0 -106 l-325 0 l0 -200 l361 0 l0 -112 l-487 0 l0 708 ZM213 908 q7 -38 36 -52 q29 -14 67 -14 q43 0 68 12 q25 12 36 54 l66 0 q-8 -74 -53.5 -109 q-45.5 -35 -117.5 -35 q-72 0 -118 34.5 q-46 34.5 -51 109.5 l67 0 Z" /><glyph glyph-name="ebreve" unicode="&#x115;" d="M410 288 q0 23 -6.5 44 q-6.5 21 -20.5 37 q-14 16 -35.5 25.5 q-21.5 9.5 -50.5 9.5 q-54 0 -91.5 -32.5 q-37.5 -32.5 -41.5 -83.5 l246 0 ZM530 234 q0 -8 0 -16 q0 -8 -1 -16 l-365 0 q2 -26 13.5 -47.5 q11.5 -21.5 30.5 -37 q19 -15.5 43 -24.5 q24 -9 50 -9 q45 0 76 16.5 q31 16.5 51 45.5 l80 -64 q-71 -96 -206 -96 q-56 0 -103 17.5 q-47 17.5 -81.5 49.5 q-34.5 32 -54 78.5 q-19.5 46.5 -19.5 105.5 q0 58 19.5 105.5 q19.5 47.5 53.5 81 q34 33.5 80.5 52 q46.5 18.5 100.5 18.5 q50 0 92.5 -16.5 q42.5 -16.5 73.5 -49 q31 -32.5 48.5 -81 q17.5 -48.5 17.5 -113.5 ZM198 708 q7 -38 36 -52 q29 -14 67 -14 q43 0 68 12 q25 12 36 54 l66 0 q-8 -74 -53.5 -109 q-45.5 -35 -117.5 -35 q-72 0 -118 34.5 q-46 34.5 -51 109.5 l67 0 Z" /><glyph glyph-name="Edotaccent" unicode="&#x116;" d="M78 708 l469 0 l0 -110 l-343 0 l0 -180 l325 0 l0 -106 l-325 0 l0 -200 l361 0 l0 -112 l-487 0 l0 708 ZM244 843 q0 29 21.5 50.5 q21.5 21.5 54.5 21.5 q33 0 55.5 -20.5 q22.5 -20.5 22.5 -51.5 q0 -31 -22.5 -51.5 q-22.5 -20.5 -55.5 -20.5 q-33 0 -54.5 21.5 q-21.5 21.5 -21.5 50.5 Z" /><glyph glyph-name="edotaccent" unicode="&#x117;" d="M410 288 q0 23 -6.5 44 q-6.5 21 -20.5 37 q-14 16 -35.5 25.5 q-21.5 9.5 -50.5 9.5 q-54 0 -91.5 -32.5 q-37.5 -32.5 -41.5 -83.5 l246 0 ZM530 234 q0 -8 0 -16 q0 -8 -1 -16 l-365 0 q2 -26 13.5 -47.5 q11.5 -21.5 30.5 -37 q19 -15.5 43 -24.5 q24 -9 50 -9 q45 0 76 16.5 q31 16.5 51 45.5 l80 -64 q-71 -96 -206 -96 q-56 0 -103 17.5 q-47 17.5 -81.5 49.5 q-34.5 32 -54 78.5 q-19.5 46.5 -19.5 105.5 q0 58 19.5 105.5 q19.5 47.5 53.5 81 q34 33.5 80.5 52 q46.5 18.5 100.5 18.5 q50 0 92.5 -16.5 q42.5 -16.5 73.5 -49 q31 -32.5 48.5 -81 q17.5 -48.5 17.5 -113.5 ZM222 643 q0 29 21.5 50.5 q21.5 21.5 54.5 21.5 q33 0 55.5 -20.5 q22.5 -20.5 22.5 -51.5 q0 -31 -22.5 -51.5 q-22.5 -20.5 -55.5 -20.5 q-33 0 -54.5 21.5 q-21.5 21.5 -21.5 50.5 Z" /><glyph glyph-name="Eogonek" unicode="&#x118;" d="M78 708 l469 0 l0 -110 l-343 0 l0 -180 l325 0 l0 -106 l-325 0 l0 -200 l361 0 l0 -112 l-26 0 q-12 -11 -25 -25.5 q-13 -14.5 -24.5 -31 q-11.5 -16.5 -19 -33.5 q-7.5 -17 -7.5 -32 q0 -19 13.5 -32.5 q13.5 -13.5 32.5 -13.5 q14 0 28.5 6 q14.5 6 25.5 15 l25 -49 q-21 -17 -46.5 -27.5 q-25.5 -10.5 -53.5 -10.5 q-20 0 -38.5 5.5 q-18.5 5.5 -33 17 q-14.5 11.5 -23 28 q-8.5 16.5 -8.5 38.5 q0 20 8.5 40.5 q8.5 20.5 22 39.5 q13.5 19 29.5 35.5 q16 16.5 32 29.5 l-399 0 l0 708 Z" /><glyph glyph-name="eogonek" unicode="&#x119;" d="M420 -196 q-21 -17 -46.5 -27.5 q-25.5 -10.5 -53.5 -10.5 q-20 0 -38.5 5.5 q-18.5 5.5 -33 17 q-14.5 11.5 -23 28 q-8.5 16.5 -8.5 38.5 q0 18 6.5 35.5 q6.5 17.5 17 34.5 q10.5 17 24.5 32.5 q14 15.5 28 28.5 q-54 1 -99.5 19 q-45.5 18 -79 50.5 q-33.5 32.5 -52 78.5 q-18.5 46 -18.5 103 q0 58 19.5 105.5 q19.5 47.5 53.5 81 q34 33.5 80.5 52 q46.5 18.5 100.5 18.5 q50 0 92.5 -16.5 q42.5 -16.5 73.5 -49 q31 -32.5 48.5 -81 q17.5 -48.5 17.5 -113.5 q0 -8 0 -16 q0 -8 -1 -16 l-365 0 q2 -26 13.5 -47.5 q11.5 -21.5 30.5 -37 q19 -15.5 43 -24.5 q24 -9 50 -9 q45 0 76 16.5 q31 16.5 51 45.5 l80 -64 q-54 -73 -146 -90 q-11 -11 -23 -25 q-12 -14 -22 -29 q-10 -15 -16 -30.5 q-6 -15.5 -6 -29.5 q0 -19 13.5 -32.5 q13.5 -13.5 32.5 -13.5 q14 0 28.5 6 q14.5 6 25.5 15 l25 -49 ZM410 288 q0 23 -6.5 44 q-6.5 21 -20.5 37 q-14 16 -35.5 25.5 q-21.5 9.5 -50.5 9.5 q-54 0 -91.5 -32.5 q-37.5 -32.5 -41.5 -83.5 l246 0 Z" /><glyph glyph-name="Ecaron" unicode="&#x11a;" d="M78 708 l469 0 l0 -110 l-343 0 l0 -180 l325 0 l0 -106 l-325 0 l0 -200 l361 0 l0 -112 l-487 0 l0 708 ZM249 908 l69 -90 l69 90 l110 0 l-115 -144 l-133 0 l-114 144 l114 0 Z" /><glyph glyph-name="ecaron" unicode="&#x11b;" d="M410 288 q0 23 -6.5 44 q-6.5 21 -20.5 37 q-14 16 -35.5 25.5 q-21.5 9.5 -50.5 9.5 q-54 0 -91.5 -32.5 q-37.5 -32.5 -41.5 -83.5 l246 0 ZM530 234 q0 -8 0 -16 q0 -8 -1 -16 l-365 0 q2 -26 13.5 -47.5 q11.5 -21.5 30.5 -37 q19 -15.5 43 -24.5 q24 -9 50 -9 q45 0 76 16.5 q31 16.5 51 45.5 l80 -64 q-71 -96 -206 -96 q-56 0 -103 17.5 q-47 17.5 -81.5 49.5 q-34.5 32 -54 78.5 q-19.5 46.5 -19.5 105.5 q0 58 19.5 105.5 q19.5 47.5 53.5 81 q34 33.5 80.5 52 q46.5 18.5 100.5 18.5 q50 0 92.5 -16.5 q42.5 -16.5 73.5 -49 q31 -32.5 48.5 -81 q17.5 -48.5 17.5 -113.5 ZM234 708 l69 -90 l69 90 l110 0 l-115 -144 l-133 0 l-114 144 l114 0 Z" /><glyph glyph-name="Gcircumflex" unicode="&#x11c;" d="M698 37 q-54 -26 -118.5 -40.5 q-64.5 -14.5 -148.5 -14.5 q-86 0 -157 27.5 q-71 27.5 -122 77 q-51 49.5 -79.5 118 q-28.5 68.5 -28.5 151.5 q0 85 29.5 153.5 q29.5 68.5 81 116.5 q51.5 48 121.5 74 q70 26 152 26 q85 0 155.5 -24.5 q70.5 -24.5 113.5 -64.5 l-87 -94 q-27 30 -75.5 51 q-48.5 21 -105.5 21 q-56 0 -101.5 -20 q-45.5 -20 -77.5 -55 q-32 -35 -49.5 -82 q-17.5 -47 -17.5 -102 q0 -57 17.5 -104.5 q17.5 -47.5 50 -82.5 q32.5 -35 79 -54.5 q46.5 -19.5 105.5 -19.5 q81 0 141 25 l0 180 l-149 0 l0 104 l271 0 l0 -367 ZM499 764 l-69 90 l-69 -90 l-112 0 l115 144 l135 0 l114 -144 l-114 0 Z" /><glyph glyph-name="gcircumflex" unicode="&#x11d;" d="M560 480 l0 -437 q0 -65 -16 -117.5 q-16 -52.5 -49.5 -89 q-33.5 -36.5 -84.5 -56.5 q-51 -20 -121 -20 q-29 0 -61.5 5 q-32.5 5 -64 15 q-31.5 10 -60.5 25 q-29 15 -52 34 l69 93 q35 -33 79 -50.5 q44 -17.5 89 -17.5 q43 0 72.5 12.5 q29.5 12.5 47 34.5 q17.5 22 25 52 q7.5 30 7.5 66 l0 35 l-2 0 q-26 -35 -66.5 -53.5 q-40.5 -18.5 -90.5 -18.5 q-54 0 -98 20 q-44 20 -74.5 54 q-30.5 34 -47.5 79.5 q-17 45.5 -17 96.5 q0 52 16.5 98 q16.5 46 47 80 q30.5 34 74 54 q43.5 20 97.5 20 q51 0 95 -21 q44 -21 70 -65 l2 0 l0 72 l114 0 ZM304 396 q-33 0 -58.5 -12 q-25.5 -12 -43 -32.5 q-17.5 -20.5 -27 -48.5 q-9.5 -28 -9.5 -60 q0 -29 9.5 -56 q9.5 -27 27 -48.5 q17.5 -21.5 43 -34.5 q25.5 -13 57.5 -13 q33 0 59.5 12.5 q26.5 12.5 45 33.5 q18.5 21 28.5 48.5 q10 27.5 10 57.5 q0 31 -10 59 q-10 28 -28.5 49 q-18.5 21 -44.5 33 q-26 12 -59 12 ZM393 564 l-69 90 l-69 -90 l-112 0 l115 144 l135 0 l114 -144 l-114 0 Z" /><glyph glyph-name="Gbreve" unicode="&#x11e;" d="M698 37 q-54 -26 -118.5 -40.5 q-64.5 -14.5 -148.5 -14.5 q-86 0 -157 27.5 q-71 27.5 -122 77 q-51 49.5 -79.5 118 q-28.5 68.5 -28.5 151.5 q0 85 29.5 153.5 q29.5 68.5 81 116.5 q51.5 48 121.5 74 q70 26 152 26 q85 0 155.5 -24.5 q70.5 -24.5 113.5 -64.5 l-87 -94 q-27 30 -75.5 51 q-48.5 21 -105.5 21 q-56 0 -101.5 -20 q-45.5 -20 -77.5 -55 q-32 -35 -49.5 -82 q-17.5 -47 -17.5 -102 q0 -57 17.5 -104.5 q17.5 -47.5 50 -82.5 q32.5 -35 79 -54.5 q46.5 -19.5 105.5 -19.5 q81 0 141 25 l0 180 l-149 0 l0 104 l271 0 l0 -367 ZM327 908 q7 -38 36 -52 q29 -14 67 -14 q43 0 68 12 q25 12 36 54 l66 0 q-8 -74 -53.5 -109 q-45.5 -35 -117.5 -35 q-72 0 -118 34.5 q-46 34.5 -51 109.5 l67 0 Z" /><glyph glyph-name="gbreve" unicode="&#x11f;" d="M560 480 l0 -437 q0 -65 -16 -117.5 q-16 -52.5 -49.5 -89 q-33.5 -36.5 -84.5 -56.5 q-51 -20 -121 -20 q-29 0 -61.5 5 q-32.5 5 -64 15 q-31.5 10 -60.5 25 q-29 15 -52 34 l69 93 q35 -33 79 -50.5 q44 -17.5 89 -17.5 q43 0 72.5 12.5 q29.5 12.5 47 34.5 q17.5 22 25 52 q7.5 30 7.5 66 l0 35 l-2 0 q-26 -35 -66.5 -53.5 q-40.5 -18.5 -90.5 -18.5 q-54 0 -98 20 q-44 20 -74.5 54 q-30.5 34 -47.5 79.5 q-17 45.5 -17 96.5 q0 52 16.5 98 q16.5 46 47 80 q30.5 34 74 54 q43.5 20 97.5 20 q51 0 95 -21 q44 -21 70 -65 l2 0 l0 72 l114 0 ZM304 396 q-33 0 -58.5 -12 q-25.5 -12 -43 -32.5 q-17.5 -20.5 -27 -48.5 q-9.5 -28 -9.5 -60 q0 -29 9.5 -56 q9.5 -27 27 -48.5 q17.5 -21.5 43 -34.5 q25.5 -13 57.5 -13 q33 0 59.5 12.5 q26.5 12.5 45 33.5 q18.5 21 28.5 48.5 q10 27.5 10 57.5 q0 31 -10 59 q-10 28 -28.5 49 q-18.5 21 -44.5 33 q-26 12 -59 12 ZM210 708 q7 -38 36 -52 q29 -14 67 -14 q43 0 68 12 q25 12 36 54 l66 0 q-8 -74 -53.5 -109 q-45.5 -35 -117.5 -35 q-72 0 -118 34.5 q-46 34.5 -51 109.5 l67 0 Z" /><glyph glyph-name="Gdotaccent" unicode="&#x120;" d="M698 37 q-54 -26 -118.5 -40.5 q-64.5 -14.5 -148.5 -14.5 q-86 0 -157 27.5 q-71 27.5 -122 77 q-51 49.5 -79.5 118 q-28.5 68.5 -28.5 151.5 q0 85 29.5 153.5 q29.5 68.5 81 116.5 q51.5 48 121.5 74 q70 26 152 26 q85 0 155.5 -24.5 q70.5 -24.5 113.5 -64.5 l-87 -94 q-27 30 -75.5 51 q-48.5 21 -105.5 21 q-56 0 -101.5 -20 q-45.5 -20 -77.5 -55 q-32 -35 -49.5 -82 q-17.5 -47 -17.5 -102 q0 -57 17.5 -104.5 q17.5 -47.5 50 -82.5 q32.5 -35 79 -54.5 q46.5 -19.5 105.5 -19.5 q81 0 141 25 l0 180 l-149 0 l0 104 l271 0 l0 -367 ZM354 843 q0 29 21.5 50.5 q21.5 21.5 54.5 21.5 q33 0 55.5 -20.5 q22.5 -20.5 22.5 -51.5 q0 -31 -22.5 -51.5 q-22.5 -20.5 -55.5 -20.5 q-33 0 -54.5 21.5 q-21.5 21.5 -21.5 50.5 Z" /><glyph glyph-name="gdotaccent" unicode="&#x121;" d="M560 480 l0 -437 q0 -65 -16 -117.5 q-16 -52.5 -49.5 -89 q-33.5 -36.5 -84.5 -56.5 q-51 -20 -121 -20 q-29 0 -61.5 5 q-32.5 5 -64 15 q-31.5 10 -60.5 25 q-29 15 -52 34 l69 93 q35 -33 79 -50.5 q44 -17.5 89 -17.5 q43 0 72.5 12.5 q29.5 12.5 47 34.5 q17.5 22 25 52 q7.5 30 7.5 66 l0 35 l-2 0 q-26 -35 -66.5 -53.5 q-40.5 -18.5 -90.5 -18.5 q-54 0 -98 20 q-44 20 -74.5 54 q-30.5 34 -47.5 79.5 q-17 45.5 -17 96.5 q0 52 16.5 98 q16.5 46 47 80 q30.5 34 74 54 q43.5 20 97.5 20 q51 0 95 -21 q44 -21 70 -65 l2 0 l0 72 l114 0 ZM304 396 q-33 0 -58.5 -12 q-25.5 -12 -43 -32.5 q-17.5 -20.5 -27 -48.5 q-9.5 -28 -9.5 -60 q0 -29 9.5 -56 q9.5 -27 27 -48.5 q17.5 -21.5 43 -34.5 q25.5 -13 57.5 -13 q33 0 59.5 12.5 q26.5 12.5 45 33.5 q18.5 21 28.5 48.5 q10 27.5 10 57.5 q0 31 -10 59 q-10 28 -28.5 49 q-18.5 21 -44.5 33 q-26 12 -59 12 ZM239 643 q0 29 21.5 50.5 q21.5 21.5 54.5 21.5 q33 0 55.5 -20.5 q22.5 -20.5 22.5 -51.5 q0 -31 -22.5 -51.5 q-22.5 -20.5 -55.5 -20.5 q-33 0 -54.5 21.5 q-21.5 21.5 -21.5 50.5 Z" /><glyph glyph-name="Gcommaaccent" unicode="&#x122;" d="M698 37 q-54 -26 -118.5 -40.5 q-64.5 -14.5 -148.5 -14.5 q-86 0 -157 27.5 q-71 27.5 -122 77 q-51 49.5 -79.5 118 q-28.5 68.5 -28.5 151.5 q0 85 29.5 153.5 q29.5 68.5 81 116.5 q51.5 48 121.5 74 q70 26 152 26 q85 0 155.5 -24.5 q70.5 -24.5 113.5 -64.5 l-87 -94 q-27 30 -75.5 51 q-48.5 21 -105.5 21 q-56 0 -101.5 -20 q-45.5 -20 -77.5 -55 q-32 -35 -49.5 -82 q-17.5 -47 -17.5 -102 q0 -57 17.5 -104.5 q17.5 -47.5 50 -82.5 q32.5 -35 79 -54.5 q46.5 -19.5 105.5 -19.5 q81 0 141 25 l0 180 l-149 0 l0 104 l271 0 l0 -367 ZM386 -45 l106 0 l-80 -195 l-91 0 l65 195 Z" /><glyph glyph-name="gcommaaccent" unicode="&#x123;" d="M560 480 l0 -437 q0 -65 -16 -117.5 q-16 -52.5 -49.5 -89 q-33.5 -36.5 -84.5 -56.5 q-51 -20 -121 -20 q-29 0 -61.5 5 q-32.5 5 -64 15 q-31.5 10 -60.5 25 q-29 15 -52 34 l69 93 q35 -33 79 -50.5 q44 -17.5 89 -17.5 q43 0 72.5 12.5 q29.5 12.5 47 34.5 q17.5 22 25 52 q7.5 30 7.5 66 l0 35 l-2 0 q-26 -35 -66.5 -53.5 q-40.5 -18.5 -90.5 -18.5 q-54 0 -98 20 q-44 20 -74.5 54 q-30.5 34 -47.5 79.5 q-17 45.5 -17 96.5 q0 52 16.5 98 q16.5 46 47 80 q30.5 34 74 54 q43.5 20 97.5 20 q51 0 95 -21 q44 -21 70 -65 l2 0 l0 72 l114 0 ZM304 396 q-33 0 -58.5 -12 q-25.5 -12 -43 -32.5 q-17.5 -20.5 -27 -48.5 q-9.5 -28 -9.5 -60 q0 -29 9.5 -56 q9.5 -27 27 -48.5 q17.5 -21.5 43 -34.5 q25.5 -13 57.5 -13 q33 0 59.5 12.5 q26.5 12.5 45 33.5 q18.5 21 28.5 48.5 q10 27.5 10 57.5 q0 31 -10 59 q-10 28 -28.5 49 q-18.5 21 -44.5 33 q-26 12 -59 12 ZM335 564 l-106 0 l80 195 l91 0 l-65 -195 Z" /><glyph glyph-name="Hcircumflex" unicode="&#x124;" d="M78 708 l126 0 l0 -286 l331 0 l0 286 l126 0 l0 -708 l-126 0 l0 314 l-331 0 l0 -314 l-126 0 l0 708 ZM439 764 l-69 90 l-69 -90 l-112 0 l115 144 l135 0 l114 -144 l-114 0 Z" /><glyph glyph-name="hcircumflex" unicode="&#x125;" d="M339 494 q47 0 80.5 -16.5 q33.5 -16.5 55 -43.5 q21.5 -27 31.5 -62 q10 -35 10 -72 l0 -300 l-120 0 l0 264 q0 21 -3 43.5 q-3 22.5 -12.5 41 q-9.5 18.5 -27 30.5 q-17.5 12 -46.5 12 q-29 0 -50 -11 q-21 -11 -35 -29.5 q-14 -18.5 -21 -41.5 q-7 -23 -7 -47 l0 -262 l-120 0 l0 756 l120 0 l0 -343 l2 0 q7 15 20.5 29.5 q13.5 14.5 31.5 26 q18 11.5 41 18.5 q23 7 50 7 ZM362 796 l-69 90 l-69 -90 l-112 0 l115 144 l135 0 l114 -144 l-114 0 Z" /><glyph glyph-name="Hbar" unicode="&#x126;" d="M78 708 l126 0 l0 -133 l331 0 l0 133 l126 0 l0 -708 l-126 0 l0 314 l-331 0 l0 -314 l-126 0 l0 708 ZM535 422 l0 78 l-331 0 l0 -78 l331 0 Z" /><glyph glyph-name="hbar" unicode="&#x127;" d="M364 570 l-170 0 l0 -157 l2 0 q7 15 20.5 29.5 q13.5 14.5 31.5 26 q18 11.5 41 18.5 q23 7 50 7 q47 0 80.5 -16.5 q33.5 -16.5 55 -43.5 q21.5 -27 31.5 -62 q10 -35 10 -72 l0 -300 l-120 0 l0 264 q0 21 -3 43.5 q-3 22.5 -12.5 41 q-9.5 18.5 -27 30.5 q-17.5 12 -46.5 12 q-29 0 -50 -11 q-21 -11 -35 -29.5 q-14 -18.5 -21 -41.5 q-7 -23 -7 -47 l0 -262 l-120 0 l0 570 l-54 0 l0 75 l54 0 l0 111 l120 0 l0 -111 l170 0 l0 -75 Z" /><glyph glyph-name="Itilde" unicode="&#x128;" d="M78 708 l126 0 l0 -708 l-126 0 l0 708 ZM-43 768 q4 24 11.5 47 q7.5 23 20.5 40.5 q13 17.5 32.5 28.5 q19.5 11 47.5 11 q20 0 40.5 -5 q20.5 -5 38.5 -13 q20 -8 36.5 -13.5 q16.5 -5.5 28.5 -5.5 q20 0 30.5 12.5 q10.5 12.5 15.5 29.5 l66 0 q-4 -24 -11.5 -47 q-7.5 -23 -20.5 -40.5 q-13 -17.5 -32.5 -28.5 q-19.5 -11 -47.5 -11 q-21 0 -42 6 q-21 6 -40 14 q-18 8 -34 13 q-16 5 -28 5 q-20 0 -30.5 -13 q-10.5 -13 -15.5 -30 l-66 0 Z" /><glyph glyph-name="itilde" unicode="&#x129;" d="M74 480 l120 0 l0 -480 l-120 0 l0 480 ZM-48 568 q4 24 11.5 47 q7.5 23 20.5 40.5 q13 17.5 32.5 28.5 q19.5 11 47.5 11 q20 0 40.5 -5 q20.5 -5 38.5 -13 q20 -8 36.5 -13.5 q16.5 -5.5 28.5 -5.5 q20 0 30.5 12.5 q10.5 12.5 15.5 29.5 l66 0 q-4 -24 -11.5 -47 q-7.5 -23 -20.5 -40.5 q-13 -17.5 -32.5 -28.5 q-19.5 -11 -47.5 -11 q-21 0 -42 6 q-21 6 -40 14 q-18 8 -34 13 q-16 5 -28 5 q-20 0 -30.5 -13 q-10.5 -13 -15.5 -30 l-66 0 Z" /><glyph glyph-name="Imacron" unicode="&#x12a;" d="M78 708 l126 0 l0 -708 l-126 0 l0 708 ZM301 795 l-320 0 l0 78 l320 0 l0 -78 Z" /><glyph glyph-name="imacron" unicode="&#x12b;" d="M74 480 l120 0 l0 -480 l-120 0 l0 480 ZM296 595 l-320 0 l0 78 l320 0 l0 -78 Z" /><glyph glyph-name="Iogonek" unicode="&#x12e;" d="M78 708 l126 0 l0 -708 l-13 0 q-12 -11 -25 -25.5 q-13 -14.5 -24.5 -31 q-11.5 -16.5 -19 -33.5 q-7.5 -17 -7.5 -32 q0 -19 13.5 -32.5 q13.5 -13.5 32.5 -13.5 q14 0 28.5 6 q14.5 6 25.5 15 l25 -49 q-21 -17 -46.5 -27.5 q-25.5 -10.5 -53.5 -10.5 q-20 0 -38.5 5.5 q-18.5 5.5 -33 17 q-14.5 11.5 -23 28 q-8.5 16.5 -8.5 38.5 q0 20 8.5 40.5 q8.5 20.5 22 39.5 q13.5 19 29.5 35.5 q16 16.5 32 29.5 l-51 0 l0 708 Z" /><glyph glyph-name="iogonek" unicode="&#x12f;" d="M74 480 l120 0 l0 -480 l-19 0 q-12 -11 -25 -25.5 q-13 -14.5 -24.5 -31 q-11.5 -16.5 -19 -33.5 q-7.5 -17 -7.5 -32 q0 -19 13.5 -32.5 q13.5 -13.5 32.5 -13.5 q14 0 28.5 6 q14.5 6 25.5 15 l25 -49 q-21 -17 -46.5 -27.5 q-25.5 -10.5 -53.5 -10.5 q-20 0 -38.5 5.5 q-18.5 5.5 -33 17 q-14.5 11.5 -23 28 q-8.5 16.5 -8.5 38.5 q0 20 8.5 40.5 q8.5 20.5 22 39.5 q13.5 19 29.5 35.5 q16 16.5 32 29.5 l-39 0 l0 480 ZM57 643 q0 29 21.5 50.5 q21.5 21.5 54.5 21.5 q33 0 55.5 -20.5 q22.5 -20.5 22.5 -51.5 q0 -31 -22.5 -51.5 q-22.5 -20.5 -55.5 -20.5 q-33 0 -54.5 21.5 q-21.5 21.5 -21.5 50.5 Z" /><glyph glyph-name="Idotaccent" unicode="&#x130;" d="M78 708 l126 0 l0 -708 l-126 0 l0 708 ZM63 843 q0 29 21.5 50.5 q21.5 21.5 54.5 21.5 q33 0 55.5 -20.5 q22.5 -20.5 22.5 -51.5 q0 -31 -22.5 -51.5 q-22.5 -20.5 -55.5 -20.5 q-33 0 -54.5 21.5 q-21.5 21.5 -21.5 50.5 Z" /><glyph glyph-name="dotlessi" unicode="&#x131;" d="M74 480 l120 0 l0 -480 l-120 0 l0 480 Z" /><glyph glyph-name="IJ" unicode="&#x132;" d="M78 708 l126 0 l0 -708 l-126 0 l0 708 ZM698 229 q0 -39 -8.5 -82 q-8.5 -43 -31.5 -80 q-23 -37 -65 -61 q-42 -24 -108 -24 q-86 0 -137.5 43 q-51.5 43 -70.5 113 l116 33 q9 -35 33 -55.5 q24 -20.5 57 -20.5 q27 0 44.5 10 q17.5 10 27 28.5 q9.5 18.5 13.5 44 q4 25.5 4 55.5 l0 475 l126 0 l0 -479 Z" /><glyph glyph-name="ij" unicode="&#x133;" d="M74 480 l120 0 l0 -480 l-120 0 l0 480 ZM57 643 q0 29 21.5 50.5 q21.5 21.5 54.5 21.5 q33 0 55.5 -20.5 q22.5 -20.5 22.5 -51.5 q0 -31 -22.5 -51.5 q-22.5 -20.5 -55.5 -20.5 q-33 0 -54.5 21.5 q-21.5 21.5 -21.5 50.5 ZM462 480 l0 -509 q0 -43 -7 -81.5 q-7 -38.5 -26.5 -67 q-19.5 -28.5 -53 -45.5 q-33.5 -17 -87.5 -17 q-15 0 -30 2 q-15 2 -24 4 l10 102 q8 -2 17 -3 q9 -1 16 -1 q21 0 34 8 q13 8 20 22 q7 14 9 32.5 q2 18.5 2 39.5 l0 514 l120 0 ZM325 643 q0 29 21.5 50.5 q21.5 21.5 54.5 21.5 q33 0 55.5 -20.5 q22.5 -20.5 22.5 -51.5 q0 -31 -22.5 -51.5 q-22.5 -20.5 -55.5 -20.5 q-33 0 -54.5 21.5 q-21.5 21.5 -21.5 50.5 Z" /><glyph glyph-name="Jcircumflex" unicode="&#x134;" d="M426 229 q0 -39 -8.5 -82 q-8.5 -43 -31.5 -80 q-23 -37 -65 -61 q-42 -24 -108 -24 q-86 0 -137.5 43 q-51.5 43 -70.5 113 l116 33 q9 -35 33 -55.5 q24 -20.5 57 -20.5 q27 0 44.5 10 q17.5 10 27 28.5 q9.5 18.5 13.5 44 q4 25.5 4 55.5 l0 475 l126 0 l0 -479 ZM430 764 l-69 90 l-69 -90 l-112 0 l115 144 l135 0 l114 -144 l-114 0 Z" /><glyph glyph-name="jcircumflex" unicode="&#x135;" d="M194 480 l0 -509 q0 -43 -7 -81.5 q-7 -38.5 -26.5 -67 q-19.5 -28.5 -53 -45.5 q-33.5 -17 -87.5 -17 q-15 0 -30 2 q-15 2 -24 4 l10 102 q8 -2 17 -3 q9 -1 16 -1 q21 0 34 8 q13 8 20 22 q7 14 9 32.5 q2 18.5 2 39.5 l0 514 l120 0 ZM202 564 l-69 90 l-69 -90 l-112 0 l115 144 l135 0 l114 -144 l-114 0 Z" /><glyph glyph-name="Kcommaaccent" unicode="&#x136;" d="M78 708 l126 0 l0 -306 l3 0 l296 306 l170 0 l-331 -327 l353 -381 l-177 0 l-311 355 l-3 0 l0 -355 l-126 0 l0 708 ZM314 -45 l106 0 l-80 -195 l-91 0 l65 195 Z" /><glyph glyph-name="kcommaaccent" unicode="&#x137;" d="M74 756 l120 0 l0 -478 l3 0 l182 202 l154 0 l-208 -217 l221 -263 l-159 0 l-190 246 l-3 0 l0 -246 l-120 0 l0 756 ZM246 -45 l106 0 l-80 -195 l-91 0 l65 195 Z" /><glyph glyph-name="Lacute" unicode="&#x139;" d="M78 708 l126 0 l0 -596 l301 0 l0 -112 l-427 0 l0 708 ZM192 908 l136 0 l-141 -144 l-94 0 l99 144 Z" /><glyph glyph-name="lacute" unicode="&#x13a;" d="M74 756 l120 0 l0 -756 l-120 0 l0 756 ZM173 936 l136 0 l-141 -144 l-94 0 l99 144 Z" /><glyph glyph-name="Lcommaaccent" unicode="&#x13b;" d="M78 708 l126 0 l0 -596 l301 0 l0 -112 l-427 0 l0 708 ZM252 -45 l106 0 l-80 -195 l-91 0 l65 195 Z" /><glyph glyph-name="lcommaaccent" unicode="&#x13c;" d="M74 756 l120 0 l0 -756 l-120 0 l0 756 ZM94 -45 l106 0 l-80 -195 l-91 0 l65 195 Z" /><glyph glyph-name="Lcaron" unicode="&#x13d;" d="M78 708 l126 0 l0 -596 l301 0 l0 -112 l-427 0 l0 708 ZM331 708 l106 0 l-80 -195 l-91 0 l65 195 Z" /><glyph glyph-name="lcaron" unicode="&#x13e;" d="M74 756 l120 0 l0 -756 l-120 0 l0 756 ZM284 708 l106 0 l-80 -195 l-91 0 l65 195 Z" /><glyph glyph-name="Ldot" unicode="&#x13f;" d="M78 708 l126 0 l0 -596 l301 0 l0 -112 l-427 0 l0 708 ZM317 343 q0 29 21.5 50.5 q21.5 21.5 54.5 21.5 q33 0 55.5 -20.5 q22.5 -20.5 22.5 -51.5 q0 -31 -22.5 -51.5 q-22.5 -20.5 -55.5 -20.5 q-33 0 -54.5 21.5 q-21.5 21.5 -21.5 50.5 Z" /><glyph glyph-name="ldot" unicode="&#x140;" d="M74 756 l120 0 l0 -756 l-120 0 l0 756 ZM251 343 q0 29 21.5 50.5 q21.5 21.5 54.5 21.5 q33 0 55.5 -20.5 q22.5 -20.5 22.5 -51.5 q0 -31 -22.5 -51.5 q-22.5 -20.5 -55.5 -20.5 q-33 0 -54.5 21.5 q-21.5 21.5 -21.5 50.5 Z" /><glyph glyph-name="Lslash" unicode="&#x141;" d="M78 201 l-70 -62 l0 110 l70 62 l0 397 l126 0 l0 -300 l206 181 l0 -109 l-206 -182 l0 -186 l301 0 l0 -112 l-427 0 l0 201 Z" /><glyph glyph-name="lslash" unicode="&#x142;" d="M74 298 l-69 -69 l0 109 l69 69 l0 349 l120 0 l0 -255 l69 69 l0 -107 l-69 -68 l0 -395 l-120 0 l0 298 Z" /><glyph glyph-name="Nacute" unicode="&#x143;" d="M78 708 l167 0 l329 -530 l2 0 l0 530 l126 0 l0 -708 l-160 0 l-336 547 l-2 0 l0 -547 l-126 0 l0 708 ZM408 908 l136 0 l-141 -144 l-94 0 l99 144 Z" /><glyph glyph-name="nacute" unicode="&#x144;" d="M72 480 l114 0 l0 -77 l2 0 q16 36 55.5 63.5 q39.5 27.5 93.5 27.5 q47 0 80.5 -16.5 q33.5 -16.5 55 -43.5 q21.5 -27 31.5 -62 q10 -35 10 -72 l0 -300 l-120 0 l0 266 q0 21 -3 44 q-3 23 -13 41.5 q-10 18.5 -27.5 30.5 q-17.5 12 -46.5 12 q-29 0 -50 -11.5 q-21 -11.5 -34.5 -29.5 q-13.5 -18 -20.5 -41.5 q-7 -23.5 -7 -47.5 l0 -264 l-120 0 l0 480 ZM316 708 l136 0 l-141 -144 l-94 0 l99 144 Z" /><glyph glyph-name="Ncommaaccent" unicode="&#x145;" d="M78 708 l167 0 l329 -530 l2 0 l0 530 l126 0 l0 -708 l-160 0 l-336 547 l-2 0 l0 -547 l-126 0 l0 708 ZM354 -45 l106 0 l-80 -195 l-91 0 l65 195 Z" /><glyph glyph-name="ncommaaccent" unicode="&#x146;" d="M72 480 l114 0 l0 -77 l2 0 q16 36 55.5 63.5 q39.5 27.5 93.5 27.5 q47 0 80.5 -16.5 q33.5 -16.5 55 -43.5 q21.5 -27 31.5 -62 q10 -35 10 -72 l0 -300 l-120 0 l0 266 q0 21 -3 44 q-3 23 -13 41.5 q-10 18.5 -27.5 30.5 q-17.5 12 -46.5 12 q-29 0 -50 -11.5 q-21 -11.5 -34.5 -29.5 q-13.5 -18 -20.5 -41.5 q-7 -23.5 -7 -47.5 l0 -264 l-120 0 l0 480 ZM254 -45 l106 0 l-80 -195 l-91 0 l65 195 Z" /><glyph glyph-name="Ncaron" unicode="&#x147;" d="M78 708 l167 0 l329 -530 l2 0 l0 530 l126 0 l0 -708 l-160 0 l-336 547 l-2 0 l0 -547 l-126 0 l0 708 ZM322 908 l69 -90 l69 90 l110 0 l-115 -144 l-133 0 l-114 144 l114 0 Z" /><glyph glyph-name="ncaron" unicode="&#x148;" d="M72 480 l114 0 l0 -77 l2 0 q16 36 55.5 63.5 q39.5 27.5 93.5 27.5 q47 0 80.5 -16.5 q33.5 -16.5 55 -43.5 q21.5 -27 31.5 -62 q10 -35 10 -72 l0 -300 l-120 0 l0 266 q0 21 -3 44 q-3 23 -13 41.5 q-10 18.5 -27.5 30.5 q-17.5 12 -46.5 12 q-29 0 -50 -11.5 q-21 -11.5 -34.5 -29.5 q-13.5 -18 -20.5 -41.5 q-7 -23.5 -7 -47.5 l0 -264 l-120 0 l0 480 ZM221 708 l69 -90 l69 90 l110 0 l-115 -144 l-133 0 l-114 144 l114 0 Z" /><glyph glyph-name="napostrophe" unicode="&#x149;" d="M112 480 l114 0 l0 -77 l2 0 q16 36 55.5 63.5 q39.5 27.5 93.5 27.5 q47 0 80.5 -16.5 q33.5 -16.5 55 -43.5 q21.5 -27 31.5 -62 q10 -35 10 -72 l0 -300 l-120 0 l0 266 q0 21 -3 44 q-3 23 -13 41.5 q-10 18.5 -27.5 30.5 q-17.5 12 -46.5 12 q-29 0 -50 -11.5 q-21 -11.5 -34.5 -29.5 q-13.5 -18 -20.5 -41.5 q-7 -23.5 -7 -47.5 l0 -264 l-120 0 l0 480 ZM42 708 l106 0 l-80 -195 l-91 0 l65 195 Z" /><glyph glyph-name="Omacron" unicode="&#x14c;" d="M44 356 q0 85 28.5 153.5 q28.5 68.5 79 116.5 q50.5 48 120 74 q69.5 26 151.5 26 q83 0 153 -26 q70 -26 121 -74 q51 -48 79.5 -116.5 q28.5 -68.5 28.5 -153.5 q0 -83 -28.5 -151.5 q-28.5 -68.5 -79.5 -118 q-51 -49.5 -121 -77 q-70 -27.5 -153 -27.5 q-82 0 -151.5 27.5 q-69.5 27.5 -120 77 q-50.5 49.5 -79 118 q-28.5 68.5 -28.5 151.5 ZM181 356 q0 -57 17.5 -104.5 q17.5 -47.5 50 -82.5 q32.5 -35 77 -54.5 q44.5 -19.5 98.5 -19.5 q54 0 99 19.5 q45 19.5 77.5 54.5 q32.5 35 50 82.5 q17.5 47.5 17.5 104.5 q0 55 -17.5 102 q-17.5 47 -49.5 82 q-32 35 -77 55 q-45 20 -100 20 q-55 0 -99.5 -20 q-44.5 -20 -76.5 -55 q-32 -35 -49.5 -82 q-17.5 -47 -17.5 -102 ZM585 795 l-320 0 l0 78 l320 0 l0 -78 Z" /><glyph glyph-name="omacron" unicode="&#x14d;" d="M44 242 q0 57 20.5 103.5 q20.5 46.5 55.5 79.5 q35 33 83 51 q48 18 102 18 q54 0 102 -18 q48 -18 83 -51 q35 -33 55.5 -79.5 q20.5 -46.5 20.5 -103.5 q0 -57 -20.5 -104 q-20.5 -47 -55.5 -80.5 q-35 -33.5 -83 -52.5 q-48 -19 -102 -19 q-54 0 -102 19 q-48 19 -83 52.5 q-35 33.5 -55.5 80.5 q-20.5 47 -20.5 104 ZM166 242 q0 -28 8.5 -56 q8.5 -28 25.5 -50 q17 -22 43 -36 q26 -14 62 -14 q36 0 62 14 q26 14 43 36 q17 22 25.5 50 q8.5 28 8.5 56 q0 28 -8.5 55.5 q-8.5 27.5 -25.5 49.5 q-17 22 -43 35.5 q-26 13.5 -62 13.5 q-36 0 -62 -13.5 q-26 -13.5 -43 -35.5 q-17 -22 -25.5 -49.5 q-8.5 -27.5 -8.5 -55.5 ZM465 595 l-320 0 l0 78 l320 0 l0 -78 Z" /><glyph glyph-name="Obreve" unicode="&#x14e;" d="M44 356 q0 85 28.5 153.5 q28.5 68.5 79 116.5 q50.5 48 120 74 q69.5 26 151.5 26 q83 0 153 -26 q70 -26 121 -74 q51 -48 79.5 -116.5 q28.5 -68.5 28.5 -153.5 q0 -83 -28.5 -151.5 q-28.5 -68.5 -79.5 -118 q-51 -49.5 -121 -77 q-70 -27.5 -153 -27.5 q-82 0 -151.5 27.5 q-69.5 27.5 -120 77 q-50.5 49.5 -79 118 q-28.5 68.5 -28.5 151.5 ZM181 356 q0 -57 17.5 -104.5 q17.5 -47.5 50 -82.5 q32.5 -35 77 -54.5 q44.5 -19.5 98.5 -19.5 q54 0 99 19.5 q45 19.5 77.5 54.5 q32.5 35 50 82.5 q17.5 47.5 17.5 104.5 q0 55 -17.5 102 q-17.5 47 -49.5 82 q-32 35 -77 55 q-45 20 -100 20 q-55 0 -99.5 -20 q-44.5 -20 -76.5 -55 q-32 -35 -49.5 -82 q-17.5 -47 -17.5 -102 ZM322 908 q7 -38 36 -52 q29 -14 67 -14 q43 0 68 12 q25 12 36 54 l66 0 q-8 -74 -53.5 -109 q-45.5 -35 -117.5 -35 q-72 0 -118 34.5 q-46 34.5 -51 109.5 l67 0 Z" /><glyph glyph-name="obreve" unicode="&#x14f;" d="M44 242 q0 57 20.5 103.5 q20.5 46.5 55.5 79.5 q35 33 83 51 q48 18 102 18 q54 0 102 -18 q48 -18 83 -51 q35 -33 55.5 -79.5 q20.5 -46.5 20.5 -103.5 q0 -57 -20.5 -104 q-20.5 -47 -55.5 -80.5 q-35 -33.5 -83 -52.5 q-48 -19 -102 -19 q-54 0 -102 19 q-48 19 -83 52.5 q-35 33.5 -55.5 80.5 q-20.5 47 -20.5 104 ZM166 242 q0 -28 8.5 -56 q8.5 -28 25.5 -50 q17 -22 43 -36 q26 -14 62 -14 q36 0 62 14 q26 14 43 36 q17 22 25.5 50 q8.5 28 8.5 56 q0 28 -8.5 55.5 q-8.5 27.5 -25.5 49.5 q-17 22 -43 35.5 q-26 13.5 -62 13.5 q-36 0 -62 -13.5 q-26 -13.5 -43 -35.5 q-17 -22 -25.5 -49.5 q-8.5 -27.5 -8.5 -55.5 ZM202 708 q7 -38 36 -52 q29 -14 67 -14 q43 0 68 12 q25 12 36 54 l66 0 q-8 -74 -53.5 -109 q-45.5 -35 -117.5 -35 q-72 0 -118 34.5 q-46 34.5 -51 109.5 l67 0 Z" /><glyph glyph-name="Ohungarumlaut" unicode="&#x150;" d="M44 356 q0 85 28.5 153.5 q28.5 68.5 79 116.5 q50.5 48 120 74 q69.5 26 151.5 26 q83 0 153 -26 q70 -26 121 -74 q51 -48 79.5 -116.5 q28.5 -68.5 28.5 -153.5 q0 -83 -28.5 -151.5 q-28.5 -68.5 -79.5 -118 q-51 -49.5 -121 -77 q-70 -27.5 -153 -27.5 q-82 0 -151.5 27.5 q-69.5 27.5 -120 77 q-50.5 49.5 -79 118 q-28.5 68.5 -28.5 151.5 ZM181 356 q0 -57 17.5 -104.5 q17.5 -47.5 50 -82.5 q32.5 -35 77 -54.5 q44.5 -19.5 98.5 -19.5 q54 0 99 19.5 q45 19.5 77.5 54.5 q32.5 35 50 82.5 q17.5 47.5 17.5 104.5 q0 55 -17.5 102 q-17.5 47 -49.5 82 q-32 35 -77 55 q-45 20 -100 20 q-55 0 -99.5 -20 q-44.5 -20 -76.5 -55 q-32 -35 -49.5 -82 q-17.5 -47 -17.5 -102 ZM371 908 l136 0 l-141 -144 l-94 0 l99 144 ZM576 908 l136 0 l-141 -144 l-94 0 l99 144 Z" /><glyph glyph-name="ohungarumlaut" unicode="&#x151;" d="M44 242 q0 57 20.5 103.5 q20.5 46.5 55.5 79.5 q35 33 83 51 q48 18 102 18 q54 0 102 -18 q48 -18 83 -51 q35 -33 55.5 -79.5 q20.5 -46.5 20.5 -103.5 q0 -57 -20.5 -104 q-20.5 -47 -55.5 -80.5 q-35 -33.5 -83 -52.5 q-48 -19 -102 -19 q-54 0 -102 19 q-48 19 -83 52.5 q-35 33.5 -55.5 80.5 q-20.5 47 -20.5 104 ZM166 242 q0 -28 8.5 -56 q8.5 -28 25.5 -50 q17 -22 43 -36 q26 -14 62 -14 q36 0 62 14 q26 14 43 36 q17 22 25.5 50 q8.5 28 8.5 56 q0 28 -8.5 55.5 q-8.5 27.5 -25.5 49.5 q-17 22 -43 35.5 q-26 13.5 -62 13.5 q-36 0 -62 -13.5 q-26 -13.5 -43 -35.5 q-17 -22 -25.5 -49.5 q-8.5 -27.5 -8.5 -55.5 ZM258 708 l136 0 l-141 -144 l-94 0 l99 144 ZM463 708 l136 0 l-141 -144 l-94 0 l99 144 Z" /><glyph glyph-name="OE" unicode="&#x152;" d="M510 112 l0 486 l-55 0 q-49 0 -98 -9.5 q-49 -9.5 -88.5 -36.5 q-39.5 -27 -64.5 -74.5 q-25 -47.5 -25 -123.5 q0 -72 25 -118.5 q25 -46.5 64.5 -74 q39.5 -27.5 88.5 -38.5 q49 -11 98 -11 l55 0 ZM964 708 l0 -110 l-328 0 l0 -180 l310 0 l0 -106 l-310 0 l0 -200 l346 0 l0 -112 l-547 0 q-69 0 -139 20.5 q-70 20.5 -126 63.5 q-56 43 -91 110 q-35 67 -35 160 q0 100 35 167.5 q35 67.5 91 109 q56 41.5 126 59.5 q70 18 139 18 l529 0 Z" /><glyph glyph-name="oe" unicode="&#x153;" d="M683 494 q50 0 92.5 -16.5 q42.5 -16.5 73.5 -49 q31 -32.5 48.5 -81 q17.5 -48.5 17.5 -113.5 q0 -8 0 -16 q0 -8 -1 -16 l-365 0 q3 -26 15 -48 q12 -22 30.5 -37.5 q18.5 -15.5 42 -24 q23.5 -8.5 49.5 -8.5 q45 0 76 17 q31 17 51 46 l79 -65 q-71 -96 -206 -96 q-64 0 -114.5 24.5 q-50.5 24.5 -80.5 66.5 q-30 -41 -79.5 -66 q-49.5 -25 -110.5 -25 q-54 0 -101 19 q-47 19 -81.5 52.5 q-34.5 33.5 -54.5 80.5 q-20 47 -20 104 q0 57 20 103.5 q20 46.5 54.5 79.5 q34.5 33 81.5 51 q47 18 101 18 q61 0 112 -25.5 q51 -25.5 81 -67.5 q31 40 79 66.5 q48 26.5 110 26.5 ZM166 242 q0 -28 8.5 -56 q8.5 -28 25.5 -50 q17 -22 43 -36 q26 -14 62 -14 q36 0 62 14 q26 14 43 36 q17 22 25.5 50 q8.5 28 8.5 56 q0 28 -8.5 55.5 q-8.5 27.5 -25.5 49.5 q-17 22 -43 35.5 q-26 13.5 -62 13.5 q-36 0 -62 -13.5 q-26 -13.5 -43 -35.5 q-17 -22 -25.5 -49.5 q-8.5 -27.5 -8.5 -55.5 ZM795 288 q0 23 -6.5 44 q-6.5 21 -20.5 37 q-14 16 -35.5 25.5 q-21.5 9.5 -50.5 9.5 q-54 0 -91.5 -32.5 q-37.5 -32.5 -41.5 -83.5 l246 0 Z" /><glyph glyph-name="Racute" unicode="&#x154;" d="M78 708 l246 0 q50 0 97 -10.5 q47 -10.5 83.5 -34.5 q36.5 -24 58.5 -63 q22 -39 22 -95 q0 -77 -43.5 -125.5 q-43.5 -48.5 -118.5 -65.5 l189 -314 l-152 0 l-164 300 l-92 0 l0 -300 l-126 0 l0 708 ZM307 403 q27 0 54 4 q27 4 48.5 15 q21.5 11 35.5 31.5 q14 20.5 14 52.5 q0 29 -13 47.5 q-13 18.5 -33 29.5 q-20 11 -45.5 15 q-25.5 4 -49.5 4 l-114 0 l0 -199 l103 0 ZM323 908 l136 0 l-141 -144 l-94 0 l99 144 Z" /><glyph glyph-name="racute" unicode="&#x155;" d="M72 480 l115 0 l0 -80 l2 0 q20 42 56 68 q36 26 84 26 q7 0 15 -0.5 q8 -0.5 14 -2.5 l0 -110 q-12 3 -20.5 4 q-8.5 1 -16.5 1 q-41 0 -66 -15 q-25 -15 -39 -36 q-14 -21 -19 -43 q-5 -22 -5 -35 l0 -257 l-120 0 l0 480 ZM202 708 l136 0 l-141 -144 l-94 0 l99 144 Z" /><glyph glyph-name="Rcommaaccent" unicode="&#x156;" d="M78 708 l246 0 q50 0 97 -10.5 q47 -10.5 83.5 -34.5 q36.5 -24 58.5 -63 q22 -39 22 -95 q0 -77 -43.5 -125.5 q-43.5 -48.5 -118.5 -65.5 l189 -314 l-152 0 l-164 300 l-92 0 l0 -300 l-126 0 l0 708 ZM307 403 q27 0 54 4 q27 4 48.5 15 q21.5 11 35.5 31.5 q14 20.5 14 52.5 q0 29 -13 47.5 q-13 18.5 -33 29.5 q-20 11 -45.5 15 q-25.5 4 -49.5 4 l-114 0 l0 -199 l103 0 ZM277 -45 l106 0 l-80 -195 l-91 0 l65 195 Z" /><glyph glyph-name="rcommaaccent" unicode="&#x157;" d="M72 480 l115 0 l0 -80 l2 0 q20 42 56 68 q36 26 84 26 q7 0 15 -0.5 q8 -0.5 14 -2.5 l0 -110 q-12 3 -20.5 4 q-8.5 1 -16.5 1 q-41 0 -66 -15 q-25 -15 -39 -36 q-14 -21 -19 -43 q-5 -22 -5 -35 l0 -257 l-120 0 l0 480 ZM93 -45 l106 0 l-80 -195 l-91 0 l65 195 Z" /><glyph glyph-name="Rcaron" unicode="&#x158;" d="M78 708 l246 0 q50 0 97 -10.5 q47 -10.5 83.5 -34.5 q36.5 -24 58.5 -63 q22 -39 22 -95 q0 -77 -43.5 -125.5 q-43.5 -48.5 -118.5 -65.5 l189 -314 l-152 0 l-164 300 l-92 0 l0 -300 l-126 0 l0 708 ZM307 403 q27 0 54 4 q27 4 48.5 15 q21.5 11 35.5 31.5 q14 20.5 14 52.5 q0 29 -13 47.5 q-13 18.5 -33 29.5 q-20 11 -45.5 15 q-25.5 4 -49.5 4 l-114 0 l0 -199 l103 0 ZM238 908 l69 -90 l69 90 l110 0 l-115 -144 l-133 0 l-114 144 l114 0 Z" /><glyph glyph-name="rcaron" unicode="&#x159;" d="M72 480 l115 0 l0 -80 l2 0 q20 42 56 68 q36 26 84 26 q7 0 15 -0.5 q8 -0.5 14 -2.5 l0 -110 q-12 3 -20.5 4 q-8.5 1 -16.5 1 q-41 0 -66 -15 q-25 -15 -39 -36 q-14 -21 -19 -43 q-5 -22 -5 -35 l0 -257 l-120 0 l0 480 ZM143 708 l69 -90 l69 90 l110 0 l-115 -144 l-133 0 l-114 144 l114 0 Z" /><glyph glyph-name="Sacute" unicode="&#x15a;" d="M439 560 q-20 26 -56.5 43.5 q-36.5 17.5 -73.5 17.5 q-22 0 -44 -5.5 q-22 -5.5 -40 -17 q-18 -11.5 -29.5 -30 q-11.5 -18.5 -11.5 -44.5 q0 -24 10 -41 q10 -17 27.5 -29 q17.5 -12 42.5 -21 q25 -9 55 -18 q34 -11 70.5 -25 q36.5 -14 67 -37 q30.5 -23 50 -58 q19.5 -35 19.5 -87 q0 -57 -21 -99.5 q-21 -42.5 -56 -70.5 q-35 -28 -82 -42 q-47 -14 -99 -14 q-69 0 -135 25.5 q-66 25.5 -108 75.5 l90 84 q26 -36 69.5 -57 q43.5 -21 85.5 -21 q22 0 45 5.5 q23 5.5 41.5 18.5 q18.5 13 30 32.5 q11.5 19.5 11.5 48.5 q0 28 -13 46.5 q-13 18.5 -35 32 q-22 13.5 -52 23.5 q-30 10 -63 21 q-32 10 -64 24 q-32 14 -57.5 37 q-25.5 23 -41.5 56.5 q-16 33.5 -16 83.5 q0 54 22.5 93 q22.5 39 59 64.5 q36.5 25.5 83 38 q46.5 12.5 94.5 12.5 q54 0 109.5 -19 q55.5 -19 96.5 -57 l-82 -90 ZM332 908 l136 0 l-141 -144 l-94 0 l99 144 Z" /><glyph glyph-name="sacute" unicode="&#x15b;" d="M335 352 q-16 21 -44 36.5 q-28 15.5 -61 15.5 q-29 0 -53 -12 q-24 -12 -24 -40 q0 -28 26.5 -39.5 q26.5 -11.5 77.5 -23.5 q27 -6 54.5 -16 q27.5 -10 50 -26.5 q22.5 -16.5 36.5 -41 q14 -24.5 14 -59.5 q0 -44 -16.5 -74.5 q-16.5 -30.5 -44 -49.5 q-27.5 -19 -64 -27.5 q-36.5 -8.5 -75.5 -8.5 q-56 0 -109 20.5 q-53 20.5 -88 58.5 l79 74 q20 -26 52 -43 q32 -17 71 -17 q13 0 26.5 3 q13.5 3 25 9.5 q11.5 6.5 18.5 17.5 q7 11 7 27 q0 30 -27.5 43 q-27.5 13 -82.5 26 q-27 6 -52.5 15.5 q-25.5 9.5 -45.5 25 q-20 15.5 -32 38.5 q-12 23 -12 57 q0 40 16.5 69 q16.5 29 43.5 47.5 q27 18.5 61 27.5 q34 9 70 9 q52 0 101.5 -18 q49.5 -18 78.5 -55 l-78 -69 ZM257 708 l136 0 l-141 -144 l-94 0 l99 144 Z" /><glyph glyph-name="Scircumflex" unicode="&#x15c;" d="M439 560 q-20 26 -56.5 43.5 q-36.5 17.5 -73.5 17.5 q-22 0 -44 -5.5 q-22 -5.5 -40 -17 q-18 -11.5 -29.5 -30 q-11.5 -18.5 -11.5 -44.5 q0 -24 10 -41 q10 -17 27.5 -29 q17.5 -12 42.5 -21 q25 -9 55 -18 q34 -11 70.5 -25 q36.5 -14 67 -37 q30.5 -23 50 -58 q19.5 -35 19.5 -87 q0 -57 -21 -99.5 q-21 -42.5 -56 -70.5 q-35 -28 -82 -42 q-47 -14 -99 -14 q-69 0 -135 25.5 q-66 25.5 -108 75.5 l90 84 q26 -36 69.5 -57 q43.5 -21 85.5 -21 q22 0 45 5.5 q23 5.5 41.5 18.5 q18.5 13 30 32.5 q11.5 19.5 11.5 48.5 q0 28 -13 46.5 q-13 18.5 -35 32 q-22 13.5 -52 23.5 q-30 10 -63 21 q-32 10 -64 24 q-32 14 -57.5 37 q-25.5 23 -41.5 56.5 q-16 33.5 -16 83.5 q0 54 22.5 93 q22.5 39 59 64.5 q36.5 25.5 83 38 q46.5 12.5 94.5 12.5 q54 0 109.5 -19 q55.5 -19 96.5 -57 l-82 -90 ZM380 764 l-69 90 l-69 -90 l-112 0 l115 144 l135 0 l114 -144 l-114 0 Z" /><glyph glyph-name="scircumflex" unicode="&#x15d;" d="M335 352 q-16 21 -44 36.5 q-28 15.5 -61 15.5 q-29 0 -53 -12 q-24 -12 -24 -40 q0 -28 26.5 -39.5 q26.5 -11.5 77.5 -23.5 q27 -6 54.5 -16 q27.5 -10 50 -26.5 q22.5 -16.5 36.5 -41 q14 -24.5 14 -59.5 q0 -44 -16.5 -74.5 q-16.5 -30.5 -44 -49.5 q-27.5 -19 -64 -27.5 q-36.5 -8.5 -75.5 -8.5 q-56 0 -109 20.5 q-53 20.5 -88 58.5 l79 74 q20 -26 52 -43 q32 -17 71 -17 q13 0 26.5 3 q13.5 3 25 9.5 q11.5 6.5 18.5 17.5 q7 11 7 27 q0 30 -27.5 43 q-27.5 13 -82.5 26 q-27 6 -52.5 15.5 q-25.5 9.5 -45.5 25 q-20 15.5 -32 38.5 q-12 23 -12 57 q0 40 16.5 69 q16.5 29 43.5 47.5 q27 18.5 61 27.5 q34 9 70 9 q52 0 101.5 -18 q49.5 -18 78.5 -55 l-78 -69 ZM304 564 l-69 90 l-69 -90 l-112 0 l115 144 l135 0 l114 -144 l-114 0 Z" /><glyph glyph-name="Scedilla" unicode="&#x15e;" d="M439 560 q-20 26 -56.5 43.5 q-36.5 17.5 -73.5 17.5 q-22 0 -44 -5.5 q-22 -5.5 -40 -17 q-18 -11.5 -29.5 -30 q-11.5 -18.5 -11.5 -44.5 q0 -24 10 -41 q10 -17 27.5 -29 q17.5 -12 42.5 -21 q25 -9 55 -18 q34 -11 70.5 -25 q36.5 -14 67 -37 q30.5 -23 50 -58 q19.5 -35 19.5 -87 q0 -53 -17.5 -93 q-17.5 -40 -48.5 -67.5 q-31 -27.5 -72 -43.5 q-41 -16 -88 -20 l-33 -48 q6 1 10.5 1 q4.5 0 8.5 0 q19 0 37.5 -3.5 q18.5 -3.5 33.5 -12.5 q15 -9 24.5 -25 q9.5 -16 9.5 -42 q0 -27 -13 -45.5 q-13 -18.5 -32.5 -29 q-19.5 -10.5 -44 -15 q-24.5 -4.5 -46.5 -4.5 q-30 0 -59.5 7.5 q-29.5 7.5 -50.5 18.5 l23 48 q38 -20 82 -20 q8 0 18 1.5 q10 1.5 18.5 6 q8.5 4.5 14.5 12.5 q6 8 6 21 q0 11 -5.5 18 q-5.5 7 -13.5 11 q-8 4 -17 5.5 q-9 1.5 -17 1.5 q-8 0 -19 -1.5 q-11 -1.5 -20 -4.5 l-23 25 l50 73 q-63 5 -121 30 q-58 25 -96 70 l90 84 q26 -36 69.5 -57 q43.5 -21 85.5 -21 q22 0 45 5.5 q23 5.5 41.5 18.5 q18.5 13 30 32.5 q11.5 19.5 11.5 48.5 q0 28 -13 46.5 q-13 18.5 -35 32 q-22 13.5 -52 23.5 q-30 10 -63 21 q-32 10 -64 24 q-32 14 -57.5 37 q-25.5 23 -41.5 56.5 q-16 33.5 -16 83.5 q0 54 22.5 93 q22.5 39 59 64.5 q36.5 25.5 83 38 q46.5 12.5 94.5 12.5 q54 0 109.5 -19 q55.5 -19 96.5 -57 l-82 -90 Z" /><glyph glyph-name="scedilla" unicode="&#x15f;" d="M335 352 q-16 21 -44 36.5 q-28 15.5 -61 15.5 q-29 0 -53 -12 q-24 -12 -24 -40 q0 -28 26.5 -39.5 q26.5 -11.5 77.5 -23.5 q27 -6 54.5 -16 q27.5 -10 50 -26.5 q22.5 -16.5 36.5 -41 q14 -24.5 14 -59.5 q0 -40 -13.5 -68.5 q-13.5 -28.5 -37 -47.5 q-23.5 -19 -54.5 -29.5 q-31 -10.5 -66 -13.5 l-36 -51 q6 1 10.5 1 q4.5 0 8.5 0 q19 0 37.5 -3.5 q18.5 -3.5 33.5 -12.5 q15 -9 24.5 -25 q9.5 -16 9.5 -42 q0 -27 -13 -45.5 q-13 -18.5 -32.5 -29 q-19.5 -10.5 -44 -15 q-24.5 -4.5 -46.5 -4.5 q-30 0 -59.5 7.5 q-29.5 7.5 -50.5 18.5 l23 48 q38 -20 82 -20 q8 0 18 1.5 q10 1.5 18.5 6 q8.5 4.5 14.5 12.5 q6 8 6 21 q0 11 -5.5 18 q-5.5 7 -13.5 11 q-8 4 -17 5.5 q-9 1.5 -17 1.5 q-8 0 -19 -1.5 q-11 -1.5 -20 -4.5 l-23 25 l53 78 q-49 5 -93.5 24 q-44.5 19 -74.5 53 l79 74 q20 -26 52 -43 q32 -17 71 -17 q13 0 26.5 3 q13.5 3 25 9.5 q11.5 6.5 18.5 17.5 q7 11 7 27 q0 30 -27.5 43 q-27.5 13 -82.5 26 q-27 6 -52.5 15.5 q-25.5 9.5 -45.5 25 q-20 15.5 -32 38.5 q-12 23 -12 57 q0 40 16.5 69 q16.5 29 43.5 47.5 q27 18.5 61 27.5 q34 9 70 9 q52 0 101.5 -18 q49.5 -18 78.5 -55 l-78 -69 Z" /><glyph glyph-name="Scaron" unicode="&#x160;" d="M439 560 q-20 26 -56.5 43.5 q-36.5 17.5 -73.5 17.5 q-22 0 -44 -5.5 q-22 -5.5 -40 -17 q-18 -11.5 -29.5 -30 q-11.5 -18.5 -11.5 -44.5 q0 -24 10 -41 q10 -17 27.5 -29 q17.5 -12 42.5 -21 q25 -9 55 -18 q34 -11 70.5 -25 q36.5 -14 67 -37 q30.5 -23 50 -58 q19.5 -35 19.5 -87 q0 -57 -21 -99.5 q-21 -42.5 -56 -70.5 q-35 -28 -82 -42 q-47 -14 -99 -14 q-69 0 -135 25.5 q-66 25.5 -108 75.5 l90 84 q26 -36 69.5 -57 q43.5 -21 85.5 -21 q22 0 45 5.5 q23 5.5 41.5 18.5 q18.5 13 30 32.5 q11.5 19.5 11.5 48.5 q0 28 -13 46.5 q-13 18.5 -35 32 q-22 13.5 -52 23.5 q-30 10 -63 21 q-32 10 -64 24 q-32 14 -57.5 37 q-25.5 23 -41.5 56.5 q-16 33.5 -16 83.5 q0 54 22.5 93 q22.5 39 59 64.5 q36.5 25.5 83 38 q46.5 12.5 94.5 12.5 q54 0 109.5 -19 q55.5 -19 96.5 -57 l-82 -90 ZM242 908 l69 -90 l69 90 l110 0 l-115 -144 l-133 0 l-114 144 l114 0 Z" /><glyph glyph-name="scaron" unicode="&#x161;" d="M335 352 q-16 21 -44 36.5 q-28 15.5 -61 15.5 q-29 0 -53 -12 q-24 -12 -24 -40 q0 -28 26.5 -39.5 q26.5 -11.5 77.5 -23.5 q27 -6 54.5 -16 q27.5 -10 50 -26.5 q22.5 -16.5 36.5 -41 q14 -24.5 14 -59.5 q0 -44 -16.5 -74.5 q-16.5 -30.5 -44 -49.5 q-27.5 -19 -64 -27.5 q-36.5 -8.5 -75.5 -8.5 q-56 0 -109 20.5 q-53 20.5 -88 58.5 l79 74 q20 -26 52 -43 q32 -17 71 -17 q13 0 26.5 3 q13.5 3 25 9.5 q11.5 6.5 18.5 17.5 q7 11 7 27 q0 30 -27.5 43 q-27.5 13 -82.5 26 q-27 6 -52.5 15.5 q-25.5 9.5 -45.5 25 q-20 15.5 -32 38.5 q-12 23 -12 57 q0 40 16.5 69 q16.5 29 43.5 47.5 q27 18.5 61 27.5 q34 9 70 9 q52 0 101.5 -18 q49.5 -18 78.5 -55 l-78 -69 ZM161 708 l69 -90 l69 90 l110 0 l-115 -144 l-133 0 l-114 144 l114 0 Z" /><glyph glyph-name="Tcommaaccent" unicode="&#x162;" d="M221 598 l-217 0 l0 110 l560 0 l0 -110 l-217 0 l0 -598 l-126 0 l0 598 ZM276 -64 q6 1 10.5 1 q4.5 0 8.5 0 q19 0 37.5 -3.5 q18.5 -3.5 33.5 -12.5 q15 -9 24.5 -25 q9.5 -16 9.5 -42 q0 -27 -13 -45.5 q-13 -18.5 -32.5 -29 q-19.5 -10.5 -44 -15 q-24.5 -4.5 -46.5 -4.5 q-30 0 -59.5 7.5 q-29.5 7.5 -50.5 18.5 l23 48 q38 -20 82 -20 q8 0 18 1.5 q10 1.5 18.5 6 q8.5 4.5 14.5 12.5 q6 8 6 21 q0 11 -5.5 18 q-5.5 7 -13.5 11 q-8 4 -17 5.5 q-9 1.5 -17 1.5 q-8 0 -19 -1.5 q-11 -1.5 -20 -4.5 l-23 25 l62 90 l58 0 l-45 -64 Z" /><glyph glyph-name="tcommaaccent" unicode="&#x163;" d="M3 384 l0 96 l84 0 l0 139 l118 0 l0 -139 l120 0 l0 -96 l-120 0 l0 -223 q0 -32 11.5 -53 q11.5 -21 51.5 -21 q12 0 26 2.5 q14 2.5 25 7.5 l4 -94 q-16 -6 -38 -9.5 q-22 -3.5 -42 -3.5 q-48 0 -78 13.5 q-30 13.5 -47.5 37 q-17.5 23.5 -24 54 q-6.5 30.5 -6.5 65.5 l0 224 l-84 0 ZM219 -64 q6 1 10.5 1 q4.5 0 8.5 0 q19 0 37.5 -3.5 q18.5 -3.5 33.5 -12.5 q15 -9 24.5 -25 q9.5 -16 9.5 -42 q0 -27 -13 -45.5 q-13 -18.5 -32.5 -29 q-19.5 -10.5 -44 -15 q-24.5 -4.5 -46.5 -4.5 q-30 0 -59.5 7.5 q-29.5 7.5 -50.5 18.5 l23 48 q38 -20 82 -20 q8 0 18 1.5 q10 1.5 18.5 6 q8.5 4.5 14.5 12.5 q6 8 6 21 q0 11 -5.5 18 q-5.5 7 -13.5 11 q-8 4 -17 5.5 q-9 1.5 -17 1.5 q-8 0 -19 -1.5 q-11 -1.5 -20 -4.5 l-23 25 l62 90 l58 0 l-45 -64 Z" /><glyph glyph-name="Tcaron" unicode="&#x164;" d="M221 598 l-217 0 l0 110 l560 0 l0 -110 l-217 0 l0 -598 l-126 0 l0 598 ZM219 908 l69 -90 l69 90 l110 0 l-115 -144 l-133 0 l-114 144 l114 0 Z" /><glyph glyph-name="tcaron" unicode="&#x165;" d="M3 384 l0 96 l84 0 l0 139 l118 0 l0 -139 l120 0 l0 -96 l-120 0 l0 -223 q0 -32 11.5 -53 q11.5 -21 51.5 -21 q12 0 26 2.5 q14 2.5 25 7.5 l4 -94 q-16 -6 -38 -9.5 q-22 -3.5 -42 -3.5 q-48 0 -78 13.5 q-30 13.5 -47.5 37 q-17.5 23.5 -24 54 q-6.5 30.5 -6.5 65.5 l0 224 l-84 0 ZM297 731 l106 0 l-80 -195 l-91 0 l65 195 Z" /><glyph glyph-name="Tbar" unicode="&#x166;" d="M506 432 l-159 0 l0 -432 l-126 0 l0 432 l-149 0 l0 75 l149 0 l0 91 l-217 0 l0 110 l560 0 l0 -110 l-217 0 l0 -91 l159 0 l0 -75 Z" /><glyph glyph-name="tbar" unicode="&#x167;" d="M305 219 l-100 0 l0 -58 q0 -32 11.5 -53 q11.5 -21 51.5 -21 q12 0 26 2.5 q14 2.5 25 7.5 l4 -94 q-16 -6 -38 -9.5 q-22 -3.5 -42 -3.5 q-48 0 -78 13.5 q-30 13.5 -47.5 37 q-17.5 23.5 -24 54 q-6.5 30.5 -6.5 65.5 l0 59 l-75 0 l0 75 l75 0 l0 90 l-84 0 l0 96 l84 0 l0 139 l118 0 l0 -139 l120 0 l0 -96 l-120 0 l0 -90 l100 0 l0 -75 Z" /><glyph glyph-name="Utilde" unicode="&#x168;" d="M642 260 q0 -64 -22 -115.5 q-22 -51.5 -60 -87.5 q-38 -36 -90 -55.5 q-52 -19.5 -113 -19.5 q-61 0 -113 19.5 q-52 19.5 -90.5 55.5 q-38.5 36 -60 87.5 q-21.5 51.5 -21.5 115.5 l0 448 l126 0 l0 -443 q0 -31 8 -61.5 q8 -30.5 26.5 -54.5 q18.5 -24 49 -39 q30.5 -15 75.5 -15 q45 0 75.5 15 q30.5 15 49 39 q18.5 24 26.5 54.5 q8 30.5 8 61.5 l0 443 l126 0 l0 -448 ZM177 768 q4 24 11.5 47 q7.5 23 20.5 40.5 q13 17.5 32.5 28.5 q19.5 11 47.5 11 q20 0 40.5 -5 q20.5 -5 38.5 -13 q20 -8 36.5 -13.5 q16.5 -5.5 28.5 -5.5 q20 0 30.5 12.5 q10.5 12.5 15.5 29.5 l66 0 q-4 -24 -11.5 -47 q-7.5 -23 -20.5 -40.5 q-13 -17.5 -32.5 -28.5 q-19.5 -11 -47.5 -11 q-21 0 -42 6 q-21 6 -40 14 q-18 8 -34 13 q-16 5 -28 5 q-20 0 -30.5 -13 q-10.5 -13 -15.5 -30 l-66 0 Z" /><glyph glyph-name="utilde" unicode="&#x169;" d="M510 0 l-114 0 l0 77 l-2 0 q-16 -36 -55.5 -63.5 q-39.5 -27.5 -93.5 -27.5 q-47 0 -80.5 16.5 q-33.5 16.5 -55 43.5 q-21.5 27 -31.5 62 q-10 35 -10 72 l0 300 l120 0 l0 -266 q0 -21 3 -44 q3 -23 13 -41.5 q10 -18.5 27.5 -30.5 q17.5 -12 46.5 -12 q28 0 49.5 11.5 q21.5 11.5 35 29.5 q13.5 18 20.5 41.5 q7 23.5 7 47.5 l0 264 l120 0 l0 -480 ZM107 568 q4 24 11.5 47 q7.5 23 20.5 40.5 q13 17.5 32.5 28.5 q19.5 11 47.5 11 q20 0 40.5 -5 q20.5 -5 38.5 -13 q20 -8 36.5 -13.5 q16.5 -5.5 28.5 -5.5 q20 0 30.5 12.5 q10.5 12.5 15.5 29.5 l66 0 q-4 -24 -11.5 -47 q-7.5 -23 -20.5 -40.5 q-13 -17.5 -32.5 -28.5 q-19.5 -11 -47.5 -11 q-21 0 -42 6 q-21 6 -40 14 q-18 8 -34 13 q-16 5 -28 5 q-20 0 -30.5 -13 q-10.5 -13 -15.5 -30 l-66 0 Z" /><glyph glyph-name="Umacron" unicode="&#x16a;" d="M642 260 q0 -64 -22 -115.5 q-22 -51.5 -60 -87.5 q-38 -36 -90 -55.5 q-52 -19.5 -113 -19.5 q-61 0 -113 19.5 q-52 19.5 -90.5 55.5 q-38.5 36 -60 87.5 q-21.5 51.5 -21.5 115.5 l0 448 l126 0 l0 -443 q0 -31 8 -61.5 q8 -30.5 26.5 -54.5 q18.5 -24 49 -39 q30.5 -15 75.5 -15 q45 0 75.5 15 q30.5 15 49 39 q18.5 24 26.5 54.5 q8 30.5 8 61.5 l0 443 l126 0 l0 -448 ZM521 795 l-320 0 l0 78 l320 0 l0 -78 Z" /><glyph glyph-name="umacron" unicode="&#x16b;" d="M510 0 l-114 0 l0 77 l-2 0 q-16 -36 -55.5 -63.5 q-39.5 -27.5 -93.5 -27.5 q-47 0 -80.5 16.5 q-33.5 16.5 -55 43.5 q-21.5 27 -31.5 62 q-10 35 -10 72 l0 300 l120 0 l0 -266 q0 -21 3 -44 q3 -23 13 -41.5 q10 -18.5 27.5 -30.5 q17.5 -12 46.5 -12 q28 0 49.5 11.5 q21.5 11.5 35 29.5 q13.5 18 20.5 41.5 q7 23.5 7 47.5 l0 264 l120 0 l0 -480 ZM450 595 l-320 0 l0 78 l320 0 l0 -78 Z" /><glyph glyph-name="Ubreve" unicode="&#x16c;" d="M642 260 q0 -64 -22 -115.5 q-22 -51.5 -60 -87.5 q-38 -36 -90 -55.5 q-52 -19.5 -113 -19.5 q-61 0 -113 19.5 q-52 19.5 -90.5 55.5 q-38.5 36 -60 87.5 q-21.5 51.5 -21.5 115.5 l0 448 l126 0 l0 -443 q0 -31 8 -61.5 q8 -30.5 26.5 -54.5 q18.5 -24 49 -39 q30.5 -15 75.5 -15 q45 0 75.5 15 q30.5 15 49 39 q18.5 24 26.5 54.5 q8 30.5 8 61.5 l0 443 l126 0 l0 -448 ZM253 908 q7 -38 36 -52 q29 -14 67 -14 q43 0 68 12 q25 12 36 54 l66 0 q-8 -74 -53.5 -109 q-45.5 -35 -117.5 -35 q-72 0 -118 34.5 q-46 34.5 -51 109.5 l67 0 Z" /><glyph glyph-name="ubreve" unicode="&#x16d;" d="M510 0 l-114 0 l0 77 l-2 0 q-16 -36 -55.5 -63.5 q-39.5 -27.5 -93.5 -27.5 q-47 0 -80.5 16.5 q-33.5 16.5 -55 43.5 q-21.5 27 -31.5 62 q-10 35 -10 72 l0 300 l120 0 l0 -266 q0 -21 3 -44 q3 -23 13 -41.5 q10 -18.5 27.5 -30.5 q17.5 -12 46.5 -12 q28 0 49.5 11.5 q21.5 11.5 35 29.5 q13.5 18 20.5 41.5 q7 23.5 7 47.5 l0 264 l120 0 l0 -480 ZM186 708 q7 -38 36 -52 q29 -14 67 -14 q43 0 68 12 q25 12 36 54 l66 0 q-8 -74 -53.5 -109 q-45.5 -35 -117.5 -35 q-72 0 -118 34.5 q-46 34.5 -51 109.5 l67 0 Z" /><glyph glyph-name="Uring" unicode="&#x16e;" d="M642 260 q0 -64 -22 -115.5 q-22 -51.5 -60 -87.5 q-38 -36 -90 -55.5 q-52 -19.5 -113 -19.5 q-61 0 -113 19.5 q-52 19.5 -90.5 55.5 q-38.5 36 -60 87.5 q-21.5 51.5 -21.5 115.5 l0 448 l126 0 l0 -443 q0 -31 8 -61.5 q8 -30.5 26.5 -54.5 q18.5 -24 49 -39 q30.5 -15 75.5 -15 q45 0 75.5 15 q30.5 15 49 39 q18.5 24 26.5 54.5 q8 30.5 8 61.5 l0 443 l126 0 l0 -448 ZM466 855 q0 -45 -30 -73.5 q-30 -28.5 -75 -28.5 q-45 0 -75 28.5 q-30 28.5 -30 72.5 q0 22 8 41 q8 19 22 32.5 q14 13.5 33 21.5 q19 8 42 8 q45 0 75 -28.5 q30 -28.5 30 -73.5 ZM420 855 q0 25 -17 41 q-17 16 -42 16 q-26 0 -42.5 -16.5 q-16.5 -16.5 -16.5 -41.5 q0 -24 17 -40 q17 -16 42 -16 q25 0 42 16 q17 16 17 41 Z" /><glyph glyph-name="uring" unicode="&#x16f;" d="M510 0 l-114 0 l0 77 l-2 0 q-16 -36 -55.5 -63.5 q-39.5 -27.5 -93.5 -27.5 q-47 0 -80.5 16.5 q-33.5 16.5 -55 43.5 q-21.5 27 -31.5 62 q-10 35 -10 72 l0 300 l120 0 l0 -266 q0 -21 3 -44 q3 -23 13 -41.5 q10 -18.5 27.5 -30.5 q17.5 -12 46.5 -12 q28 0 49.5 11.5 q21.5 11.5 35 29.5 q13.5 18 20.5 41.5 q7 23.5 7 47.5 l0 264 l120 0 l0 -480 ZM393 655 q0 -45 -30 -73.5 q-30 -28.5 -75 -28.5 q-45 0 -75 28.5 q-30 28.5 -30 72.5 q0 22 8 41 q8 19 22 32.5 q14 13.5 33 21.5 q19 8 42 8 q45 0 75 -28.5 q30 -28.5 30 -73.5 ZM347 655 q0 25 -17 41 q-17 16 -42 16 q-26 0 -42.5 -16.5 q-16.5 -16.5 -16.5 -41.5 q0 -24 17 -40 q17 -16 42 -16 q25 0 42 16 q17 16 17 41 Z" /><glyph glyph-name="Uhungarumlaut" unicode="&#x170;" d="M642 260 q0 -64 -22 -115.5 q-22 -51.5 -60 -87.5 q-38 -36 -90 -55.5 q-52 -19.5 -113 -19.5 q-61 0 -113 19.5 q-52 19.5 -90.5 55.5 q-38.5 36 -60 87.5 q-21.5 51.5 -21.5 115.5 l0 448 l126 0 l0 -443 q0 -31 8 -61.5 q8 -30.5 26.5 -54.5 q18.5 -24 49 -39 q30.5 -15 75.5 -15 q45 0 75.5 15 q30.5 15 49 39 q18.5 24 26.5 54.5 q8 30.5 8 61.5 l0 443 l126 0 l0 -448 ZM302 908 l136 0 l-141 -144 l-94 0 l99 144 ZM507 908 l136 0 l-141 -144 l-94 0 l99 144 Z" /><glyph glyph-name="uhungarumlaut" unicode="&#x171;" d="M510 0 l-114 0 l0 77 l-2 0 q-16 -36 -55.5 -63.5 q-39.5 -27.5 -93.5 -27.5 q-47 0 -80.5 16.5 q-33.5 16.5 -55 43.5 q-21.5 27 -31.5 62 q-10 35 -10 72 l0 300 l120 0 l0 -266 q0 -21 3 -44 q3 -23 13 -41.5 q10 -18.5 27.5 -30.5 q17.5 -12 46.5 -12 q28 0 49.5 11.5 q21.5 11.5 35 29.5 q13.5 18 20.5 41.5 q7 23.5 7 47.5 l0 264 l120 0 l0 -480 ZM233 708 l136 0 l-141 -144 l-94 0 l99 144 ZM438 708 l136 0 l-141 -144 l-94 0 l99 144 Z" /><glyph glyph-name="Uogonek" unicode="&#x172;" d="M472 -196 q-21 -17 -46.5 -27.5 q-25.5 -10.5 -53.5 -10.5 q-20 0 -38.5 5.5 q-18.5 5.5 -33 17 q-14.5 11.5 -23 28 q-8.5 16.5 -8.5 38.5 q0 34 22 68 q22 34 50 60 q-58 3 -107 23 q-49 20 -85 56 q-36 36 -56.5 86 q-20.5 50 -20.5 112 l0 448 l126 0 l0 -443 q0 -31 8 -61.5 q8 -30.5 26.5 -54.5 q18.5 -24 49 -39 q30.5 -15 75.5 -15 q45 0 75.5 15 q30.5 15 49 39 q18.5 24 26.5 54.5 q8 30.5 8 61.5 l0 443 l126 0 l0 -448 q0 -57 -17.5 -104.5 q-17.5 -47.5 -48.5 -82.5 q-31 -35 -74 -57.5 q-43 -22.5 -94 -29.5 q-11 -11 -22 -24.5 q-11 -13.5 -19.5 -27.5 q-8.5 -14 -14 -28.5 q-5.5 -14.5 -5.5 -27.5 q0 -19 13.5 -32.5 q13.5 -13.5 32.5 -13.5 q14 0 28.5 6 q14.5 6 25.5 15 l25 -49 Z" /><glyph glyph-name="uogonek" unicode="&#x173;" d="M502 -196 q-21 -17 -46.5 -27.5 q-25.5 -10.5 -53.5 -10.5 q-20 0 -38.5 5.5 q-18.5 5.5 -33 17 q-14.5 11.5 -23 28 q-8.5 16.5 -8.5 38.5 q0 21 9 42.5 q9 21.5 23.5 41 q14.5 19.5 31.5 36.5 q17 17 33 29 l0 73 l-2 0 q-16 -36 -55.5 -63.5 q-39.5 -27.5 -93.5 -27.5 q-47 0 -80.5 16.5 q-33.5 16.5 -55 43.5 q-21.5 27 -31.5 62 q-10 35 -10 72 l0 300 l120 0 l0 -266 q0 -21 3 -44 q3 -23 13 -41.5 q10 -18.5 27.5 -30.5 q17.5 -12 46.5 -12 q28 0 49.5 11.5 q21.5 11.5 35 29.5 q13.5 18 20.5 41.5 q7 23.5 7 47.5 l0 264 l120 0 l0 -480 l-57 0 q-12 -11 -25 -25.5 q-13 -14.5 -24.5 -31 q-11.5 -16.5 -19 -33.5 q-7.5 -17 -7.5 -32 q0 -19 13.5 -32.5 q13.5 -13.5 32.5 -13.5 q14 0 28.5 6 q14.5 6 25.5 15 l25 -49 Z" /><glyph glyph-name="Wcircumflex" unicode="&#x174;" d="M6 708 l138 0 l137 -520 l2 0 l156 520 l130 0 l153 -520 l2 0 l140 520 l134 0 l-207 -708 l-122 0 l-166 531 l-2 0 l-166 -531 l-122 0 l-207 708 ZM571 764 l-69 90 l-69 -90 l-112 0 l115 144 l135 0 l114 -144 l-114 0 Z" /><glyph glyph-name="wcircumflex" unicode="&#x175;" d="M4 480 l130 0 l100 -344 l2 0 l103 344 l128 0 l104 -344 l2 0 l102 344 l125 0 l-166 -480 l-122 0 l-109 336 l-2 0 l-108 -336 l-122 0 l-167 480 ZM472 564 l-69 90 l-69 -90 l-112 0 l115 144 l135 0 l114 -144 l-114 0 Z" /><glyph glyph-name="Ycircumflex" unicode="&#x176;" d="M249 307 l-266 401 l154 0 l178 -298 l180 298 l146 0 l-266 -401 l0 -307 l-126 0 l0 307 ZM383 764 l-69 90 l-69 -90 l-112 0 l115 144 l135 0 l114 -144 l-114 0 Z" /><glyph glyph-name="ycircumflex" unicode="&#x177;" d="M0 480 l133 0 l134 -349 l2 0 l119 349 l125 0 l-227 -583 q-13 -33 -28 -58.5 q-15 -25.5 -36 -43 q-21 -17.5 -49.5 -26.5 q-28.5 -9 -68.5 -9 q-15 0 -30.5 1.5 q-15.5 1.5 -31.5 5.5 l10 104 q12 -4 23.5 -5.5 q11.5 -1.5 21.5 -1.5 q19 0 32 4.5 q13 4.5 22 14 q9 9.5 16 23.5 q7 14 15 33 l24 61 l-206 480 ZM334 564 l-69 90 l-69 -90 l-112 0 l115 144 l135 0 l114 -144 l-114 0 Z" /><glyph glyph-name="Ydieresis" unicode="&#x178;" d="M249 307 l-266 401 l154 0 l178 -298 l180 298 l146 0 l-266 -401 l0 -307 l-126 0 l0 307 ZM145 844 q0 28 20 49 q20 21 51 21 q31 0 52 -20 q21 -20 21 -50 q0 -30 -21 -50 q-21 -20 -52 -20 q-31 0 -51 21 q-20 21 -20 49 ZM341 844 q0 28 20 49 q20 21 51 21 q31 0 52 -20 q21 -20 21 -50 q0 -30 -21 -50 q-21 -20 -52 -20 q-31 0 -51 21 q-20 21 -20 49 Z" /><glyph glyph-name="Zacute" unicode="&#x179;" d="M35 114 l385 484 l-379 0 l0 110 l529 0 l0 -114 l-387 -482 l393 0 l0 -112 l-541 0 l0 114 ZM333 908 l136 0 l-141 -144 l-94 0 l99 144 Z" /><glyph glyph-name="zacute" unicode="&#x17a;" d="M34 106 l259 278 l-247 0 l0 96 l390 0 l0 -106 l-260 -276 l272 0 l0 -98 l-414 0 l0 106 ZM273 708 l136 0 l-141 -144 l-94 0 l99 144 Z" /><glyph glyph-name="Zdotaccent" unicode="&#x17b;" d="M35 114 l385 484 l-379 0 l0 110 l529 0 l0 -114 l-387 -482 l393 0 l0 -112 l-541 0 l0 114 ZM232 843 q0 29 21.5 50.5 q21.5 21.5 54.5 21.5 q33 0 55.5 -20.5 q22.5 -20.5 22.5 -51.5 q0 -31 -22.5 -51.5 q-22.5 -20.5 -55.5 -20.5 q-33 0 -54.5 21.5 q-21.5 21.5 -21.5 50.5 Z" /><glyph glyph-name="zdotaccent" unicode="&#x17c;" d="M34 106 l259 278 l-247 0 l0 96 l390 0 l0 -106 l-260 -276 l272 0 l0 -98 l-414 0 l0 106 ZM166 643 q0 29 21.5 50.5 q21.5 21.5 54.5 21.5 q33 0 55.5 -20.5 q22.5 -20.5 22.5 -51.5 q0 -31 -22.5 -51.5 q-22.5 -20.5 -55.5 -20.5 q-33 0 -54.5 21.5 q-21.5 21.5 -21.5 50.5 Z" /><glyph glyph-name="Zcaron" unicode="&#x17d;" d="M35 114 l385 484 l-379 0 l0 110 l529 0 l0 -114 l-387 -482 l393 0 l0 -112 l-541 0 l0 114 ZM240 908 l69 -90 l69 90 l110 0 l-115 -144 l-133 0 l-114 144 l114 0 Z" /><glyph glyph-name="zcaron" unicode="&#x17e;" d="M34 106 l259 278 l-247 0 l0 96 l390 0 l0 -106 l-260 -276 l272 0 l0 -98 l-414 0 l0 106 ZM179 708 l69 -90 l69 90 l110 0 l-115 -144 l-133 0 l-114 144 l114 0 Z" /><glyph glyph-name="florin" unicode="&#x192;" d="M480 336 l-138 0 l-57 -288 q-19 -96 -64 -141.5 q-45 -45.5 -123 -45.5 q-26 0 -52.5 6 q-26.5 6 -49.5 18 l45 92 q10 -7 22.5 -10.5 q12.5 -3.5 24.5 -3.5 q39 0 55 29.5 q16 29.5 25 74.5 l53 269 l-113 0 l0 90 l131 0 l22 111 q7 37 20 70.5 q13 33.5 34 58.5 q21 25 51.5 39.5 q30.5 14.5 74.5 14.5 q32 0 60.5 -8 q28.5 -8 56.5 -23 l-46 -93 q-27 16 -55 16 q-22 0 -36 -9.5 q-14 -9.5 -23 -24 q-9 -14.5 -13.5 -32.5 q-4.5 -18 -8.5 -36 l-18 -84 l122 0 l0 -90 Z" /><glyph glyph-name="Ohorn" unicode="&#x1a0;" d="M846 750 q0 -68 -34.5 -104 q-34.5 -36 -97.5 -38 q43 -48 67 -111 q24 -63 24 -141 q0 -83 -28.5 -151.5 q-28.5 -68.5 -79.5 -118 q-51 -49.5 -121 -77 q-70 -27.5 -153 -27.5 q-82 0 -151.5 27.5 q-69.5 27.5 -120 77 q-50.5 49.5 -79 118 q-28.5 68.5 -28.5 151.5 q0 85 28.5 153.5 q28.5 68.5 79 116.5 q50.5 48 120 74 q69.5 26 151.5 26 q53 0 89.5 -8 q36.5 -8 63.5 -18 q27 -10 48 -18 q21 -8 42 -8 q43 0 59.5 19.5 q16.5 19.5 16.5 56.5 q0 16 -4.5 32.5 q-4.5 16.5 -12.5 28.5 l103 26 q10 -20 14 -40.5 q4 -20.5 4 -46.5 ZM181 356 q0 -57 17.5 -104.5 q17.5 -47.5 50 -82.5 q32.5 -35 77 -54.5 q44.5 -19.5 98.5 -19.5 q54 0 99 19.5 q45 19.5 77.5 54.5 q32.5 35 50 82.5 q17.5 47.5 17.5 104.5 q0 55 -17.5 102 q-17.5 47 -49.5 82 q-32 35 -77 55 q-45 20 -100 20 q-55 0 -99.5 -20 q-44.5 -20 -76.5 -55 q-32 -35 -49.5 -82 q-17.5 -47 -17.5 -102 Z" /><glyph glyph-name="ohorn" unicode="&#x1a1;" d="M641 542 q0 -67 -33.5 -102.5 q-33.5 -35.5 -95.5 -39.5 q26 -32 40 -71.5 q14 -39.5 14 -86.5 q0 -57 -20.5 -104 q-20.5 -47 -55.5 -80.5 q-35 -33.5 -83 -52.5 q-48 -19 -102 -19 q-54 0 -102 19 q-48 19 -83 52.5 q-35 33.5 -55.5 80.5 q-20.5 47 -20.5 104 q0 57 20.5 103.5 q20.5 46.5 55.5 79.5 q35 33 83 51 q48 18 102 18 q31 0 53.5 -4.5 q22.5 -4.5 40 -10.5 q17.5 -6 31 -10.5 q13.5 -4.5 27.5 -4.5 q45 0 62.5 20.5 q17.5 20.5 17.5 57.5 q0 16 -4.5 32.5 q-4.5 16.5 -12.5 28.5 l103 26 q10 -20 14 -40.5 q4 -20.5 4 -46.5 ZM166 242 q0 -28 8.5 -56 q8.5 -28 25.5 -50 q17 -22 43 -36 q26 -14 62 -14 q36 0 62 14 q26 14 43 36 q17 22 25.5 50 q8.5 28 8.5 56 q0 28 -8.5 55.5 q-8.5 27.5 -25.5 49.5 q-17 22 -43 35.5 q-26 13.5 -62 13.5 q-36 0 -62 -13.5 q-26 -13.5 -43 -35.5 q-17 -22 -25.5 -49.5 q-8.5 -27.5 -8.5 -55.5 Z" /><glyph glyph-name="Uhorn" unicode="&#x1af;" d="M642 260 q0 -64 -22 -115.5 q-22 -51.5 -60 -87.5 q-38 -36 -90 -55.5 q-52 -19.5 -113 -19.5 q-61 0 -113 19.5 q-52 19.5 -90.5 55.5 q-38.5 36 -60 87.5 q-21.5 51.5 -21.5 115.5 l0 448 l126 0 l0 -443 q0 -31 8 -61.5 q8 -30.5 26.5 -54.5 q18.5 -24 49 -39 q30.5 -15 75.5 -15 q45 0 75.5 15 q30.5 15 49 39 q18.5 24 26.5 54.5 q8 30.5 8 61.5 l0 443 l71 0 q45 0 62.5 20.5 q17.5 20.5 17.5 57.5 q0 16 -4.5 32.5 q-4.5 16.5 -12.5 28.5 l103 26 q10 -20 14 -40.5 q4 -20.5 4 -46.5 q0 -70 -34.5 -105 q-34.5 -35 -94.5 -37 l0 -384 Z" /><glyph glyph-name="uhorn" unicode="&#x1b0;" d="M510 0 l-114 0 l0 77 l-2 0 q-16 -36 -55.5 -63.5 q-39.5 -27.5 -93.5 -27.5 q-47 0 -80.5 16.5 q-33.5 16.5 -55 43.5 q-21.5 27 -31.5 62 q-10 35 -10 72 l0 300 l120 0 l0 -266 q0 -21 3 -44 q3 -23 13 -41.5 q10 -18.5 27.5 -30.5 q17.5 -12 46.5 -12 q28 0 49.5 11.5 q21.5 11.5 35 29.5 q13.5 18 20.5 41.5 q7 23.5 7 47.5 l0 264 l65 0 q45 0 62.5 20.5 q17.5 20.5 17.5 57.5 q0 16 -4.5 32.5 q-4.5 16.5 -12.5 28.5 l103 26 q10 -20 14 -40.5 q4 -20.5 4 -46.5 q0 -70 -34.5 -105 q-34.5 -35 -94.5 -37 l0 -416 Z" /><glyph glyph-name="Scommaaccent" unicode="&#x218;" d="M439 560 q-20 26 -56.5 43.5 q-36.5 17.5 -73.5 17.5 q-22 0 -44 -5.5 q-22 -5.5 -40 -17 q-18 -11.5 -29.5 -30 q-11.5 -18.5 -11.5 -44.5 q0 -24 10 -41 q10 -17 27.5 -29 q17.5 -12 42.5 -21 q25 -9 55 -18 q34 -11 70.5 -25 q36.5 -14 67 -37 q30.5 -23 50 -58 q19.5 -35 19.5 -87 q0 -57 -21 -99.5 q-21 -42.5 -56 -70.5 q-35 -28 -82 -42 q-47 -14 -99 -14 q-69 0 -135 25.5 q-66 25.5 -108 75.5 l90 84 q26 -36 69.5 -57 q43.5 -21 85.5 -21 q22 0 45 5.5 q23 5.5 41.5 18.5 q18.5 13 30 32.5 q11.5 19.5 11.5 48.5 q0 28 -13 46.5 q-13 18.5 -35 32 q-22 13.5 -52 23.5 q-30 10 -63 21 q-32 10 -64 24 q-32 14 -57.5 37 q-25.5 23 -41.5 56.5 q-16 33.5 -16 83.5 q0 54 22.5 93 q22.5 39 59 64.5 q36.5 25.5 83 38 q46.5 12.5 94.5 12.5 q54 0 109.5 -19 q55.5 -19 96.5 -57 l-82 -90 ZM242 -45 l106 0 l-80 -195 l-91 0 l65 195 Z" /><glyph glyph-name="scommaaccent" unicode="&#x219;" d="M335 352 q-16 21 -44 36.5 q-28 15.5 -61 15.5 q-29 0 -53 -12 q-24 -12 -24 -40 q0 -28 26.5 -39.5 q26.5 -11.5 77.5 -23.5 q27 -6 54.5 -16 q27.5 -10 50 -26.5 q22.5 -16.5 36.5 -41 q14 -24.5 14 -59.5 q0 -44 -16.5 -74.5 q-16.5 -30.5 -44 -49.5 q-27.5 -19 -64 -27.5 q-36.5 -8.5 -75.5 -8.5 q-56 0 -109 20.5 q-53 20.5 -88 58.5 l79 74 q20 -26 52 -43 q32 -17 71 -17 q13 0 26.5 3 q13.5 3 25 9.5 q11.5 6.5 18.5 17.5 q7 11 7 27 q0 30 -27.5 43 q-27.5 13 -82.5 26 q-27 6 -52.5 15.5 q-25.5 9.5 -45.5 25 q-20 15.5 -32 38.5 q-12 23 -12 57 q0 40 16.5 69 q16.5 29 43.5 47.5 q27 18.5 61 27.5 q34 9 70 9 q52 0 101.5 -18 q49.5 -18 78.5 -55 l-78 -69 ZM182 -45 l106 0 l-80 -195 l-91 0 l65 195 Z" /><glyph glyph-name="uni021A" unicode="&#x21a;" d="M221 598 l-217 0 l0 110 l560 0 l0 -110 l-217 0 l0 -598 l-126 0 l0 598 ZM244 -45 l106 0 l-80 -195 l-91 0 l65 195 Z" /><glyph glyph-name="uni021B" unicode="&#x21b;" d="M3 384 l0 96 l84 0 l0 139 l118 0 l0 -139 l120 0 l0 -96 l-120 0 l0 -223 q0 -32 11.5 -53 q11.5 -21 51.5 -21 q12 0 26 2.5 q14 2.5 25 7.5 l4 -94 q-16 -6 -38 -9.5 q-22 -3.5 -42 -3.5 q-48 0 -78 13.5 q-30 13.5 -47.5 37 q-17.5 23.5 -24 54 q-6.5 30.5 -6.5 65.5 l0 224 l-84 0 ZM163 -45 l106 0 l-80 -195 l-91 0 l65 195 Z" /><glyph glyph-name="circumflex" unicode="&#x2c6;" d="M198 564 l-69 90 l-69 -90 l-112 0 l115 144 l135 0 l114 -144 l-114 0 Z" /><glyph glyph-name="caron" unicode="&#x2c7;" d="M63 708 l69 -90 l69 90 l110 0 l-115 -144 l-133 0 l-114 144 l114 0 Z" /><glyph glyph-name="uni02C9" unicode="&#x2c9;" d="M290 795 l-320 0 l0 78 l320 0 l0 -78 Z" /><glyph glyph-name="breve" unicode="&#x2d8;" d="M27 708 q7 -38 36 -52 q29 -14 67 -14 q43 0 68 12 q25 12 36 54 l66 0 q-8 -74 -53.5 -109 q-45.5 -35 -117.5 -35 q-72 0 -118 34.5 q-46 34.5 -51 109.5 l67 0 Z" /><glyph glyph-name="dotaccent" unicode="&#x2d9;" d="M54 643 q0 29 21.5 50.5 q21.5 21.5 54.5 21.5 q33 0 55.5 -20.5 q22.5 -20.5 22.5 -51.5 q0 -31 -22.5 -51.5 q-22.5 -20.5 -55.5 -20.5 q-33 0 -54.5 21.5 q-21.5 21.5 -21.5 50.5 Z" /><glyph glyph-name="ring" unicode="&#x2da;" d="M235 655 q0 -45 -30 -73.5 q-30 -28.5 -75 -28.5 q-45 0 -75 28.5 q-30 28.5 -30 72.5 q0 22 8 41 q8 19 22 32.5 q14 13.5 33 21.5 q19 8 42 8 q45 0 75 -28.5 q30 -28.5 30 -73.5 ZM189 655 q0 25 -17 41 q-17 16 -42 16 q-26 0 -42.5 -16.5 q-16.5 -16.5 -16.5 -41.5 q0 -24 17 -40 q17 -16 42 -16 q25 0 42 16 q17 16 17 41 Z" /><glyph glyph-name="ogonek" unicode="&#x2db;" d="M202 -196 q-21 -17 -46.5 -27.5 q-25.5 -10.5 -53.5 -10.5 q-20 0 -38.5 5.5 q-18.5 5.5 -33 17 q-14.5 11.5 -23 28 q-8.5 16.5 -8.5 38.5 q0 21 9.5 43 q9.5 22 24.5 41.5 q15 19.5 32.5 37 q17.5 17.5 33.5 29.5 l61 0 q-12 -10 -26 -25 q-14 -15 -27 -32.5 q-13 -17.5 -21.5 -36 q-8.5 -18.5 -8.5 -34.5 q0 -19 13.5 -32.5 q13.5 -13.5 32.5 -13.5 q14 0 28.5 6 q14.5 6 25.5 15 l25 -49 Z" /><glyph glyph-name="tilde" unicode="&#x2dc;" d="M-54 568 q4 24 11.5 47 q7.5 23 20.5 40.5 q13 17.5 32.5 28.5 q19.5 11 47.5 11 q20 0 40.5 -5 q20.5 -5 38.5 -13 q20 -8 36.5 -13.5 q16.5 -5.5 28.5 -5.5 q20 0 30.5 12.5 q10.5 12.5 15.5 29.5 l66 0 q-4 -24 -11.5 -47 q-7.5 -23 -20.5 -40.5 q-13 -17.5 -32.5 -28.5 q-19.5 -11 -47.5 -11 q-21 0 -42 6 q-21 6 -40 14 q-18 8 -34 13 q-16 5 -28 5 q-20 0 -30.5 -13 q-10.5 -13 -15.5 -30 l-66 0 Z" /><glyph glyph-name="hungarumlaut" unicode="&#x2dd;" d="M79 708 l136 0 l-141 -144 l-94 0 l99 144 ZM284 708 l136 0 l-141 -144 l-94 0 l99 144 Z" /><glyph glyph-name="gravecmb" unicode="&#x300;" d="M-25 564 l-94 0 l-141 144 l136 0 l99 -144 Z" /><glyph glyph-name="acutecmb" unicode="&#x301;" d="M-161 708 l136 0 l-141 -144 l-94 0 l99 144 Z" /><glyph glyph-name="circumflexcmb" unicode="&#x302;" d="M-10 564 l-69 90 l-69 -90 l-112 0 l115 144 l135 0 l114 -144 l-114 0 Z" /><glyph glyph-name="tildecmb" unicode="&#x303;" d="M-260 568 q4 24 11.5 47 q7.5 23 20.5 40.5 q13 17.5 32.5 28.5 q19.5 11 47.5 11 q20 0 40.5 -5 q20.5 -5 38.5 -13 q20 -8 36.5 -13.5 q16.5 -5.5 28.5 -5.5 q20 0 30.5 12.5 q10.5 12.5 15.5 29.5 l66 0 q-4 -24 -11.5 -47 q-7.5 -23 -20.5 -40.5 q-13 -17.5 -32.5 -28.5 q-19.5 -11 -47.5 -11 q-21 0 -42 6 q-21 6 -40 14 q-18 8 -34 13 q-16 5 -28 5 q-20 0 -30.5 -13 q-10.5 -13 -15.5 -30 l-66 0 Z" /><glyph glyph-name="macroncmb" unicode="&#x304;" d="M60 595 l-320 0 l0 78 l320 0 l0 -78 Z" /><glyph glyph-name="brevecmb" unicode="&#x306;" d="M-193 708 q7 -38 36 -52 q29 -14 67 -14 q43 0 68 12 q25 12 36 54 l66 0 q-8 -74 -53.5 -109 q-45.5 -35 -117.5 -35 q-72 0 -118 34.5 q-46 34.5 -51 109.5 l67 0 Z" /><glyph glyph-name="dotaccentcmb" unicode="&#x307;" d="M-260 643 q0 29 21.5 50.5 q21.5 21.5 54.5 21.5 q33 0 55.5 -20.5 q22.5 -20.5 22.5 -51.5 q0 -31 -22.5 -51.5 q-22.5 -20.5 -55.5 -20.5 q-33 0 -54.5 21.5 q-21.5 21.5 -21.5 50.5 Z" /><glyph glyph-name="dieresiscmb" unicode="&#x308;" d="M-260 644 q0 28 20 49 q20 21 51 21 q31 0 52 -20 q21 -20 21 -50 q0 -30 -21 -50 q-21 -20 -52 -20 q-31 0 -51 21 q-20 21 -20 49 ZM-64 644 q0 28 20 49 q20 21 51 21 q31 0 52 -20 q21 -20 21 -50 q0 -30 -21 -50 q-21 -20 -52 -20 q-31 0 -51 21 q-20 21 -20 49 Z" /><glyph glyph-name="hookabovecomb" unicode="&#x309;" d="M92 555 q0 26 10 42.5 q10 16.5 39 32.5 q28 15 28 37 q0 31 -35 31 q-20 0 -30.5 -10.5 q-10.5 -10.5 -14.5 -35.5 l-79 10 q8 48 41 72 q33 24 85 24 q54 0 84 -25.5 q30 -25.5 30 -61.5 q0 -27 -12.5 -46 q-12.5 -19 -40.5 -32 q-17 -8 -23.5 -17 q-6.5 -9 -6.5 -21 l-75 0 Z" /><glyph glyph-name="ringcmb" unicode="&#x30a;" d="M-50 655 q0 -45 -30 -73.5 q-30 -28.5 -75 -28.5 q-45 0 -75 28.5 q-30 28.5 -30 72.5 q0 22 8 41 q8 19 22 32.5 q14 13.5 33 21.5 q19 8 42 8 q45 0 75 -28.5 q30 -28.5 30 -73.5 ZM-96 655 q0 25 -17 41 q-17 16 -42 16 q-26 0 -42.5 -16.5 q-16.5 -16.5 -16.5 -41.5 q0 -24 17 -40 q17 -16 42 -16 q25 0 42 16 q17 16 17 41 Z" /><glyph glyph-name="hungarumlautcmb" unicode="&#x30b;" d="M-161 708 l136 0 l-141 -144 l-94 0 l99 144 ZM44 708 l136 0 l-141 -144 l-94 0 l99 144 Z" /><glyph glyph-name="caroncmb" unicode="&#x30c;" d="M-146 708 l69 -90 l69 90 l110 0 l-115 -144 l-133 0 l-114 144 l114 0 Z" /><glyph glyph-name="doublegravecmb" unicode="&#x30f;" d="M-25 564 l-94 0 l-141 144 l136 0 l99 -144 ZM-228 564 l-94 0 l-141 144 l136 0 l99 -144 Z" /><glyph glyph-name="invertedbrevecmb" unicode="&#x311;" d="M-273 708 q7 -38 36 -52 q29 -14 67 -14 q43 0 68 12 q25 12 36 54 l66 0 q-8 -74 -53.5 -109 q-45.5 -35 -117.5 -35 q-72 0 -118 34.5 q-46 34.5 -51 109.5 l67 0 Z" /><glyph glyph-name="horncmb" unicode="&#x31b;" d="M-248 480 q45 1 62.5 21 q17.5 20 17.5 57 q0 16 -4.5 32.5 q-4.5 16.5 -12.5 28.5 l103 26 q10 -20 14 -40.5 q4 -20.5 4 -46.5 q0 -70 -34.5 -105 q-34.5 -35 -94.5 -37 q-30 -2 -58 2 q-28 4 -50 9 q-26 6 -48 14 l-6 39 l107 0 Z" /><glyph glyph-name="dotbelowcmb" unicode="&#x323;" d="M-260 -148 q0 32 23.5 55 q23.5 23 56.5 23 q32 0 56 -22 q24 -22 24 -54 q0 -32 -23.5 -55 q-23.5 -23 -56.5 -23 q-16 0 -30.5 6 q-14.5 6 -25.5 16 q-11 10 -17.5 24 q-6.5 14 -6.5 30 Z" /><glyph glyph-name="dieresisbelowcmb" unicode="&#x324;" d="M-260 -140 q0 28 20 49 q20 21 51 21 q31 0 52 -20 q21 -20 21 -50 q0 -30 -21 -50 q-21 -20 -52 -20 q-31 0 -51 21 q-20 21 -20 49 ZM-64 -140 q0 28 20 49 q20 21 51 21 q31 0 52 -20 q21 -20 21 -50 q0 -30 -21 -50 q-21 -20 -52 -20 q-31 0 -51 21 q-20 21 -20 49 Z" /><glyph glyph-name="ringbelowcmb" unicode="&#x325;" d="M-50 -172 q0 -45 -30 -73.5 q-30 -28.5 -75 -28.5 q-45 0 -75 28.5 q-30 28.5 -30 72.5 q0 22 8 41 q8 19 22 32.5 q14 13.5 33 21.5 q19 8 42 8 q45 0 75 -28.5 q30 -28.5 30 -73.5 ZM-96 -172 q0 25 -17 41 q-17 16 -42 16 q-26 0 -42.5 -16.5 q-16.5 -16.5 -16.5 -41.5 q0 -24 17 -40 q17 -16 42 -16 q25 0 42 16 q17 16 17 41 Z" /><glyph glyph-name="commabelowcmb" unicode="&#x326;" d="M-190 -70 l116 0 l-85 -264 l-101 0 l70 264 Z" /><glyph glyph-name="cedillacmb" unicode="&#x327;" d="M-138 -64 q6 1 10.5 1 q4.5 0 8.5 0 q19 0 37.5 -3.5 q18.5 -3.5 33.5 -12.5 q15 -9 24.5 -25 q9.5 -16 9.5 -42 q0 -27 -13 -45.5 q-13 -18.5 -32.5 -29 q-19.5 -10.5 -44 -15 q-24.5 -4.5 -46.5 -4.5 q-30 0 -59.5 7.5 q-29.5 7.5 -50.5 18.5 l23 48 q38 -20 82 -20 q8 0 18 1.5 q10 1.5 18.5 6 q8.5 4.5 14.5 12.5 q6 8 6 21 q0 11 -5.5 18 q-5.5 7 -13.5 11 q-8 4 -17 5.5 q-9 1.5 -17 1.5 q-8 0 -19 -1.5 q-11 -1.5 -20 -4.5 l-23 25 l62 90 l58 0 l-45 -64 Z" /><glyph glyph-name="ogonekcmb" unicode="&#x328;" d="M-57 -196 q-21 -17 -46.5 -27.5 q-25.5 -10.5 -53.5 -10.5 q-20 0 -38.5 5.5 q-18.5 5.5 -33 17 q-14.5 11.5 -23 28 q-8.5 16.5 -8.5 38.5 q0 21 9.5 43 q9.5 22 24.5 41.5 q15 19.5 32.5 37 q17.5 17.5 33.5 29.5 l61 0 q-12 -10 -26 -25 q-14 -15 -27 -32.5 q-13 -17.5 -21.5 -36 q-8.5 -18.5 -8.5 -34.5 q0 -19 13.5 -32.5 q13.5 -13.5 32.5 -13.5 q14 0 28.5 6 q14.5 6 25.5 15 l25 -49 Z" /><glyph glyph-name="circumflexbelowcmb" unicode="&#x32d;" d="M-10 -214 l-69 90 l-69 -90 l-112 0 l115 144 l135 0 l114 -144 l-114 0 Z" /><glyph glyph-name="brevebelowcmb" unicode="&#x32e;" d="M-193 -70 q7 -38 36 -52 q29 -14 67 -14 q43 0 68 12 q25 12 36 54 l66 0 q-8 -74 -53.5 -109 q-45.5 -35 -117.5 -35 q-72 0 -118 34.5 q-46 34.5 -51 109.5 l67 0 Z" /><glyph glyph-name="tildebelowcmb" unicode="&#x330;" d="M-260 -202 q4 24 11.5 47 q7.5 23 20.5 40.5 q13 17.5 32.5 28.5 q19.5 11 47.5 11 q20 0 40.5 -5 q20.5 -5 38.5 -13 q20 -8 36.5 -13.5 q16.5 -5.5 28.5 -5.5 q20 0 30.5 12.5 q10.5 12.5 15.5 29.5 l66 0 q-4 -24 -11.5 -47 q-7.5 -23 -20.5 -40.5 q-13 -17.5 -32.5 -28.5 q-19.5 -11 -47.5 -11 q-21 0 -42 6 q-21 6 -40 14 q-18 8 -34 13 q-16 5 -28 5 q-20 0 -30.5 -13 q-10.5 -13 -15.5 -30 l-66 0 Z" /><glyph glyph-name="macronbelowcmb" unicode="&#x331;" d="M60 -148 l-320 0 l0 78 l320 0 l0 -78 Z" /><glyph glyph-name="uni037E" unicode="&#x37e;" d="M110 138 l122 0 l-85 -264 l-107 0 l70 264 ZM70 409 q0 32 23.5 55 q23.5 23 56.5 23 q32 0 56 -22 q24 -22 24 -54 q0 -32 -23.5 -55 q-23.5 -23 -56.5 -23 q-16 0 -30.5 6 q-14.5 6 -25.5 16 q-11 10 -17.5 24 q-6.5 14 -6.5 30 Z" /><glyph glyph-name="u0384" unicode="&#x384;" d="M80 744 l99 0 l-10 -200 l-78 0 l-11 200 Z" /><glyph glyph-name="u0385" unicode="&#x385;" d="M-86 594 q0 21 16 37.5 q16 16.5 39 16.5 q23 0 39 -16.5 q16 -16.5 16 -37.5 q0 -21 -16 -38 q-16 -17 -39 -17 q-23 0 -39 17 q-16 17 -16 38 ZM212 594 q0 21 16 37.5 q16 16.5 39 16.5 q24 0 39.5 -16.5 q15.5 -16.5 15.5 -37.5 q0 -21 -15.5 -38 q-15.5 -17 -39.5 -17 q-23 0 -39 17 q-16 17 -16 38 ZM75 757 l88 0 l-10 -214 l-67 0 l-11 214 Z" /><glyph glyph-name="u0386" unicode="&#x386;" d="M60 762 l99 0 l-10 -200 l-78 0 l-11 200 ZM147 0 l-137 0 l301 708 l122 0 l299 -708 l-140 0 l-65 161 l-317 0 l-63 -161 ZM249 265 l240 0 l-119 304 l-121 -304 Z" /><glyph glyph-name="u0388" unicode="&#x388;" d="M0 762 l99 0 l-10 -200 l-78 0 l-11 200 ZM289 108 l352 0 l0 -108 l-474 0 l0 708 l459 0 l0 -108 l-337 0 l0 -184 l317 0 l0 -103 l-317 0 l0 -205 Z" /><glyph glyph-name="u0389" unicode="&#x389;" d="M0 762 l99 0 l-10 -200 l-78 0 l-11 200 ZM160 708 l126 0 l0 -286 l326 0 l0 286 l126 0 l0 -708 l-126 0 l0 314 l-326 0 l0 -314 l-126 0 l0 708 Z" /><glyph glyph-name="u038A" unicode="&#x38a;" d="M0 762 l99 0 l-10 -200 l-78 0 l-11 200 ZM291 0 l-126 0 l0 708 l126 0 l0 -708 Z" /><glyph glyph-name="u038C" unicode="&#x38c;" d="M0 762 l99 0 l-10 -200 l-78 0 l-11 200 ZM867 356 q0 -83 -28.5 -151.5 q-28.5 -68.5 -79 -118.5 q-50.5 -50 -120 -77.5 q-69.5 -27.5 -150.5 -27.5 q-81 0 -150 27.5 q-69 27.5 -119.5 77.5 q-50.5 50 -79 118.5 q-28.5 68.5 -28.5 151.5 q0 83 28.5 151.5 q28.5 68.5 79 117 q50.5 48.5 119.5 75.5 q69 27 150 27 q81 0 150.5 -27 q69.5 -27 120 -75.5 q50.5 -48.5 79 -117 q28.5 -68.5 28.5 -151.5 ZM734 356 q0 53 -17.5 100 q-17.5 47 -49.5 82 q-32 35 -77 55.5 q-45 20.5 -101 20.5 q-56 0 -101 -20.5 q-45 -20.5 -76.5 -55.5 q-31.5 -35 -49 -82 q-17.5 -47 -17.5 -100 q0 -54 17.5 -102 q17.5 -48 49 -83 q31.5 -35 76.5 -55.5 q45 -20.5 101 -20.5 q55 0 100.5 20.5 q45.5 20.5 77.5 55.5 q32 35 49.5 83 q17.5 48 17.5 102 Z" /><glyph glyph-name="u038E" unicode="&#x38e;" d="M0 762 l99 0 l-10 -200 l-78 0 l-11 200 ZM537 0 l-125 0 l0 302 l-266 406 l153 0 l180 -299 l180 299 l147 0 l-269 -406 l0 -302 Z" /><glyph glyph-name="u038F" unicode="&#x38f;" d="M-1 726 l100 0 l-10 -200 l-79 0 l-11 200 ZM521 0 l0 193 q81 20 126.5 71.5 q45.5 51.5 45.5 137.5 q0 51 -16 90.5 q-16 39.5 -44.5 66 q-28.5 26.5 -69 40.5 q-40.5 14 -89.5 14 q-49 0 -90.5 -14 q-41.5 -14 -71.5 -40.5 q-30 -26.5 -46.5 -66 q-16.5 -39.5 -16.5 -90.5 q0 -44 13.5 -80 q13.5 -36 37 -62.5 q23.5 -26.5 56 -43 q32.5 -16.5 71.5 -22.5 l0 -194 l-291 0 l0 98 l189 0 l0 39 q-42 7 -80 30.5 q-38 23.5 -67 58.5 q-29 35 -46 81 q-17 46 -17 100 q0 74 28.5 133 q28.5 59 77.5 100 q49 41 114.5 63 q65.5 22 140.5 22 q73 0 137.5 -22.5 q64.5 -22.5 111.5 -64 q47 -41.5 74.5 -100 q27.5 -58.5 27.5 -130.5 q0 -52 -18.5 -98 q-18.5 -46 -48.5 -82 q-30 -36 -68 -60 q-38 -24 -76 -31 l0 -39 l196 0 l0 -98 l-291 0 Z" /><glyph glyph-name="u0390" unicode="&#x390;" d="M-11 604 q0 21 15.5 38 q15.5 17 38.5 17 q24 0 39.5 -17 q15.5 -17 15.5 -38 q0 -20 -15.5 -37 q-15.5 -17 -39.5 -17 q-23 0 -38.5 17 q-15.5 17 -15.5 37 ZM287 604 q0 21 15.5 38 q15.5 17 39.5 17 q23 0 38.5 -17 q15.5 -17 15.5 -38 q0 -20 -15.5 -37 q-15.5 -17 -38.5 -17 q-24 0 -39.5 17 q-15.5 17 -15.5 37 ZM149 767 l89 0 l-10 -213 l-68 0 l-11 213 ZM250 0 l-120 0 l0 484 l120 0 l0 -484 Z" /><glyph glyph-name="u0391" unicode="&#x391;" d="M134 0 l-137 0 l301 708 l122 0 l299 -708 l-140 0 l-65 161 l-317 0 l-63 -161 ZM236 265 l240 0 l-119 304 l-121 -304 Z" /><glyph glyph-name="u0392" unicode="&#x392;" d="M83 708 l249 0 q41 0 83 -8.5 q42 -8.5 75.5 -29 q33.5 -20.5 55 -55.5 q21.5 -35 21.5 -89 q0 -57 -33 -97 q-33 -40 -87 -55 l0 -2 q32 -5 60 -18.5 q28 -13.5 48.5 -35 q20.5 -21.5 32 -51 q11.5 -29.5 11.5 -66.5 q0 -51 -21 -89 q-21 -38 -57.5 -63 q-36.5 -25 -85 -37 q-48.5 -12 -103.5 -12 l-249 0 l0 708 ZM205 413 l116 0 q25 0 47.5 5.5 q22.5 5.5 39.5 17.5 q17 12 27 30.5 q10 18.5 10 45.5 q0 50 -38 72 q-38 22 -99 22 l-103 0 l0 -193 ZM205 103 l113 0 q29 0 57 5.5 q28 5.5 49.5 18 q21.5 12.5 35 33.5 q13.5 21 13.5 52 q0 57 -40 81.5 q-40 24.5 -109 24.5 l-119 0 l0 -215 Z" /><glyph glyph-name="u0393" unicode="&#x393;" d="M209 0 l-126 0 l0 708 l425 0 l0 -110 l-299 0 l0 -598 Z" /><glyph glyph-name="u0394" unicode="&#x394;" d="M40 0 l0 103 l267 605 l124 0 l269 -604 l0 -104 l-660 0 ZM367 573 l-198 -466 l395 0 l-197 466 Z" /><glyph glyph-name="u0395" unicode="&#x395;" d="M205 108 l352 0 l0 -108 l-474 0 l0 708 l459 0 l0 -108 l-337 0 l0 -184 l316 0 l0 -103 l-316 0 l0 -205 Z" /><glyph glyph-name="u0396" unicode="&#x396;" d="M565 606 l-377 -497 l383 0 l0 -109 l-536 0 l0 108 l373 492 l-363 0 l0 108 l520 0 l0 -102 Z" /><glyph glyph-name="u0397" unicode="&#x397;" d="M83 708 l125 0 l0 -286 l327 0 l0 286 l125 0 l0 -708 l-125 0 l0 314 l-327 0 l0 -314 l-125 0 l0 708 Z" /><glyph glyph-name="u0398" unicode="&#x398;" d="M803 356 q0 -83 -28.5 -151.5 q-28.5 -68.5 -79 -118.5 q-50.5 -50 -120 -77.5 q-69.5 -27.5 -150.5 -27.5 q-81 0 -150 27.5 q-69 27.5 -120 77.5 q-51 50 -79.5 118.5 q-28.5 68.5 -28.5 151.5 q0 83 28.5 151.5 q28.5 68.5 79.5 117 q51 48.5 120 75.5 q69 27 150 27 q81 0 150.5 -27 q69.5 -27 120 -75.5 q50.5 -48.5 79 -117 q28.5 -68.5 28.5 -151.5 ZM425 95 q49 0 90.5 16.5 q41.5 16.5 72.5 45.5 q31 29 51 68.5 q20 39.5 27 86.5 l-482 0 q6 -47 26 -86.5 q20 -39.5 51 -68.5 q31 -29 72.5 -45.5 q41.5 -16.5 91.5 -16.5 ZM425 614 q-49 0 -90 -16 q-41 -16 -72 -44 q-31 -28 -51 -66 q-20 -38 -27 -82 l480 0 q-8 44 -28 82 q-20 38 -50.5 66 q-30.5 28 -71.5 44 q-41 16 -90 16 Z" /><glyph glyph-name="u0399" unicode="&#x399;" d="M209 0 l-126 0 l0 708 l126 0 l0 -708 Z" /><glyph glyph-name="u039A" unicode="&#x39a;" d="M206 406 l3 0 l291 302 l163 0 l-329 -324 l348 -384 l-169 0 l-305 349 l-2 0 l0 -349 l-123 0 l0 708 l123 0 l0 -302 Z" /><glyph glyph-name="u039B" unicode="&#x39b;" d="M139 0 l-135 0 l289 708 l127 0 l292 -708 l-138 0 l-217 539 l-218 -539 Z" /><glyph glyph-name="u039C" unicode="&#x39c;" d="M462 193 l2 0 l193 515 l184 0 l0 -708 l-124 0 l2 553 l-2 0 l-217 -553 l-82 0 l-215 553 l-2 0 l2 -553 l-120 0 l0 708 l181 0 l198 -515 Z" /><glyph glyph-name="u039D" unicode="&#x39d;" d="M572 181 l3 0 l-2 527 l122 0 l0 -708 l-146 0 l-343 530 l-3 0 l2 -530 l-122 0 l0 708 l146 0 l343 -527 Z" /><glyph glyph-name="u039E" unicode="&#x39e;" d="M541 708 l0 -108 l-498 0 l0 108 l498 0 ZM504 413 l0 -100 l-426 0 l0 100 l426 0 ZM548 108 l0 -108 l-505 0 l0 108 l505 0 Z" /><glyph glyph-name="u039F" unicode="&#x39f;" d="M803 356 q0 -83 -28.5 -151.5 q-28.5 -68.5 -79 -118.5 q-50.5 -50 -120 -77.5 q-69.5 -27.5 -150.5 -27.5 q-81 0 -150 27.5 q-69 27.5 -120 77.5 q-51 50 -79.5 118.5 q-28.5 68.5 -28.5 151.5 q0 83 28.5 151.5 q28.5 68.5 79.5 117 q51 48.5 120 75.5 q69 27 150 27 q81 0 150.5 -27 q69.5 -27 120 -75.5 q50.5 -48.5 79 -117 q28.5 -68.5 28.5 -151.5 ZM669 356 q0 53 -17 100 q-17 47 -49 82 q-32 35 -77 55.5 q-45 20.5 -101 20.5 q-56 0 -101 -20.5 q-45 -20.5 -77 -55.5 q-32 -35 -49 -82 q-17 -47 -17 -100 q0 -54 17.5 -102 q17.5 -48 49 -83 q31.5 -35 76.5 -55.5 q45 -20.5 101 -20.5 q55 0 100.5 20.5 q45.5 20.5 77 55.5 q31.5 35 49 83 q17.5 48 17.5 102 Z" /><glyph glyph-name="u03A0" unicode="&#x3a0;" d="M641 708 l0 -708 l-125 0 l0 600 l-308 0 l0 -600 l-125 0 l0 708 l558 0 Z" /><glyph glyph-name="u03A1" unicode="&#x3a1;" d="M83 708 l232 0 q56 0 104 -11.5 q48 -11.5 82.5 -36.5 q34.5 -25 54 -63.5 q19.5 -38.5 19.5 -93.5 q0 -55 -20.5 -94.5 q-20.5 -39.5 -56 -64.5 q-35.5 -25 -83.5 -36.5 q-48 -11.5 -103 -11.5 l-104 0 l0 -296 l-125 0 l0 708 ZM208 397 l95 0 q32 0 59 6 q27 6 46.5 19 q19.5 13 30 33 q10.5 20 10.5 48 q0 29 -11 48.5 q-11 19.5 -30 31.5 q-19 12 -45.5 17 q-26.5 5 -57.5 5 l-97 0 l0 -208 Z" /><glyph glyph-name="u03A3" unicode="&#x3a3;" d="M57 0 l0 86 l271 267 l0 6 l-271 262 l0 87 l501 0 l0 -105 l-334 0 l260 -241 l0 -11 l-246 -247 l329 0 l0 -104 l-510 0 Z" /><glyph glyph-name="u03A4" unicode="&#x3a4;" d="M351 0 l-126 0 l0 600 l-217 0 l0 108 l560 0 l0 -108 l-217 0 l0 -600 Z" /><glyph glyph-name="u03A5" unicode="&#x3a5;" d="M380 0 l-125 0 l0 302 l-266 406 l153 0 l180 -299 l180 299 l147 0 l-269 -406 l0 -302 Z" /><glyph glyph-name="u03A6" unicode="&#x3a6;" d="M510 693 q75 -8 138 -35.5 q63 -27.5 109 -71.5 q46 -44 71.5 -103 q25.5 -59 25.5 -129 q0 -71 -25.5 -130 q-25.5 -59 -71.5 -103 q-46 -44 -109 -72 q-63 -28 -138 -36 l0 -75 l-120 0 l0 75 q-75 8 -138.5 35.5 q-63.5 27.5 -109 72 q-45.5 44.5 -71.5 103.5 q-26 59 -26 130 q0 71 26 130 q26 59 71.5 103 q45.5 44 109 71 q63.5 27 138.5 35 l0 70 l120 0 l0 -70 ZM178 354 q0 -44 14 -82 q14 -38 41 -67.5 q27 -29.5 66.5 -50 q39.5 -20.5 90.5 -27.5 l0 453 q-51 -7 -90.5 -27 q-39.5 -20 -66.5 -50 q-27 -30 -41 -68 q-14 -38 -14 -81 ZM720 354 q0 43 -14 81 q-14 38 -40.5 67.5 q-26.5 29.5 -65.5 49.5 q-39 20 -90 28 l0 -452 q51 7 90 27.5 q39 20.5 65.5 50 q26.5 29.5 40.5 67.5 q14 38 14 81 Z" /><glyph glyph-name="u03A7" unicode="&#x3a7;" d="M339 458 l159 250 l147 0 l-229 -335 l258 -373 l-156 0 l-183 282 l-179 -282 l-152 0 l254 373 l-232 335 l152 0 l161 -250 Z" /><glyph glyph-name="u03A8" unicode="&#x3a8;" d="M497 246 l19 0 q72 0 115.5 42 q43.5 42 43.5 123 l0 297 l125 0 l0 -318 q0 -64 -22.5 -112 q-22.5 -48 -61 -80 q-38.5 -32 -90 -48 q-51.5 -16 -109.5 -16 l-20 0 l0 -134 l-125 0 l0 134 l-25 0 q-58 0 -108.5 16 q-50.5 16 -88 48 q-37.5 32 -59.5 80 q-22 48 -22 112 l0 318 l125 0 l0 -297 q0 -81 43 -123 q43 -42 115 -42 l20 0 l0 462 l125 0 l0 -462 Z" /><glyph glyph-name="u03A9" unicode="&#x3a9;" d="M442 0 l0 193 q81 20 126.5 71.5 q45.5 51.5 45.5 137.5 q0 51 -16 90.5 q-16 39.5 -44.5 66 q-28.5 26.5 -69 40.5 q-40.5 14 -89.5 14 q-49 0 -90.5 -14 q-41.5 -14 -71.5 -40.5 q-30 -26.5 -46.5 -66 q-16.5 -39.5 -16.5 -90.5 q0 -44 13.5 -80 q13.5 -36 37 -62.5 q23.5 -26.5 56 -43 q32.5 -16.5 71.5 -22.5 l0 -194 l-291 0 l0 98 l189 0 l0 39 q-42 7 -80 30.5 q-38 23.5 -67 58.5 q-29 35 -46 81 q-17 46 -17 100 q0 74 28.5 133 q28.5 59 77.5 100 q49 41 115 63 q66 22 140 22 q73 0 137.5 -22.5 q64.5 -22.5 111.5 -64 q47 -41.5 74.5 -100 q27.5 -58.5 27.5 -130.5 q0 -52 -18.5 -98 q-18.5 -46 -48.5 -82 q-30 -36 -68 -60 q-38 -24 -76 -31 l0 -39 l196 0 l0 -98 l-291 0 Z" /><glyph glyph-name="u03AA" unicode="&#x3aa;" d="M209 0 l-126 0 l0 708 l126 0 l0 -708 ZM-26 849 q0 26 20 46.5 q20 20.5 49 20.5 q29 0 48.5 -20 q19.5 -20 19.5 -47 q0 -28 -19.5 -48 q-19.5 -20 -48.5 -20 q-29 0 -49 20 q-20 20 -20 48 ZM180 849 q0 26 19.5 46.5 q19.5 20.5 49.5 20.5 q29 0 48.5 -20 q19.5 -20 19.5 -47 q0 -28 -19.5 -48 q-19.5 -20 -48.5 -20 q-30 0 -49.5 20 q-19.5 20 -19.5 48 Z" /><glyph glyph-name="u03AB" unicode="&#x3ab;" d="M380 0 l-125 0 l0 302 l-266 406 l153 0 l180 -299 l180 299 l147 0 l-269 -406 l0 -302 ZM151 849 q0 26 19.5 46.5 q19.5 20.5 48.5 20.5 q29 0 49 -20 q20 -20 20 -47 q0 -28 -20 -48 q-20 -20 -49 -20 q-29 0 -48.5 20 q-19.5 20 -19.5 48 ZM357 849 q0 26 19.5 46.5 q19.5 20.5 48.5 20.5 q29 0 48.5 -20 q19.5 -20 19.5 -47 q0 -28 -19.5 -48 q-19.5 -20 -48.5 -20 q-29 0 -48.5 20 q-19.5 20 -19.5 48 Z" /><glyph glyph-name="u03AC" unicode="&#x3ac;" d="M280 756 l99 0 l-10 -200 l-78 0 l-11 200 ZM452 71 q-27 -41 -73 -62.5 q-46 -21.5 -97 -21.5 q-56 0 -100 20.5 q-44 20.5 -75 55.5 q-31 35 -47.5 81.5 q-16.5 46.5 -16.5 98.5 q0 52 17 98.5 q17 46.5 48 81 q31 34.5 75 54.5 q44 20 98 20 q54 0 96 -22 q42 -22 68 -57 l2 0 l0 67 l120 0 l0 -485 l-113 0 l0 71 l-2 0 ZM162 243 q0 -31 9.5 -59.5 q9.5 -28.5 28 -50 q18.5 -21.5 45.5 -34 q27 -12.5 62 -12.5 q33 0 60 12.5 q27 12.5 46.5 33.5 q19.5 21 30 49.5 q10.5 28.5 10.5 60.5 q0 31 -10.5 59.5 q-10.5 28.5 -30 50 q-19.5 21.5 -46.5 34 q-27 12.5 -60 12.5 q-35 0 -62 -12.5 q-27 -12.5 -45.5 -34 q-18.5 -21.5 -28 -50 q-9.5 -28.5 -9.5 -59.5 Z" /><glyph glyph-name="u03AD" unicode="&#x3ad;" d="M313 756 l-10 -200 l-79 0 l-11 200 l100 0 ZM419 348 q-13 15 -32 27 q-17 10 -42.5 18.5 q-25.5 8.5 -62.5 8.5 q-22 0 -42.5 -3.5 q-20.5 -3.5 -36 -11 q-15.5 -7.5 -25 -18 q-9.5 -10.5 -9.5 -25.5 q0 -16 10.5 -27 q10.5 -11 28.5 -18 q18 -7 41 -10 q23 -3 49 -3 l87 0 l0 -86 l-79 0 q-72 0 -109.5 -13 q-37.5 -13 -37.5 -45 q0 -16 10.5 -26.5 q10.5 -10.5 28 -17 q17.5 -6.5 39 -9.5 q21.5 -3 43.5 -3 q44 0 74 8 q30 8 50 18 q23 11 37 27 l62 -71 q-5 -5 -20.5 -18.5 q-15.5 -13.5 -43.5 -27.5 q-28 -14 -69.5 -25 q-41.5 -11 -98.5 -11 q-47 0 -89.5 9 q-42.5 9 -74.5 26.5 q-32 17.5 -51 44 q-19 26.5 -19 61.5 q0 30 12.5 52 q12.5 22 31 36.5 q18.5 14.5 39 21.5 q20.5 7 37.5 9 l0 2 q-17 4 -35 12 q-18 8 -33.5 21.5 q-15.5 13.5 -25.5 32.5 q-10 19 -10 44 q0 33 17.5 59 q17.5 26 48.5 44.5 q31 18.5 72.5 28 q41.5 9.5 89.5 9.5 q51 0 87.5 -10.5 q36.5 -10.5 61.5 -24.5 q25 -14 39 -29 q14 -15 20 -24 l-70 -63 Z" /><glyph glyph-name="u03AE" unicode="&#x3ae;" d="M253 756 l100 0 l-10 -200 l-79 0 l-11 200 ZM190 484 q1 -18 1.5 -37.5 q0.5 -19.5 0.5 -36.5 l2 0 q9 18 25.5 34 q16.5 16 37.5 28 q21 12 45.5 18.5 q24.5 6.5 49.5 6.5 q48 0 82.5 -16 q34.5 -16 57.5 -43 q23 -27 34 -63.5 q11 -36.5 11 -76.5 l0 -538 l-119 0 l0 506 q0 28 -5 52 q-5 24 -17 42 q-12 18 -32 28 q-20 10 -50 10 q-52 0 -85 -38 q-33 -38 -33 -104 l0 -256 l-120 0 l0 360 q0 28 -0.5 61 q-0.5 33 -1.5 63 l116 0 Z" /><glyph glyph-name="u03AF" unicode="&#x3af;" d="M186 0 l-120 0 l0 484 l120 0 l0 -484 ZM77 792 l100 0 l-10 -200 l-79 0 l-11 200 Z" /><glyph glyph-name="u03B0" unicode="&#x3b0;" d="M298 -13 q-63 0 -106 18 q-43 18 -69.5 48 q-26.5 30 -38.5 68 q-12 38 -12 78 l0 285 l120 0 l0 -263 q0 -26 5 -50 q5 -24 17.5 -42.5 q12.5 -18.5 33 -29.5 q20.5 -11 51.5 -11 q31 0 51.5 11 q20.5 11 33.5 29.5 q13 18.5 18.5 42.5 q5.5 24 5.5 50 l0 263 l120 0 l0 -285 q0 -40 -12.5 -78 q-12.5 -38 -40 -68 q-27.5 -30 -71 -48 q-43.5 -18 -106.5 -18 ZM93 594 q0 21 16 37.5 q16 16.5 39 16.5 q23 0 39 -16.5 q16 -16.5 16 -37.5 q0 -21 -16 -38 q-16 -17 -39 -17 q-23 0 -39 17 q-16 17 -16 38 ZM391 594 q0 21 16 37.5 q16 16.5 39 16.5 q24 0 39.5 -16.5 q15.5 -16.5 15.5 -37.5 q0 -21 -15.5 -38 q-15.5 -17 -39.5 -17 q-23 0 -39 17 q-16 17 -16 38 ZM254 757 l88 0 l-10 -214 l-67 0 l-11 214 Z" /><glyph glyph-name="u03B1" unicode="&#x3b1;" d="M452 71 q-27 -41 -73 -62.5 q-46 -21.5 -97 -21.5 q-56 0 -100 20.5 q-44 20.5 -75 55.5 q-31 35 -47.5 81.5 q-16.5 46.5 -16.5 98.5 q0 52 17 98.5 q17 46.5 48 81 q31 34.5 75 54.5 q44 20 98 20 q54 0 96 -22 q42 -22 68 -57 l2 0 l0 67 l120 0 l0 -485 l-113 0 l0 71 l-2 0 ZM162 243 q0 -31 9.5 -59.5 q9.5 -28.5 28 -50 q18.5 -21.5 45.5 -34 q27 -12.5 62 -12.5 q33 0 60 12.5 q27 12.5 46.5 33.5 q19.5 21 30 49.5 q10.5 28.5 10.5 60.5 q0 31 -10.5 59.5 q-10.5 28.5 -30 50 q-19.5 21.5 -46.5 34 q-27 12.5 -60 12.5 q-35 0 -62 -12.5 q-27 -12.5 -45.5 -34 q-18.5 -21.5 -28 -50 q-9.5 -28.5 -9.5 -59.5 Z" /><glyph glyph-name="u03B2" unicode="&#x3b2;" d="M195 260 q0 -83 37.5 -125.5 q37.5 -42.5 103.5 -42.5 q28 0 52.5 8 q24.5 8 43 24 q18.5 16 29 40 q10.5 24 10.5 55 q0 60 -39.5 94.5 q-39.5 34.5 -112.5 34.5 l-54 0 l0 98 l44 0 q43 0 72.5 26.5 q29.5 26.5 29.5 75.5 q0 52 -32 81 q-32 29 -77 29 q-45 0 -76 -31.5 q-31 -31.5 -31 -102.5 l0 -264 ZM195 -240 l-119 0 l0 776 q0 54 17 95.5 q17 41.5 47.5 70 q30.5 28.5 72.5 43 q42 14.5 92 14.5 q46 0 87 -13 q41 -13 72 -37.5 q31 -24.5 49.5 -60 q18.5 -35.5 18.5 -80.5 q0 -34 -10.5 -62.5 q-10.5 -28.5 -27 -49.5 q-16.5 -21 -37.5 -34.5 q-21 -13.5 -42 -16.5 l0 -3 q24 -1 55.5 -11.5 q31.5 -10.5 60 -33 q28.5 -22.5 48 -58.5 q19.5 -36 19.5 -88 q0 -50 -18 -91 q-18 -41 -49.5 -70 q-31.5 -29 -73.5 -45 q-42 -16 -90 -16 q-51 0 -83.5 15 q-32.5 15 -52.5 33 q-23 21 -36 48 l0 -325 Z" /><glyph glyph-name="u03B3" unicode="&#x3b3;" d="M354 -240 l-120 0 l0 271 l-227 453 l136 0 l152 -344 l145 344 l131 0 l-217 -453 l0 -271 Z" /><glyph glyph-name="u03B4" unicode="&#x3b4;" d="M81 624 q0 31 18.5 55.5 q18.5 24.5 51.5 41.5 q33 17 79 26.5 q46 9.5 102 9.5 q50 0 89.5 -6.5 q39.5 -6.5 68.5 -14.5 q33 -9 59 -20 l-27 -102 q-25 11 -55 21 q-26 8 -61 14.5 q-35 6.5 -76 6.5 q-48 0 -78 -11 q-30 -11 -30 -34 q0 -22 26.5 -37 q26.5 -15 88.5 -37 q39 -15 81 -39.5 q42 -24.5 77 -60.5 q35 -36 57.5 -84.5 q22.5 -48.5 22.5 -111.5 q0 -53 -18.5 -99.5 q-18.5 -46.5 -52.5 -81 q-34 -34.5 -83 -54.5 q-49 -20 -110 -20 q-58 0 -106 19 q-48 19 -83 53 q-35 34 -54.5 80.5 q-19.5 46.5 -19.5 102.5 q0 51 17.5 92.5 q17.5 41.5 46.5 71.5 q29 30 65.5 48 q36.5 18 72.5 23 q8 2 14 3 q6 1 11 1 l3 5 q-7 1 -18 5 q-10 3 -25.5 8.5 q-15.5 5.5 -38.5 14.5 q-15 6 -35 14 q-20 8 -38 21 q-18 13 -30 31.5 q-12 18.5 -12 44.5 ZM457 242 q0 33 -10.5 61 q-10.5 28 -29.5 48.5 q-19 20.5 -46 32 q-27 11.5 -60 11.5 q-34 0 -60.5 -12 q-26.5 -12 -45 -32.5 q-18.5 -20.5 -28.5 -48.5 q-10 -28 -10 -61 q0 -33 10 -61 q10 -28 28.5 -48.5 q18.5 -20.5 45.5 -32.5 q27 -12 60 -12 q34 0 61 12 q27 12 46 32.5 q19 20.5 29 49 q10 28.5 10 61.5 Z" /><glyph glyph-name="u03B5" unicode="&#x3b5;" d="M419 348 q-13 15 -32 27 q-17 10 -42.5 18.5 q-25.5 8.5 -62.5 8.5 q-22 0 -42.5 -3.5 q-20.5 -3.5 -36 -11 q-15.5 -7.5 -25 -18 q-9.5 -10.5 -9.5 -25.5 q0 -16 10.5 -27 q10.5 -11 28.5 -18 q18 -7 41 -10 q23 -3 49 -3 l87 0 l0 -86 l-79 0 q-72 0 -109.5 -13 q-37.5 -13 -37.5 -45 q0 -16 10.5 -26.5 q10.5 -10.5 28 -17 q17.5 -6.5 39 -9.5 q21.5 -3 43.5 -3 q44 0 74 8 q30 8 50 18 q23 11 37 27 l62 -71 q-5 -5 -20.5 -18.5 q-15.5 -13.5 -43.5 -27.5 q-28 -14 -69.5 -25 q-41.5 -11 -98.5 -11 q-47 0 -89.5 9 q-42.5 9 -74.5 26.5 q-32 17.5 -51 44 q-19 26.5 -19 61.5 q0 30 12.5 52 q12.5 22 31 36.5 q18.5 14.5 39 21.5 q20.5 7 37.5 9 l0 2 q-17 4 -35 12 q-18 8 -33.5 21.5 q-15.5 13.5 -25.5 32.5 q-10 19 -10 44 q0 33 17.5 59 q17.5 26 48.5 44.5 q31 18.5 72.5 28 q41.5 9.5 89.5 9.5 q51 0 87.5 -10.5 q36.5 -10.5 61.5 -24.5 q25 -14 39 -29 q14 -15 20 -24 l-70 -63 Z" /><glyph glyph-name="u03B6" unicode="&#x3b6;" d="M286 1 q-41 10 -83.5 29 q-42.5 19 -77 50 q-34.5 31 -56.5 77 q-22 46 -22 112 q0 76 26 136 q26 60 65 107.5 q39 47.5 86 82.5 q47 35 90 61 l-243 0 l0 99 l428 0 l0 -82 q-72 -46 -133 -89.5 q-61 -43.5 -105.5 -91 q-44.5 -47.5 -69.5 -100 q-25 -52.5 -25 -116.5 q0 -43 13 -73 q13 -30 39.5 -52.5 q26.5 -22.5 67 -39.5 q40.5 -17 94.5 -34 q58 -17 93 -51.5 q35 -34.5 35 -90.5 q0 -41 -17.5 -72.5 q-17.5 -31.5 -43 -54.5 q-25.5 -23 -53.5 -37.5 q-28 -14.5 -49 -20.5 l-83 61 q22 8 45 18.5 q23 10.5 41.5 24 q18.5 13.5 30 30 q11.5 16.5 11.5 36.5 q0 19 -8.5 32.5 q-8.5 13.5 -23 22.5 q-14.5 9 -33.5 15 q-19 6 -39 11 Z" /><glyph glyph-name="u03B7" unicode="&#x3b7;" d="M190 484 q1 -18 1.5 -37.5 q0.5 -19.5 0.5 -36.5 l2 0 q9 18 25.5 34 q16.5 16 37.5 28 q21 12 45.5 18.5 q24.5 6.5 49.5 6.5 q48 0 82.5 -16 q34.5 -16 57.5 -43 q23 -27 34 -63.5 q11 -36.5 11 -76.5 l0 -538 l-119 0 l0 506 q0 28 -5 52 q-5 24 -17 42 q-12 18 -32 28 q-20 10 -50 10 q-52 0 -85 -38 q-33 -38 -33 -104 l0 -256 l-120 0 l0 360 q0 28 -0.5 61 q-0.5 33 -1.5 63 l116 0 Z" /><glyph glyph-name="u03B8" unicode="&#x3b8;" d="M320 761 q67 0 117.5 -29.5 q50.5 -29.5 83.5 -82 q33 -52.5 49.5 -124 q16.5 -71.5 16.5 -154.5 q0 -83 -15.5 -154 q-15.5 -71 -48 -123 q-32.5 -52 -83 -81.5 q-50.5 -29.5 -120.5 -29.5 q-70 0 -120 29.5 q-50 29.5 -82.5 81.5 q-32.5 52 -47.5 123 q-15 71 -15 154 q0 83 16 154.5 q16 71.5 49 124 q33 52.5 83 82 q50 29.5 117 29.5 ZM320 663 q-36 0 -62.5 -18.5 q-26.5 -18.5 -44 -51 q-17.5 -32.5 -26.5 -77.5 q-9 -45 -12 -97 l290 0 q-2 51 -11 95.5 q-9 44.5 -26.5 77.5 q-17.5 33 -44 52 q-26.5 19 -63.5 19 ZM175 325 q3 -53 12 -97.5 q9 -44.5 26.5 -77 q17.5 -32.5 43.5 -50.5 q26 -18 63 -18 q37 0 63.5 19 q26.5 19 44 51.5 q17.5 32.5 26.5 77 q9 44.5 11 95.5 l-290 0 Z" /><glyph glyph-name="u03B9" unicode="&#x3b9;" d="M191 0 l-120 0 l0 484 l120 0 l0 -484 Z" /><glyph glyph-name="u03BA" unicode="&#x3ba;" d="M194 278 l3 0 l186 206 l147 0 l-212 -220 l227 -264 l-150 0 l-198 242 l-3 0 l0 -242 l-119 0 l0 484 l119 0 l0 -206 Z" /><glyph glyph-name="u03BB" unicode="&#x3bb;" d="M143 0 l-127 0 l206 517 l-15 39 q-8 21 -15 38 q-7 17 -16.5 29 q-9.5 12 -24 18 q-14.5 6 -37.5 6 q-23 0 -40.5 -7 q-17.5 -7 -26.5 -15 l-17 97 q17 9 44 19.5 q27 10.5 69 10.5 q43 0 71 -10.5 q28 -10.5 47 -31 q19 -20.5 32.5 -50 q13.5 -29.5 28.5 -67.5 l230 -593 l-127 0 l-140 380 l-2 0 l-140 -380 Z" /><glyph glyph-name="u03BC" unicode="&#x3bc;" d="M74 484 l120 0 l0 -247 q0 -79 25 -112.5 q25 -33.5 85 -33.5 q55 0 86 38 q31 38 31 117 l0 238 l119 0 l0 -381 q0 -26 1.5 -51.5 q1.5 -25.5 3.5 -51.5 l-121 0 l-3 71 l-2 0 q-17 -38 -46.5 -60.5 q-29.5 -22.5 -70.5 -22.5 q-46 0 -72 20.5 q-26 20.5 -37 57.5 l-2 0 l0 -306 l-117 0 l0 724 Z" /><glyph glyph-name="u03BD" unicode="&#x3bd;" d="M331 0 l-130 0 l-194 484 l133 0 l126 -356 l3 0 l127 356 l128 0 l-193 -484 Z" /><glyph glyph-name="u03BE" unicode="&#x3be;" d="M47 180 q0 45 18.5 78 q18.5 33 49 55.5 q30.5 22.5 69.5 35.5 q39 13 80 18 q-36 4 -73 13 q-37 9 -66.5 26.5 q-29.5 17.5 -48 45 q-18.5 27.5 -18.5 68.5 q0 34 12.5 58 q12.5 24 34.5 40 q22 16 51 25.5 q29 9.5 61 15.5 l0 5 q-9 0 -20.5 0 q-11.5 0 -29.5 -0.5 q-18 -0.5 -44 -0.5 q-26 0 -63 0 l0 91 l398 0 l0 -88 q-70 -5 -121.5 -12.5 q-51.5 -7.5 -85 -22 q-33.5 -14.5 -50 -38 q-16.5 -23.5 -16.5 -59.5 q0 -29 12.5 -50 q12.5 -21 35 -34.5 q22.5 -13.5 53 -19.5 q30.5 -6 67.5 -6 l99 0 l0 -116 l-127 0 q-69 0 -111 -29.5 q-42 -29.5 -42 -77.5 q0 -34 13 -54 q13 -20 39.5 -32.5 q26.5 -12.5 65 -22 q38.5 -9.5 89.5 -22.5 q69 -20 94.5 -55 q25.5 -35 25.5 -77 q0 -40 -18 -71 q-18 -31 -43.5 -53.5 q-25.5 -22.5 -55 -37 q-29.5 -14.5 -51.5 -20.5 l-91 52 q17 4 39.5 13 q22.5 9 43 22.5 q20.5 13.5 34.5 30.5 q14 17 14 38 q0 13 -4.5 26 q-4.5 13 -18 24.5 q-13.5 11.5 -37.5 21 q-24 9.5 -64 16.5 q-32 5 -67 15.5 q-35 10.5 -64.5 30.5 q-29.5 20 -49 52 q-19.5 32 -19.5 82 Z" /><glyph glyph-name="u03BF" unicode="&#x3bf;" d="M576 243 q0 -57 -20.5 -104.5 q-20.5 -47.5 -56 -81.5 q-35.5 -34 -84 -52.5 q-48.5 -18.5 -104.5 -18.5 q-56 0 -104 18.5 q-48 18.5 -83.5 52.5 q-35.5 34 -56 81.5 q-20.5 47.5 -20.5 104.5 q0 57 20.5 104 q20.5 47 56 80.5 q35.5 33.5 83.5 52 q48 18.5 104 18.5 q56 0 104.5 -18.5 q48.5 -18.5 84 -52 q35.5 -33.5 56 -80.5 q20.5 -47 20.5 -104 ZM457 243 q0 31 -10 59.5 q-10 28.5 -28.5 50 q-18.5 21.5 -46 34 q-27.5 12.5 -61.5 12.5 q-34 0 -61 -12.5 q-27 -12.5 -45.5 -34 q-18.5 -21.5 -28.5 -50 q-10 -28.5 -10 -59.5 q0 -31 10 -59.5 q10 -28.5 28.5 -50 q18.5 -21.5 45.5 -34 q27 -12.5 61 -12.5 q34 0 61.5 12.5 q27.5 12.5 46 34 q18.5 21.5 28.5 50 q10 28.5 10 59.5 Z" /><glyph glyph-name="pi" unicode="&#x3c0;" d="M194 0 l-120 0 l0 484 l449 0 l0 -484 l-120 0 l0 389 l-209 0 l0 -389 Z" /><glyph glyph-name="u03C1" unicode="&#x3c1;" d="M193 -240 l-117 0 l0 474 q0 63 20.5 112 q20.5 49 56 82.5 q35.5 33.5 84 51.5 q48.5 18 105.5 18 q55 0 102 -19 q47 -19 81.5 -53.5 q34.5 -34.5 54 -82 q19.5 -47.5 19.5 -103.5 q0 -56 -19.5 -102.5 q-19.5 -46.5 -54 -80 q-34.5 -33.5 -81.5 -52 q-47 -18.5 -102 -18.5 q-47 0 -85.5 16.5 q-38.5 16.5 -60.5 42.5 l-3 0 l0 -286 ZM482 242 q0 34 -9.5 62.5 q-9.5 28.5 -28 49.5 q-18.5 21 -46 32.5 q-27.5 11.5 -62.5 11.5 q-33 0 -59.5 -12 q-26.5 -12 -46 -33 q-19.5 -21 -30 -49.5 q-10.5 -28.5 -10.5 -61.5 q0 -35 11 -64 q11 -29 30.5 -49.5 q19.5 -20.5 46 -31.5 q26.5 -11 58.5 -11 q36 0 63 12 q27 12 45.5 33 q18.5 21 28 49.5 q9.5 28.5 9.5 61.5 Z" /><glyph glyph-name="u03C2" unicode="&#x3c2;" d="M324 90 q26 -6 54.5 -16.5 q28.5 -10.5 52.5 -28 q24 -17.5 39.5 -44.5 q15.5 -27 15.5 -66 q0 -41 -17.5 -72.5 q-17.5 -31.5 -43 -54.5 q-25.5 -23 -53.5 -37.5 q-28 -14.5 -49 -20.5 l-84 61 q22 8 45 18.5 q23 10.5 41.5 24 q18.5 13.5 30 30 q11.5 16.5 11.5 36.5 q0 22 -9 35.5 q-9 13.5 -22.5 21.5 q-13.5 8 -29.5 12.5 q-16 4.5 -30 7.5 q-16 3 -39 9 q-23 6 -48.5 16.5 q-25.5 10.5 -51 27.5 q-25.5 17 -45.5 42.5 q-20 25.5 -32.5 61.5 q-12.5 36 -12.5 84 q0 62 21 110.5 q21 48.5 57 81.5 q36 33 83 50.5 q47 17.5 100 17.5 q28 0 56.5 -5 q28.5 -5 54 -15 q25.5 -10 47 -25 q21.5 -15 36.5 -35 l-74 -77 q-15 23 -44 40.5 q-29 17.5 -73 17.5 q-31 0 -57.5 -10 q-26.5 -10 -46 -29.5 q-19.5 -19.5 -30.5 -48.5 q-11 -29 -11 -66 q0 -42 13.5 -69 q13.5 -27 35.5 -44 q22 -17 50.5 -26 q28.5 -9 58.5 -16 Z" /><glyph glyph-name="u03C3" unicode="&#x3c3;" d="M519 388 l0 -3 q7 -8 16 -21.5 q9 -13.5 16 -32.5 q7 -19 12 -42.5 q5 -23.5 5 -49.5 q0 -54 -19.5 -100.5 q-19.5 -46.5 -54 -80.5 q-34.5 -34 -82.5 -53.5 q-48 -19.5 -105 -19.5 q-57 0 -104.5 19.5 q-47.5 19.5 -82 54 q-34.5 34.5 -54 81.5 q-19.5 47 -19.5 102 q0 55 19.5 102.5 q19.5 47.5 54 81.5 q34.5 34 82 53.5 q47.5 19.5 104.5 19.5 q27 0 46 -2 q19 -2 37.5 -4.5 q18.5 -2.5 39.5 -4.5 q21 -2 53 -2 l158 0 l0 -98 l-122 0 ZM454 242 q0 33 -10.5 61.5 q-10.5 28.5 -29.5 49.5 q-19 21 -46 33.5 q-27 12.5 -61 12.5 q-33 0 -60.5 -12.5 q-27.5 -12.5 -46.5 -33.5 q-19 -21 -29.5 -49.5 q-10.5 -28.5 -10.5 -61.5 q0 -33 10.5 -61.5 q10.5 -28.5 29.5 -49.5 q19 -21 46.5 -33 q27.5 -12 60.5 -12 q34 0 61 12 q27 12 46 33 q19 21 29.5 49.5 q10.5 28.5 10.5 61.5 Z" /><glyph glyph-name="u03C4" unicode="&#x3c4;" d="M6 484 l461 0 l0 -95 l-171 0 l0 -389 l-120 0 l0 389 l-170 0 l0 95 Z" /><glyph glyph-name="u03C5" unicode="&#x3c5;" d="M298 -13 q-63 0 -106.5 18 q-43.5 18 -70 48 q-26.5 30 -38.5 68 q-12 38 -12 78 l0 285 l120 0 l0 -263 q0 -26 5 -50 q5 -24 17.5 -42.5 q12.5 -18.5 33.5 -29.5 q21 -11 52 -11 q31 0 51.5 11 q20.5 11 33.5 29.5 q13 18.5 18.5 42.5 q5.5 24 5.5 50 l0 263 l119 0 l0 -285 q0 -40 -12.5 -78 q-12.5 -38 -40 -68 q-27.5 -30 -71 -48 q-43.5 -18 -105.5 -18 Z" /><glyph glyph-name="u03C6" unicode="&#x3c6;" d="M662 246 q0 42 -15.5 69.5 q-15.5 27.5 -39 43.5 q-23.5 16 -50.5 22.5 q-27 6.5 -50 6.5 l-30 0 l0 -299 q85 1 135 41 q50 40 50 116 ZM47 246 q0 55 17.5 96.5 q17.5 41.5 46 71.5 q28.5 30 63.5 49.5 q35 19.5 70 30.5 l51 -87 q-24 -7 -47 -20 q-23 -13 -41 -32.5 q-18 -19.5 -29.5 -45.5 q-11.5 -26 -11.5 -59 q0 -42 15 -72 q15 -30 41.5 -49.5 q26.5 -19.5 63 -29 q36.5 -9.5 80.5 -10.5 l0 398 l147 0 q55 0 103.5 -16 q48.5 -16 85 -47 q36.5 -31 58 -75.5 q21.5 -44.5 21.5 -101.5 q0 -66 -26.5 -114.5 q-26.5 -48.5 -69.5 -80.5 q-43 -32 -97.5 -48 q-54.5 -16 -110.5 -16 l0 -228 l-111 0 l0 228 q-66 1 -124.5 16 q-58.5 15 -101.5 46.5 q-43 31.5 -68 80 q-25 48.5 -25 115.5 Z" /><glyph glyph-name="u03C7" unicode="&#x3c7;" d="M156 484 l136 -253 l136 253 l127 0 l-189 -342 l209 -381 l-130 0 l-155 294 l-154 -294 l-130 0 l209 383 l-189 340 l130 0 Z" /><glyph glyph-name="u03C8" unicode="&#x3c8;" d="M474 88 q82 5 125.5 51.5 q43.5 46.5 43.5 145.5 l0 199 l120 0 l0 -230 q0 -69 -23 -120 q-23 -51 -62.5 -84.5 q-39.5 -33.5 -92 -50.5 q-52.5 -17 -111.5 -18 l0 -221 l-120 0 l0 221 q-59 1 -111.5 18 q-52.5 17 -92 50.5 q-39.5 33.5 -62.5 84.5 q-23 51 -23 120 l0 230 l119 0 l0 -199 q0 -99 43.5 -145.5 q43.5 -46.5 126.5 -51.5 l0 396 l120 0 l0 -396 Z" /><glyph glyph-name="u03C9" unicode="&#x3c9;" d="M302 420 q-36 -14 -63 -31 q-27 -17 -44 -38.5 q-17 -21.5 -25.5 -50 q-8.5 -28.5 -8.5 -65.5 q0 -67 24.5 -105.5 q24.5 -38.5 69.5 -38.5 q40 0 65.5 34 q25.5 34 25.5 113 l0 87 l120 0 l0 -87 q0 -78 24.5 -112 q24.5 -34 65.5 -34 q46 0 71 38 q25 38 25 105 q0 37 -8 65.5 q-8 28.5 -25.5 50 q-17.5 21.5 -44 38.5 q-26.5 17 -62.5 31 l69 73 q37 -14 71 -36.5 q34 -22.5 60.5 -55.5 q26.5 -33 42 -77.5 q15.5 -44.5 15.5 -101.5 q0 -53 -13.5 -95.5 q-13.5 -42.5 -39 -73 q-25.5 -30.5 -63 -47 q-37.5 -16.5 -85.5 -16.5 q-64 0 -106.5 33.5 q-42.5 33.5 -54.5 96.5 l-4 0 q-14 -68 -58 -99 q-44 -31 -103 -31 q-95 0 -147.5 61.5 q-52.5 61.5 -52.5 170.5 q0 60 15.5 105 q15.5 45 41.5 77.5 q26 32.5 60 53.5 q34 21 71 35 l71 -73 Z" /><glyph glyph-name="u03CA" unicode="&#x3ca;" d="M197 0 l-120 0 l0 484 l120 0 l0 -484 ZM-32 653 q0 26 19.5 46.5 q19.5 20.5 48.5 20.5 q29 0 49 -20 q20 -20 20 -47 q0 -28 -20 -48 q-20 -20 -49 -20 q-29 0 -48.5 20.5 q-19.5 20.5 -19.5 47.5 ZM174 653 q0 26 19.5 46.5 q19.5 20.5 48.5 20.5 q29 0 48.5 -20 q19.5 -20 19.5 -47 q0 -28 -19.5 -48 q-19.5 -20 -48.5 -20 q-29 0 -48.5 20.5 q-19.5 20.5 -19.5 47.5 Z" /><glyph glyph-name="u03CB" unicode="&#x3cb;" d="M154 653 q0 26 19.5 46.5 q19.5 20.5 48.5 20.5 q29 0 49 -20 q20 -20 20 -47 q0 -28 -20 -48 q-20 -20 -49 -20 q-29 0 -48.5 20.5 q-19.5 20.5 -19.5 47.5 ZM360 653 q0 26 19.5 46.5 q19.5 20.5 48.5 20.5 q29 0 48.5 -20 q19.5 -20 19.5 -47 q0 -28 -19.5 -48 q-19.5 -20 -48.5 -20 q-29 0 -48.5 20.5 q-19.5 20.5 -19.5 47.5 ZM327 -13 q-63 0 -106 18 q-43 18 -69.5 48 q-26.5 30 -38.5 68 q-12 38 -12 78 l0 285 l119 0 l0 -263 q0 -26 5 -50 q5 -24 17.5 -42.5 q12.5 -18.5 33.5 -29.5 q21 -11 52 -11 q31 0 51.5 11 q20.5 11 33.5 29.5 q13 18.5 18.5 42.5 q5.5 24 5.5 50 l0 263 l120 0 l0 -285 q0 -40 -12.5 -78 q-12.5 -38 -40 -68 q-27.5 -30 -71 -48 q-43.5 -18 -106.5 -18 Z" /><glyph glyph-name="u03CC" unicode="&#x3cc;" d="M576 243 q0 -57 -20.5 -104.5 q-20.5 -47.5 -56 -81.5 q-35.5 -34 -84 -52.5 q-48.5 -18.5 -104.5 -18.5 q-56 0 -104 18.5 q-48 18.5 -83.5 52.5 q-35.5 34 -56 81.5 q-20.5 47.5 -20.5 104.5 q0 57 20.5 104 q20.5 47 56 80.5 q35.5 33.5 83.5 52 q48 18.5 104 18.5 q56 0 104.5 -18.5 q48.5 -18.5 84 -52 q35.5 -33.5 56 -80.5 q20.5 -47 20.5 -104 ZM457 243 q0 31 -10 59.5 q-10 28.5 -28.5 50 q-18.5 21.5 -46 34 q-27.5 12.5 -61.5 12.5 q-34 0 -61 -12.5 q-27 -12.5 -45.5 -34 q-18.5 -21.5 -28.5 -50 q-10 -28.5 -10 -59.5 q0 -31 10 -59.5 q10 -28.5 28.5 -50 q18.5 -21.5 45.5 -34 q27 -12.5 61 -12.5 q34 0 61.5 12.5 q27.5 12.5 46 34 q18.5 21.5 28.5 50 q10 28.5 10 59.5 ZM261 748 l99 0 l-10 -200 l-78 0 l-11 200 Z" /><glyph glyph-name="u03CD" unicode="&#x3cd;" d="M250 744 l100 0 l-10 -200 l-79 0 l-11 200 ZM298 -13 q-63 0 -106 18 q-43 18 -69.5 48 q-26.5 30 -38.5 68 q-12 38 -12 78 l0 285 l120 0 l0 -263 q0 -26 5 -50 q5 -24 17.5 -42.5 q12.5 -18.5 33 -29.5 q20.5 -11 51.5 -11 q31 0 51.5 11 q20.5 11 33.5 29.5 q13 18.5 18.5 42.5 q5.5 24 5.5 50 l0 263 l120 0 l0 -285 q0 -40 -12.5 -78 q-12.5 -38 -40 -68 q-27.5 -30 -71 -48 q-43.5 -18 -106.5 -18 Z" /><glyph glyph-name="u03CE" unicode="&#x3ce;" d="M455 744 l-10 -200 l-79 0 l-11 200 l100 0 ZM302 420 q-36 -14 -63 -31 q-27 -17 -44 -38.5 q-17 -21.5 -25.5 -50 q-8.5 -28.5 -8.5 -65.5 q0 -67 24.5 -105.5 q24.5 -38.5 69.5 -38.5 q40 0 65.5 34 q25.5 34 25.5 113 l0 87 l120 0 l0 -87 q0 -78 24.5 -112 q24.5 -34 65.5 -34 q46 0 71 38 q25 38 25 105 q0 37 -8 65.5 q-8 28.5 -25.5 50 q-17.5 21.5 -44 38.5 q-26.5 17 -62.5 31 l69 73 q37 -14 71 -36.5 q34 -22.5 60.5 -55.5 q26.5 -33 42 -77.5 q15.5 -44.5 15.5 -101.5 q0 -53 -13.5 -95.5 q-13.5 -42.5 -39 -73 q-25.5 -30.5 -63 -47 q-37.5 -16.5 -85.5 -16.5 q-64 0 -106.5 33.5 q-42.5 33.5 -54.5 96.5 l-4 0 q-14 -68 -58 -99 q-44 -31 -103 -31 q-95 0 -147.5 61.5 q-52.5 61.5 -52.5 170.5 q0 60 15.5 105 q15.5 45 41.5 77.5 q26 32.5 60 53.5 q34 21 71 35 l71 -73 Z" /><glyph glyph-name="u0401" unicode="&#x401;" d="M205 108 l352 0 l0 -108 l-474 0 l0 708 l459 0 l0 -108 l-337 0 l0 -184 l316 0 l0 -103 l-316 0 l0 -205 ZM144 849 q0 26 19.5 46.5 q19.5 20.5 48.5 20.5 q29 0 49 -20 q20 -20 20 -47 q0 -28 -20 -48 q-20 -20 -49 -20 q-29 0 -48.5 20 q-19.5 20 -19.5 48 ZM350 849 q0 26 19.5 46.5 q19.5 20.5 48.5 20.5 q29 0 49 -20 q20 -20 20 -47 q0 -28 -20 -48 q-20 -20 -49 -20 q-29 0 -48.5 20 q-19.5 20 -19.5 48 Z" /><glyph glyph-name="u0402" unicode="&#x402;" d="M8 600 l0 108 l535 0 l0 -108 l-230 0 l0 -138 l109 0 q65 0 113.5 -16.5 q48.5 -16.5 81 -47 q32.5 -30.5 49 -74 q16.5 -43.5 16.5 -96.5 q0 -48 -16.5 -89.5 q-16.5 -41.5 -48.5 -72.5 q-32 -31 -80 -48.5 q-48 -17.5 -112 -17.5 l-31 0 l0 106 l37 0 q25 0 48 8 q23 8 40 23.5 q17 15.5 27 38 q10 22.5 10 51.5 q0 61 -35 93.5 q-35 32.5 -111 32.5 l-97 0 l0 -353 l-125 0 l0 600 l-180 0 Z" /><glyph glyph-name="u0403" unicode="&#x403;" d="M461 908 l-140 -144 l-94 0 l102 144 l132 0 ZM209 0 l-126 0 l0 708 l425 0 l0 -110 l-299 0 l0 -598 Z" /><glyph glyph-name="u0404" unicode="&#x404;" d="M693 109 q-19 -27 -45 -50 q-26 -23 -60 -40 q-34 -17 -74.5 -27 q-40.5 -10 -88.5 -10 q-83 0 -152.5 28 q-69.5 28 -119.5 77.5 q-50 49.5 -78 117.5 q-28 68 -28 149 q0 81 28 149 q28 68 78.5 117.5 q50.5 49.5 119.5 77.5 q69 28 152 28 q86 0 153 -27.5 q67 -27.5 105 -79.5 l-86 -88 q-23 35 -66 59 q-43 24 -105 24 q-46 0 -86 -14.5 q-40 -14.5 -71 -41 q-31 -26.5 -52 -64 q-21 -37.5 -29 -83.5 l371 0 l0 -101 l-373 0 q7 -50 28 -89.5 q21 -39.5 53 -67.5 q32 -28 72.5 -43 q40.5 -15 86.5 -15 q56 0 102 21.5 q46 21.5 82 66.5 l83 -74 Z" /><glyph glyph-name="u0405" unicode="&#x405;" d="M442 556 q-22 30 -57.5 48 q-35.5 18 -77.5 18 q-21 0 -43 -5.5 q-22 -5.5 -39.5 -17.5 q-17.5 -12 -29 -31 q-11.5 -19 -11.5 -46 q0 -25 10 -42 q10 -17 27.5 -28.5 q17.5 -11.5 41.5 -20 q24 -8.5 51 -17.5 q37 -12 75 -26.5 q38 -14.5 69 -38 q31 -23.5 51 -58.5 q20 -35 20 -88 q0 -57 -21.5 -99 q-21.5 -42 -57 -69 q-35.5 -27 -80.5 -40 q-45 -13 -93 -13 q-71 0 -137 26 q-66 26 -109 77 l89 83 q25 -35 67 -58 q42 -23 90 -23 q23 0 45.5 6 q22.5 6 40 19 q17.5 13 28.5 32.5 q11 19.5 11 46.5 q0 28 -12 47 q-12 19 -33 32.5 q-21 13.5 -50.5 24 q-29.5 10.5 -63.5 21.5 q-34 11 -67 25.5 q-33 14.5 -59.5 37.5 q-26.5 23 -42.5 56 q-16 33 -16 81 q0 55 22.5 95 q22.5 40 58.5 65.5 q36 25.5 81 37.5 q45 12 90 12 q66 0 123 -24 q57 -24 94 -63 l-85 -83 Z" /><glyph glyph-name="u0406" unicode="&#x406;" d="M209 0 l-126 0 l0 708 l126 0 l0 -708 Z" /><glyph glyph-name="u0407" unicode="&#x407;" d="M217 0 l-126 0 l0 708 l126 0 l0 -708 ZM-17 849 q0 26 19.5 46.5 q19.5 20.5 48.5 20.5 q29 0 49 -20 q20 -20 20 -47 q0 -28 -20 -48 q-20 -20 -49 -20 q-29 0 -48.5 20 q-19.5 20 -19.5 48 ZM189 849 q0 26 19.5 46.5 q19.5 20.5 48.5 20.5 q29 0 49 -20 q20 -20 20 -47 q0 -28 -20 -48 q-20 -20 -49 -20 q-29 0 -48.5 20 q-19.5 20 -19.5 48 Z" /><glyph glyph-name="u0408" unicode="&#x408;" d="M122 173 q8 -34 31.5 -56.5 q23.5 -22.5 59.5 -22.5 q28 0 46.5 10.5 q18.5 10.5 29.5 28.5 q11 18 15 42 q4 24 4 51 l0 482 l126 0 l0 -483 q0 -39 -8.5 -82 q-8.5 -43 -32 -79 q-23.5 -36 -65 -59.5 q-41.5 -23.5 -107.5 -23.5 q-42 0 -77 11.5 q-35 11.5 -62 32.5 q-27 21 -45.5 49.5 q-18.5 28.5 -26.5 62.5 l112 36 Z" /><glyph glyph-name="u0409" unicode="&#x409;" d="M137 0 l-133 0 l287 708 l122 0 l115 -281 l119 0 q66 0 121 -12 q55 -12 94 -38.5 q39 -26.5 61 -68 q22 -41.5 22 -101.5 q0 -97 -76.5 -152 q-76.5 -55 -213.5 -55 l-94 0 l-212 564 l-212 -564 ZM569 322 l87 -217 q31 0 60.5 5 q29.5 5 52 17 q22.5 12 36 32.5 q13.5 20.5 13.5 52.5 q0 34 -14 55.5 q-14 21.5 -38 33.5 q-24 12 -55.5 16.5 q-31.5 4.5 -66.5 4.5 l-75 0 Z" /><glyph glyph-name="u040A" unicode="&#x40a;" d="M208 708 l0 -281 l280 0 l0 281 l125 0 l0 -281 l100 0 q55 0 103 -13 q48 -13 83 -39.5 q35 -26.5 55.5 -67 q20.5 -40.5 20.5 -96.5 q0 -54 -19.5 -93.5 q-19.5 -39.5 -54 -66 q-34.5 -26.5 -82.5 -39 q-48 -12.5 -104 -12.5 l-227 0 l0 319 l-280 0 l0 -319 l-125 0 l0 708 l125 0 ZM613 321 l0 -213 l92 0 q66 0 105 25 q39 25 39 81 q0 57 -40 82 q-40 25 -105 25 l-91 0 Z" /><glyph glyph-name="u040B" unicode="&#x40b;" d="M313 353 l0 -353 l-125 0 l0 600 l-180 0 l0 108 l535 0 l0 -108 l-230 0 l0 -139 l132 0 q64 0 108.5 -19 q44.5 -19 72.5 -53.5 q28 -34.5 40.5 -83 q12.5 -48.5 12.5 -106.5 l0 -199 l-126 0 l0 159 q0 47 -5.5 83.5 q-5.5 36.5 -22 61 q-16.5 24.5 -46 37 q-29.5 12.5 -77.5 12.5 l-89 0 Z" /><glyph glyph-name="u040C" unicode="&#x40c;" d="M83 0 l0 708 l125 0 l0 -277 q20 0 39 -1.5 q19 -1.5 38 -3.5 l240 282 l137 0 l-253 -311 q107 -42 171.5 -138 q64.5 -96 92.5 -259 l-137 0 q-16 85 -41.5 147 q-25.5 62 -64.5 102 q-39 40 -94 58 q-55 18 -128 16 l0 -323 l-125 0 ZM393 764 l-94 0 l102 144 l131 0 l-139 -144 Z" /><glyph glyph-name="u040E" unicode="&#x40e;" d="M11 708 l258 -549 q-19 -34 -40 -51.5 q-21 -17.5 -49 -17.5 q-26 0 -44.5 11 q-18.5 11 -29.5 21 l-73 -92 q8 -7 19 -15 q11 -8 26.5 -15 q15.5 -7 38 -11.5 q22.5 -4.5 54.5 -4.5 q45 0 79.5 13 q34.5 13 61.5 35.5 q27 22.5 47 53.5 q20 31 37 68 l255 554 l-137 0 l-179 -404 l-185 404 l-139 0 ZM211 915 q14 -33 46.5 -55 q32.5 -22 71.5 -22 q40 0 71.5 22 q31.5 22 45.5 55 l71 -37 q-9 -23 -26 -43.5 q-17 -20.5 -41.5 -36.5 q-24.5 -16 -55 -25 q-30.5 -9 -65.5 -9 q-35 0 -65.5 9 q-30.5 9 -55 25 q-24.5 16 -42 36.5 q-17.5 20.5 -26.5 43.5 l71 37 Z" /><glyph glyph-name="u040F" unicode="&#x40f;" d="M522 108 l0 600 l125 0 l0 -708 l-220 0 l0 -139 l-109 0 l0 139 l-235 0 l0 708 l125 0 l0 -600 l314 0 Z" /><glyph glyph-name="u0410" unicode="&#x410;" d="M134 0 l-137 0 l301 708 l122 0 l299 -708 l-140 0 l-65 161 l-317 0 l-63 -161 ZM236 265 l240 0 l-119 304 l-121 -304 Z" /><glyph glyph-name="u0411" unicode="&#x411;" d="M314 108 q65 0 106 26.5 q41 26.5 41 80.5 q0 27 -11 47 q-11 20 -30.5 32.5 q-19.5 12.5 -46 18.5 q-26.5 6 -57.5 6 l-108 0 l0 -211 l106 0 ZM83 0 l0 708 l458 0 l0 -108 l-333 0 l0 -173 l118 0 q56 0 104 -12.5 q48 -12.5 82.5 -39 q34.5 -26.5 54 -66.5 q19.5 -40 19.5 -94 q0 -55 -20.5 -95.5 q-20.5 -40.5 -56 -67 q-35.5 -26.5 -83.5 -39.5 q-48 -13 -103 -13 l-240 0 Z" /><glyph glyph-name="u0412" unicode="&#x412;" d="M83 708 l249 0 q41 0 83 -8.5 q42 -8.5 75.5 -29 q33.5 -20.5 55 -55.5 q21.5 -35 21.5 -89 q0 -57 -33 -97 q-33 -40 -87 -55 l0 -2 q32 -5 60 -18.5 q28 -13.5 48.5 -35 q20.5 -21.5 32 -51 q11.5 -29.5 11.5 -66.5 q0 -51 -21 -89 q-21 -38 -57.5 -63 q-36.5 -25 -85 -37 q-48.5 -12 -103.5 -12 l-249 0 l0 708 ZM205 413 l116 0 q25 0 47.5 5.5 q22.5 5.5 39.5 17.5 q17 12 27 30.5 q10 18.5 10 45.5 q0 50 -38 72 q-38 22 -99 22 l-103 0 l0 -193 ZM205 103 l113 0 q29 0 57 5.5 q28 5.5 49.5 18 q21.5 12.5 35 33.5 q13.5 21 13.5 52 q0 57 -40 81.5 q-40 24.5 -109 24.5 l-119 0 l0 -215 Z" /><glyph glyph-name="u0413" unicode="&#x413;" d="M209 0 l-126 0 l0 708 l425 0 l0 -110 l-299 0 l0 -598 Z" /><glyph glyph-name="u0414" unicode="&#x414;" d="M106 0 l0 -139 l-109 0 l0 247 l107 0 l226 600 l122 0 l224 -600 l109 0 l0 -247 l-109 0 l0 139 l-570 0 ZM232 108 l312 0 l-156 460 l-156 -460 Z" /><glyph glyph-name="u0415" unicode="&#x415;" d="M205 108 l352 0 l0 -108 l-474 0 l0 708 l459 0 l0 -108 l-337 0 l0 -184 l316 0 l0 -103 l-316 0 l0 -205 Z" /><glyph glyph-name="u0416" unicode="&#x416;" d="M436 320 q-59 1 -105 -22 q-46 -23 -79 -65 q-33 -42 -54 -101.5 q-21 -59.5 -30 -131.5 l-137 0 q17 147 71 242 q54 95 142 141 l-213 325 l137 0 l193 -286 q36 6 75 6 l0 280 l125 0 l0 -280 q38 0 74 -6 l193 286 l137 0 l-214 -325 q179 -93 214 -383 l-137 0 q-9 73 -30 132 q-21 59 -54 101 q-33 42 -79 65 q-46 23 -104 22 l0 -320 l-125 0 l0 320 Z" /><glyph glyph-name="u0417" unicode="&#x417;" d="M188 413 l72 0 q69 0 109 26 q40 26 40 79 q0 49 -32.5 76 q-32.5 27 -85.5 27 q-45 0 -76 -24 q-31 -24 -45 -66 l-108 46 q29 71 90 110 q61 39 147 39 q51 0 95 -12.5 q44 -12.5 76.5 -36.5 q32.5 -24 51 -60.5 q18.5 -36.5 18.5 -84.5 q0 -33 -13 -60 q-13 -27 -33 -47 q-20 -20 -45 -32.5 q-25 -12.5 -49 -18.5 l0 -2 q27 -3 57 -13 q30 -10 55 -30.5 q25 -20.5 41 -52 q16 -31.5 16 -76.5 q0 -51 -21.5 -91 q-21.5 -40 -58 -68.5 q-36.5 -28.5 -86 -43.5 q-49.5 -15 -106.5 -15 q-52 0 -93 12.5 q-41 12.5 -72 35 q-31 22.5 -53 53.5 q-22 31 -35 68 l111 42 q20 -51 55 -78.5 q35 -27.5 94 -27.5 q66 0 102 30.5 q36 30.5 36 82.5 q0 63 -47.5 91.5 q-47.5 28.5 -139.5 28.5 l-67 0 l0 93 Z" /><glyph glyph-name="u0418" unicode="&#x418;" d="M210 176 l348 532 l146 0 l0 -708 l-125 0 l0 532 l-2 0 l-349 -532 l-145 0 l0 708 l125 0 l0 -532 l2 0 Z" /><glyph glyph-name="u0419" unicode="&#x419;" d="M275 915 q14 -33 46.5 -55 q32.5 -22 71.5 -22 q40 0 71.5 22 q31.5 22 45.5 55 l71 -37 q-9 -23 -26 -43.5 q-17 -20.5 -41.5 -36.5 q-24.5 -16 -55 -25 q-30.5 -9 -65.5 -9 q-35 0 -65.5 9 q-30.5 9 -55 25 q-24.5 16 -42 36.5 q-17.5 20.5 -26.5 43.5 l71 37 ZM552 708 l151 0 l0 -708 l-125 0 q0 134 0.5 265.5 q0.5 131.5 0.5 264.5 l-3 0 l-343 -530 l-150 0 l0 708 l125 0 q0 -133 -0.5 -263.5 q-0.5 -130.5 -0.5 -263.5 l3 0 l342 527 Z" /><glyph glyph-name="u041A" unicode="&#x41a;" d="M83 0 l0 708 l125 0 l0 -277 q20 0 39 -1.5 q19 -1.5 38 -3.5 l240 282 l137 0 l-253 -311 q107 -42 171.5 -138 q64.5 -96 92.5 -259 l-137 0 q-16 85 -41.5 147 q-25.5 62 -64.5 102 q-39 40 -94 58 q-55 18 -128 16 l0 -323 l-125 0 Z" /><glyph glyph-name="u041B" unicode="&#x41b;" d="M132 0 l-135 0 l289 708 l127 0 l292 -708 l-138 0 l-217 539 l-218 -539 Z" /><glyph glyph-name="u041C" unicode="&#x41c;" d="M462 193 l2 0 l193 515 l184 0 l0 -708 l-124 0 l2 553 l-2 0 l-217 -553 l-82 0 l-215 553 l-2 0 l2 -553 l-120 0 l0 708 l181 0 l198 -515 Z" /><glyph glyph-name="u041D" unicode="&#x41d;" d="M83 708 l125 0 l0 -286 l327 0 l0 286 l125 0 l0 -708 l-125 0 l0 314 l-327 0 l0 -314 l-125 0 l0 708 Z" /><glyph glyph-name="u041E" unicode="&#x41e;" d="M803 356 q0 -83 -28.5 -151.5 q-28.5 -68.5 -79 -118.5 q-50.5 -50 -120 -77.5 q-69.5 -27.5 -150.5 -27.5 q-81 0 -150 27.5 q-69 27.5 -120 77.5 q-51 50 -79.5 118.5 q-28.5 68.5 -28.5 151.5 q0 83 28.5 151.5 q28.5 68.5 79.5 117 q51 48.5 120 75.5 q69 27 150 27 q81 0 150.5 -27 q69.5 -27 120 -75.5 q50.5 -48.5 79 -117 q28.5 -68.5 28.5 -151.5 ZM669 356 q0 53 -17 100 q-17 47 -49 82 q-32 35 -77 55.5 q-45 20.5 -101 20.5 q-56 0 -101 -20.5 q-45 -20.5 -77 -55.5 q-32 -35 -49 -82 q-17 -47 -17 -100 q0 -54 17.5 -102 q17.5 -48 49 -83 q31.5 -35 76.5 -55.5 q45 -20.5 101 -20.5 q55 0 100.5 20.5 q45.5 20.5 77 55.5 q31.5 35 49 83 q17.5 48 17.5 102 Z" /><glyph glyph-name="u041F" unicode="&#x41f;" d="M641 708 l0 -708 l-125 0 l0 600 l-308 0 l0 -600 l-125 0 l0 708 l558 0 Z" /><glyph glyph-name="u0420" unicode="&#x420;" d="M83 708 l232 0 q56 0 104 -11.5 q48 -11.5 82.5 -36.5 q34.5 -25 54 -63.5 q19.5 -38.5 19.5 -93.5 q0 -55 -20.5 -94.5 q-20.5 -39.5 -56 -64.5 q-35.5 -25 -83.5 -36.5 q-48 -11.5 -103 -11.5 l-104 0 l0 -296 l-125 0 l0 708 ZM208 397 l95 0 q32 0 59 6 q27 6 46.5 19 q19.5 13 30 33 q10.5 20 10.5 48 q0 29 -11 48.5 q-11 19.5 -30 31.5 q-19 12 -45.5 17 q-26.5 5 -57.5 5 l-97 0 l0 -208 Z" /><glyph glyph-name="u0421" unicode="&#x421;" d="M693 105 q-42 -54 -109.5 -89 q-67.5 -35 -160.5 -35 q-81 0 -150 27.5 q-69 27.5 -119 77 q-50 49.5 -78.5 118.5 q-28.5 69 -28.5 151 q0 83 29 151.5 q29 68.5 79.5 117.5 q50.5 49 119.5 76 q69 27 149 27 q77 0 147.5 -28.5 q70.5 -28.5 111.5 -79.5 l-90 -83 q-23 34 -67 56 q-44 22 -98 22 q-56 0 -101 -20.5 q-45 -20.5 -77 -55.5 q-32 -35 -49.5 -82 q-17.5 -47 -17.5 -101 q0 -55 17.5 -102.5 q17.5 -47.5 49 -82.5 q31.5 -35 76.5 -55 q45 -20 101 -20 q55 0 101 22.5 q46 22.5 75 64.5 l90 -77 Z" /><glyph glyph-name="u0422" unicode="&#x422;" d="M351 0 l-126 0 l0 600 l-217 0 l0 108 l560 0 l0 -108 l-217 0 l0 -600 Z" /><glyph glyph-name="u0423" unicode="&#x423;" d="M150 708 l185 -404 l179 404 l137 0 l-255 -554 q-17 -37 -37 -68 q-20 -31 -47 -53.5 q-27 -22.5 -61.5 -35.5 q-34.5 -13 -79.5 -13 q-32 0 -54.5 4.5 q-22.5 4.5 -38 11.5 q-15.5 7 -26.5 15 q-11 8 -19 15 l73 92 q11 -10 29.5 -21 q18.5 -11 44.5 -11 q28 0 49 17.5 q21 17.5 40 51.5 l-258 549 l139 0 Z" /><glyph glyph-name="u0424" unicode="&#x424;" d="M510 693 q75 -8 138 -35.5 q63 -27.5 109 -71.5 q46 -44 71.5 -103 q25.5 -59 25.5 -129 q0 -71 -25.5 -130 q-25.5 -59 -71.5 -103 q-46 -44 -109 -72 q-63 -28 -138 -36 l0 -75 l-120 0 l0 75 q-75 8 -138.5 35.5 q-63.5 27.5 -109 72 q-45.5 44.5 -71.5 103.5 q-26 59 -26 130 q0 71 26 130 q26 59 71.5 103 q45.5 44 109 71 q63.5 27 138.5 35 l0 70 l120 0 l0 -70 ZM178 354 q0 -44 14 -82 q14 -38 41 -67.5 q27 -29.5 66.5 -50 q39.5 -20.5 90.5 -27.5 l0 453 q-51 -7 -90.5 -27 q-39.5 -20 -66.5 -50 q-27 -30 -41 -68 q-14 -38 -14 -81 ZM720 354 q0 43 -14 81 q-14 38 -40.5 67.5 q-26.5 29.5 -65.5 49.5 q-39 20 -90 28 l0 -452 q51 7 90 27.5 q39 20.5 65.5 50 q26.5 29.5 40.5 67.5 q14 38 14 81 Z" /><glyph glyph-name="u0425" unicode="&#x425;" d="M339 458 l159 250 l147 0 l-229 -335 l258 -373 l-156 0 l-183 282 l-179 -282 l-152 0 l254 373 l-232 335 l152 0 l161 -250 Z" /><glyph glyph-name="u0426" unicode="&#x426;" d="M83 0 l0 708 l125 0 l0 -600 l314 0 l0 600 l125 0 l0 -600 l81 0 l0 -247 l-109 0 l0 139 l-536 0 Z" /></font>
</defs>
</svg>
